<svg xmlns="http://www.w3.org/2000/svg" viewBox="0 0 990 650"><path fill="#2c2c2c" d="M38.48 537.51c5.24-3.04 2.99-6.19 1.04-9.04-7.72-11.31-14.16-23.35-19.06-36.07-8.13-21.09-10.21-42.82-4.86-65.01.53-2.18.96-4.43 2.55-6.05 2.13.48.88 2.88 2.57 3.55 2.85-6.67 2.82-14.03 5.11-20.76 5.6-16.44 13-31.97 24.21-45.43 11.18-13.42 24.27-25.05 35.96-38 2.8-3.1 6.35-5.33 9.64-7.87 6.85-5.29 15.09-8.35 20.76-15.74 4.24-5.53 12.09-7.37 18.26-10.96 13.42-7.82 27.5-14.06 42.7-17.48 3.7-.83 7.58-.95 11.39-1.25 1.17-.09 3.11-.81 3.23 1.14.11 1.7-1.69 1.64-3.03 1.79-.94.1-2.02-.23-2.88.88 12.79.03 24.68 4.73 37.15 6.06 2.93.31 4.67-.1 6.22-2.58 2.03-3.26 4.38-6.29 8.01-8.01 1.81-.86 3.44-1.02 3.35 1.62-.08 2.44 1.62 3.05 3.27 3.82 5.99 2.8 16.41-.83 20.3-6.13 6.07-8.26 12.4-16.37 18.36-24.68 5.69-7.94 11.99-15.46 17.14-23.8 3.41-5.51 8.53-10.04 11.5-15.54 6.29-11.69 16.25-19.89 24.87-29.37 1.51-1.67.96-3.55.41-5.17-.62-1.83-2.73-1.4-3.92-1-3.29 1.11-5.1-.67-6.55-2.96-2.72-4.28-6.51-8.17-5.75-13.91.11-.83-.11-2.2-.85-2.08-4.25.66-6.48-3.41-9.96-4.12-8.86-1.81-9.74-2.32-10.93-11.21-.33-2.48-1.2-3.57-3.42-4.51-5.83-2.48-7.17-10.38-3.83-15.63 5.32-8.38 12.91-14.56 19.49-21.7.96-1.04 2.45-1.9 3.83-2.19 9.83-2.01 19.33-4.61 29.9-2.45 5.71 1.16 10.35 2.61 15.47 5.43 10.45 5.75 21.62 10.3 32.81 14.51 8.82 3.31 18.28 4.73 27.14 8.14 8.67 3.34 16.1 7.85 19.59 17.04 1.24 3.27 2.51 5.39-3.21 5.91-7.44.68-14.83 2.61-22.25 3.98-5.65 1.05-10.91.27-16.22-1.1-2.63-.68-5.23-.93-7.89-.75-.96.06-2.62.24-2.74.69-1.53 5.87-4.34 2.31-7.61 1.78-7.2-1.17-14.55.31-21.78 1.36-.81.12-1.48.56-1.73 1.53-.98 3.89 4.95 11.55 9.03 11.9 22.68 1.95 45.12-2.03 67.7-2.66 5.63-.16 11.25-.63 16.8 1.26 2.84.97 6.04.41 8.89-.42 14.75-4.26 30.02-2.99 45.04-4.33 12.78-1.14 25.62 2.09 38.47.42 7.1-.92 13.96-2.92 21.24-3.24 17.98-.81 35.92-.43 53.88.21 16.46.59 32.94.86 49.41 1.42 4.32.15 6.18-3.4 9.15-5.29.8-.51 1.21-1.64 2.91-1.54-.46 2.81-4.25 3.29-4.23 6.55 4.83.18 9.33.19 13.94-2.55 7.61-4.53 13.91-10.1 18.35-17.79 1.43-2.48 2.86-4.03-1.21-5.93-4.47-2.09-5.24-7.26-6.36-11.72-.26-1.01.2-1.98 1.29-2.43 1.65-.69 2.61.47 3.25 1.55 1.7 2.84 3.64 5.41 6.81 7.34-1.4-5.13 1.68-10.12-1.17-15.55-2.87-5.48-4.06-11.85-5.86-17.87-.79-2.64 1-2.82 2.84-2.37 2.9.71 5.72 1.72 8.62 2.4 2.81.66 4.53-.22 6.4-2.94 5.58-8.16 7.32-17.71 10.86-26.6 4.98-12.5 10.51-24.79 20.36-34.48 2.65-2.61 6.01-2.36 9.62-2.23-2.31-4.97-7.06-.73-9.83-3.12 2.93-2.63 8.76-2.41 11.39.41 2.94 3.15 5.8 6.33 6.38 10.93.35 2.74 1.56 4.03 4.94 3.96 6.91-.14 10.34 5.54 13.61 10.32 7.24 10.58 9.86 22.73 10.52 35.38.38 7.22-.68 14.64 3 21.42.33.6.12 1.6-.07 2.36-.47 1.85-4.7 1.78-3.15 3.99 2.1 3 4 6.62 8.03 7.86 1.9.58 3.72 1.39 5.58 2.09 1.46.55 2.68 1.53 3.27 2.9.34.79.3 2.17-.19 2.8-.76.97-1.81.17-2.49-.53-.99-1.03-1.67-2.49-3.66-2.06 0 .5-.15 1.02.02 1.39 7.69 16.71 11.45 38.24 8.27 50.73-3.97 15.64-12.26 28.05-26.91 35.91-7.38 3.96-14.69 5.51-22.9 3.46-5.22-1.3-8.51 1.26-5.92 6.64.79 1.64 1.24 3.43 1.99 5.09.78 1.73 1.67 4.22 3.09.32.37-1.03 1.16-1.28 1.93-.81.85.53.65 1.66.19 2.24-3.08 3.9-.94 7.5.63 11.03 2.5 5.59 3.45 11.86 7.39 16.82.2.25.46.6.44.87-.26 2.66-1.66 5.34 1.68 7.45 5.58 3.51 11.21 6.88 18.1 5.48 4.24-.86 7.9-.47 11.13 2.42 1.21 1.08 2.53.74 3.77.53 13.59-2.28 26.59.08 39.68 3.91 8.47 2.48 16.6 5.75 24.86 8.68 16.72 5.94 31.9 15.39 43.28 28.59 13.62 15.8 25.57 33.09 34.41 52.41 8.94 19.53 14.92 39.61 17.28 60.93 1.47 13.29 1.5 26.66 3.04 39.92.23 1.98-.25 3.92-.53 5.89-.55 3.84-1.46 7.54-.08 11.7 1.58 4.75-1.77 9.3-2.98 13.89-3.12 11.84-6.81 23.53-10.4 35.24-.79 2.57-1.18 5.63-5.19 5.62-1.56 0-2.02 2.03-2.74 3.29-7.67 13.44-16.01 26.69-26.06 38.21-17.98 20.59-37.23 40.17-63.22 51.26-14.47 6.18-29.64 9.6-45.12 9.1-21.91-.71-43.42-4.23-64.55-11.14-21.66-7.09-39.86-19.02-57.49-32.91-10.91-8.59-21.78-17.1-29.92-28.29-8.93-12.28-16.75-25.01-21.19-40.12-6.72-22.91-4.17-45.64-2.75-68.6 1.52-24.67 8.03-48.1 18.31-70.38 5.13-11.12 13.11-20.69 20.33-30.63 9.77-13.45 20-26.52 30.78-39.16 5.02-5.89 11.23-10.3 18.08-13.89 2.19-1.15 6.09-1.63 3.31-5.81-.23-.35.23-1.24.49-1.82 2.92-6.7 7.46-12.52 10.34-19.28.69-1.63 3.65-1.92 3.17-5.09-.56-3.73-1.54-4.17-4.56-2.09-10.11 6.97-20.37 13.7-30.45 20.71-15.67 10.9-31.6 21.47-46.76 33.04-19.14 14.6-37.62 30.07-56.38 45.17-19.56 15.74-37.67 33.13-56.64 49.54-4.35 3.76-5.07 9.71-10.65 13.45 5.88.53 8.76 3.01 10.18 7.9 1.13 3.89 3.94 7.26 5.32 11.11 1.02 2.84 1.3 6.16-3.7 6-2.56-.09-4.45.92-2.37 3.95 1.88 2.74.28 5.79.24 8.53-.1 6.98 2.25 14.34-1.89 20.95-1.49 2.38-.38 5.19-1.65 7.69-2.15 4.24-1.15 10.09-6.57 12.67-.23.11-.52.66-.44.8 2.99 5.13-.44 12.07 5.2 16.69 3.26 2.67 5.43 6.67 8.12 10.05.91 1.14 1.74 2.61 3.62 1.48 7.18-4.31 14.17-2.3 20.84 1.08 1.66.84 3.22 2.46 3.73 5.28.99 5.49 3.82 10.55 7.2 15.07 1.93 2.57 1.74 3.74-1.18 5.26-3.42 1.78-8.38 2.92-6.02 8.88.5 1.28-.91 2-1.67 2.83-8.68 9.53-18.32 18.24-29.65 24.09-8.19 4.22-15.52 9.14-22.44 14.99-2.18 1.84-4.92 1.12-4.19-1.81 2.04-8.26-3.06-12.68-8.13-17.29-1.25-1.14-2.15-1.97-.78-3.65 2.53-3.08 2.89-7.12 4.31-10.68 3.23-8.07 4.38-16.96 9.25-24.4 1.78-2.72 1.92-4.95-.17-7.62-3.74-4.79-6.97-9.96-9.66-16.41-2.53 4.43-4.74 7.2-9.13 3.14-1.57-1.45-4.02 1.07-6.1 1.07-10.19-.02-20.4 2.25-30.57.08-5.17-1.11-10.18-3.09-15.39-3.9-7.54-1.17-14.95-2.81-22.33-4.71-5.11-1.32-9.94 1.27-14.92 1.81-6.05.66-11.92.08-17.38-1.53-2.81-.83-4.24-4.99-8.8-4.86-4.8.13-9.16.55-13.2 3.2-2.7 1.77-5.34 1.89-8.41.44-3.4-1.6-9.12.36-10.61 3.82-6.07 14.06-15.51 25.78-25.01 37.56-16.08 19.93-34.92 35.77-58.38 46.95-9.62 4.58-19.18 4.53-28.71 6.47-22.41 4.56-45.01 9.02-67.94 9.21-23.65.19-45.46-6.66-64.27-21.69-2.97-2.37-6.38-4.2-9.64-6.18-3.97-2.41-7.48-5.37-11.08-8.31-13.96-11.39-24.82-25.82-37.92-38.06-3.12-2.91-5.22-6.9-8.22-9.98-3.51-3.6-4.83-11.09-13.28-7.44ZM260.7 322.09c-.93-.13-1.97-1.26-2.75-.4-3.71 4.06-6.3 8.83-8.6 13.78 4.33-4.07 10.68-6.45 11.21-13.49 4.45-1.98 5.13-6.01 6.52-11.14-5.04 3.21-7.31 6.39-6.38 11.26ZM90.22 437.48c1.23-2.92 4.04-2.39 6.36-2.84 1.53-.3 2.31-1.03 2.46-2.58.17-1.76-.85-2.36-2.32-2.51-2.78-.28-5.56-.56-8.35-.72-1.71-.1-1.86 1.05-2.21 2.53-.86 3.72 3.2 3.79 4.11 6.1-2.5-.12-4.18.43-3.55 3.58.45 2.25.53 4.57.77 6.85.68 6.57 5.28 4.02 8.89 3.84 4.34-.21 2.37-3.42 2.63-5.53.12-.97-.07-1.98-.1-2.97-.23-7.27-1.24-7.94-8.67-5.76Zm784.49-145.04c4.09 4.19 9.33 6.5 14.42 9.05-4.5-3.57-7.89-8.97-14.57-8.94.96-2.07-.93-2.85-2.01-3.33-13.83-6.22-28.2-10.49-43.48-10.9-4.14-.11-8.28.15-12.43-.22-1.02-.09-2.9-1.55-3.17.72-.22 1.86 1.02 3.09 3.06 3.09 2.99 0 6.01.23 8.95-.12 15.54-1.83 29.83 2.23 43.55 8.99 1.83.9 3.61 1.63 5.68 1.66Zm5.52 205.24c-4.57-4.29-10.19-6.71-15.8-9.16 4.55 4.35 9.37 8.25 15.92 9.03.11.29.12.73.33.86 16.37 10.44 33.51 19.64 49.51 30.68 3.49 2.41 3.98-1.46 5.3-3.19 2.09-2.75-.55-2.82-2.11-3.47-12.84-5.36-26.22-9.49-38-17.25-4.7-3.09-9.75-5.68-15.13-7.51Zm-559.65-56.8c.29.4.53 1.08.89 1.16 9.84 2.13 19.79 3.57 29.78 4.81.91.11 1.71-.28 1.84-1.24.21-1.58-.94-1.69-2.15-2.01-10.02-2.61-20.14-3.83-30.48-2.6 1.02-3.98-2.31-2.67-3.85-2.88-16.06-2.13-32.13-4.3-48.24-6.07-15.5-1.7-31.07-2.8-46.34-6.2-.94-.21-2.02-.16-2.97.05-2.29.5-6.03 5.95-4.76 6.52 1.97.89 4.43.9 6.28-.16 2.88-1.66-1.82-2.11-.65-3.98 2.35.61 4.79 1.53 7.32 1.84 11.53 1.4 22.85 4.01 34.38 5.44 19.59 2.44 39.09 5.69 58.94 5.31ZM98.6 343.81c2.43-.3 4.5.16 6.22 2.18 4.74 5.57 9.61 11.03 13.61 17.17 8.25 12.68 17.09 24.91 27.15 36.23 1.38 1.55 2.8 3.85 5.26 2.72 2.12-.97 3.5-2.36 3.66-5.58.2-4.15-1.27-7.37-2.72-10.83-7.66-18.37-18.97-35.04-25.24-54.08-.78-2.37.51-6.18-2.46-6.98-2.94-.8-4.67 2.74-6.96 4.26-6.6 4.4-13.8 8.14-18.37 15.04-1.84.55-2.99 2.04-4.4 3.18-1.8 1.46-2.12 2.82-.14 4.41 11.06 8.88 19.75 20.06 29.38 30.33 3.89 4.14 7.71 8.34 12.11 13.1.92-3.19-.47-3.88-1.26-4.8-12.75-14.83-22.03-32.34-35.85-46.34Zm132.21 54.96c-5.67 1.47-9.83 5.37-14.57 8.45 5.21.39 10.2.78 15.01 1.29 6.56.7 13.05-4.24 19.51.14 1.37.93 2.23-1.02 3.27-1.7 2.14-1.4 4.09-2.89 4.97 1.2.27 1.28 1.3 2.33 2.83 2.43 5.61.35 11.21-.42 16.85 1.15 2.93.82 4.99-2.85 7.42-4.44 2.36-1.54 4-1.58 6.2-.08 3.36 2.29 7.33 3.68 11.22 2.75 10.29-2.45 20.64-1.04 30.95-1.03 2.66 0 4.75-1.09 7.05-1.94 1.32-.49 1.57-1.42 1.04-2.25-4.94-7.85-6.26-17.08-9.85-25.43-4.96-11.54-15.62-18.71-22.27-28.97-1.25-1.93-2.64-4.24-4.55-5.15-3.21-1.54-2.97 2.66-4.74 3.9-16.14 11.32-32.71 22.06-48.14 34.36-7.12 5.68-15.86 8.99-22.4 15.49l.17-.17Zm291.92 8.29c4.04-1.41 9.02.65 12.39-2.37 4.69-4.21 9.44-8.28 14.39-12.21 10.41-8.25 20.42-16.98 31.22-24.76 12.25-8.83 23.77-18.62 36.14-27.31 9.22-6.48 18.84-12.79 26.69-20.73 8.77-8.87 18.92-15.69 28.96-22.59 13.93-9.56 26.71-20.61 40.65-30.11 1.06-.72 2.27-1.76 2.6-2.89 1.05-3.55 3.89-5.22 6.66-6.96 4.47-2.81 9.07-5.43 13.58-8.19 5.41-3.3 6.8-7.86 3.93-13.55-1.19-2.35-2.75-4.54-4.33-6.66-2.69-3.61-5.6-7.1-7.01-11.44-4.94-15.17-8.22-30.49-3.39-46.37.69-2.26.63-3.07-2.36-3-17.46.4-34.83 2.26-52.24 3.42-12.63.85-25.32-.99-37.85 1.08-12.79 2.11-25.62 2.85-38.56 3.36-7.84.31-15.59-.79-23.34-.23-12.96.95-25.92 1.1-38.89.75-8.31-.22-16.67-1.74-24.9-.54-23.73 3.47-47.42 2.5-71.16.5-6.9-.58-14.02-2.76-20.76 0-6.54 2.68-12.75 6.02-20.15 3.89-.44-.13-1.08-.07-1.46.16-4.48 2.68-8.68.36-12.9-.74-2.4-.62-4.66-1.72-7.04-2.44-1.37-.41-2.96-1.5-4.25-.38-1.46 1.26-.15 2.78.35 4.1 4.75 12.77 10.02 25.32 15.53 37.78 17.55 39.67 31.74 80.71 49.16 120.46 9 20.54 16.92 41.57 26.31 61.97 1.73 3.76 3.49 4.29 5.93 1.35 1.92-2.31 3.73-3.15 6.33-1.28.69.5 1.64.85 2.26.08 2.85-3.53 5.78-1.87 8.88-.43 1.13.52 2.93.87 3.84.32 3.07-1.84 5.78-.84 8.54.44 1.75.81 3.56.77 5.39.66 5.87-.35 11.48.47 16.71 3.35 1.26.69 2.47 1.81 4.16 1.49ZM314.76 239.67c.98-1.09 1.87-2.28 2.97-3.23.99-.85 1.17-3.65 3.01-2.31 1.8 1.31-.02 3.23-1.04 4.19-11.63 10.93-18.43 25.41-28.02 37.83-3.06 3.96-3.17 7.35.12 11.32 1.97 2.37 3.22 5.44 4.38 8.36 1.02 2.57 2.51 5.81.48 8.03-2.24 2.45-.38 2.88.87 4.03 4.15 3.83 8.94 6.86 12.92 10.94 10.11 10.38 18.33 22.27 27.39 33.48 4.79 5.93 9.86 11.66 14.27 17.87 6.93 9.76 10.79 20.93 13.2 32.57.7 3.35 1.88 3.04 3.73 1.15 2.36-2.42 5.31-3.95 8.05-5.81.84-.57 2.42 1.74 2.35-.65-.04-1.39.34-3.13-1.3-4.05-.85-.48-1.9-.64-2.68-1.21-1.48-1.09-2.11-2.61.25-3.14 7.64-1.7 13.08-6.93 18.97-11.43 7.74-5.91 14.69-13.01 24.34-15.99 2.4-.74 2.61-1.69 1.21-3.8-5.33-8.11-8.85-17.22-11.6-26.34-6.34-21.03-15.16-41.06-23.18-61.42-4.01-10.19-8.46-20.31-11.24-30.85-4.75-18.02-11.84-35.2-17.46-52.89-1.62-5.1-3.55-5.1-8.05-1.74-4.32 3.23-5.78 8.58-9.4 12.11-12.25 11.94-18 27.6-24.55 43ZM806.59 509.6c-.84 3.76.16 6.12.7 8.52 1.21 5.34 2.86 10.59 3.75 15.98 3.5 21.29 9.07 42.14 13.4 63.25.3 1.48 1.19 3.2-.79 3.78-1.92.56-2.56-1.29-2.75-2.76-1.33-10.07-4.59-19.72-6.42-29.67-3.57-19.42-8.03-38.64-12.33-57.89-2.48-11.12-6.2-22.12-5.73-33.57.2-4.85-1.78-3.64-4.15-3.31-1.91.27-1.81 2.01-2.14 3.48-2.41 10.72-2.74 21.7-4.24 32.52-2.87 20.67-7.81 41.02-10.33 61.77-.26 2.11.46 4.79-2.06 7.21 0-1.89-.14-3.04.02-4.15 2.61-18.05 5.04-36.12 7.95-54.12 2.35-14.56 1.91-29.53 6.4-43.77.62-1.96-.27-2.86-2.06-3.03-1.82-.17-3.65-.14-5.48-.2-2.91-.1-4.08.73-4.5 4.18-.8 6.52-2.27 13.06-4.34 19.31-4.58 13.87-11.47 26.82-16.67 40.45-2.86 7.5-8.09 13.75-10.59 21.41-3.08 9.47-6.25 18.92-9.72 28.25-1.1 2.96-.51 4.19 2.3 5.1 9.79 3.2 18.97 8.07 28.94 10.77 1.36.37 3.36 1.96 3.94.79.69-1.41 2.03-3.52.55-5.29-.45-.54-.97-.84-.55-1.46 2.65-3.9 2.54-8.69 4.13-13.7.33 1.24.6 1.72.55 2.16-.45 4.13-.98 8.24-1.45 12.37-.64 5.6.61 7.32 6.25 8.44 4.73.94 9.45 1.96 14.22 2.6 4.57.61 9.08 1.36 13.84.6 11.62-1.87 23.38-2.94 34.73-6.24 9.39-2.73 18.88-5.16 27.56-9.9 4.21-2.3 5.57-4.71 2.62-9.37-6.2-9.81-12.96-19.31-18.05-29.8-4.21-8.67-10.43-16.15-14.32-25.05-8.75-20.06-15.56-41.07-28.22-59.28-.97-1.4-1.52-3.91-3.93-1.97-2.38 1.9-5.06 3.19-7.78 4.43-1.24.57-1.96 1.15-1.42 2.61 2.61 7 2.24 15.05 6.18 21.43 8.83 14.29 11.34 30.71 16.53 46.2 3.94 11.79 6.77 23.94 12.35 35.17 2.28 4.58 3.19 9.79 6.16 14.12.64.93 1.04 2.42-.04 3.19-1.33.94-2.54.1-3.21-1.22-1.13-2.21-2.25-4.43-3.21-6.71-1.81-4.28-3.32-8.7-5.29-12.91-7.07-15.11-10.39-31.39-14.98-47.27-1.62-5.61-2.29-11.62-6.33-17.46Zm-593.31-57.94.7-1.03c1.04.46 2.14.82 3.11 1.4 19.07 11.45 38.22 22.77 57.12 34.5 4.52 2.8 9.07 5.41 13.75 7.92 11.44 6.12 23.97 9.76 35.38 15.9 2.1 1.13 4.09 1.29 6.19.36 3.36-1.48 6.78-1.46 10.24-.48 1.25.35 2.54 1.23 3.29-.7 2.16-5.57 5.6-10.6 7.13-16.43 2.4-9.13 4.39-18.34 5.39-27.76.33-3.16-.22-4.66-3.66-4.86-4.81-.27-9.62-.73-14.38-1.45-21.02-3.19-42.04-6.17-63.36-6.49-9.3-.14-18.6-.68-27.89-1.13-11.31-.55-22.22-3.63-33.35-5.35-1.85-.29-4.39-1.92-5.34.3-.73 1.72 1.24 3.85 2.41 5.57.54.79 1.47 1.33 2.26 1.94 8.81 6.78 17.54 13.7 27.51 18.79 13.94 7.13 25.56 17.93 39.54 25 3.55 1.8 7.01 3.75 10.12 6.32 5.66 4.66 6.99 4.65 14.44.33-32.55-13.95-60.27-35.49-90.6-52.65Zm551.82-30.43c-4.12-6.8-9.45-10.2-14.25-14.22-12.97-10.86-25.68-22.01-38.6-32.94-3.79-3.21-7.85-6.11-11.9-9-.97-.69-2.34-.86-1.37-2.42.78-1.25 1.94-1.15 3.04-.44.84.53 1.54 1.27 2.37 1.82 16.67 11.07 29.58 26.61 45.74 38.33 6.15 4.45 11.3 10.27 16.96 15.4.88.8 2.49 3.07 3.15.3.84-3.56 1.84-7.35-1.16-10.83-3.68-4.27-7.25-8.59-11.09-12.74-8.11-8.78-17.86-15.9-25.04-25.62-5.62-7.6-11.85-14.75-17.92-22-1.41-1.68-3.33-4.46-5.67-2.33-5.39 4.91-10.65 10.04-15.07 15.89-.64.84-1.82 2.5.49 3.02 1.11.25 2.74-.14 2.22 1.64-.4 1.37-2.06 3.19-3.18 2.55-2.22-1.26-3.08.13-4.06 1.26-4.97 5.74-7.26 13.08-11.18 19.48-4.2 6.85-4.93 15.36-6.24 23.38-.48 2.93.17 4.86 3.51 5.29 4.1.52 8.12 1.5 12.27 1.86 12.61 1.12 24.19 6.79 36.63 8.65 10.3 1.53 20.01 5.86 30.76 5.59 5.2-.13 6.71-3.83 8.13-6.73 1.24-2.54-2.88-3.22-4.82-4.51-1.11-.74-2.29-1.37-3.35-2.16-19.76-14.65-40.68-27.52-61.95-39.83-1.15-.67-2.78-1.21-1.9-2.86.83-1.57 2.22-.85 3.42-.09 3.77 2.4 7.45 4.96 11.36 7.12 16.32 9.02 31.63 19.58 46.76 30.41 3.35 2.39 6.64 4.79 11.94 6.74Zm102.41-123.36c-1.68-.91-4.72-1.12-3.99-3.22 1.05-3.01-.95-3.29-2.32-3.78-5.6-1.99-11.2-4.4-17.01-5.3-4.29-.66-10-3.66-12.97 2.98-.2.46-.57.64-1.15.2-6.04-4.53-12.74-.98-19.12-1.51-.89-.07-2.1.47-1.91 1.16 1.16 4.04-1.18 5.39-4.33 6.68-1.36.56-.61 2.41-.47 3.69 1.75 16.19 1.04 32.49 2.23 48.73.74 10.03 1.99 20.4.31 30.34-1.62 9.61 2.15 19.27-1.26 28.66-.03.09.72.46 1.21.76 5.24-6.17 9.92-12.57 14.22-19.32 9.56-15.01 16.75-31.33 26.25-46.39 6.81-10.8 13.36-21.85 17.37-34.14.93-2.84 2.28-5.5 4.15-7.91 2.98-3.82 2.4-4.78-3.15-5.62-.59 1.9 2.45 1.61 1.91 3.97Zm-37.61 147.8c9.98 4.69 20.47 7.74 31.07 10.04 12.79 2.77 25.7 4.99 38.72 6.73 13.33 1.77 25.46 8.43 38.3 12.4 8.04 2.48 7.91 2.87 8.37-5.67.04-.66.13-1.32.2-1.99 1.29-13.82 3.43-27.58 2.69-41.55-.48-8.94-.32-8.94-8.85-7.49-.49.08-.99.15-1.49.18-16.27.79-32.53 1.7-48.8 2.31-11.48.43-22.85 1.75-33.98 4.36-7.29 1.71-14.55 3.27-22 3.86-7.17.58-7.61.98-8.94 8.04-.5 2.67-.1 4.04 3.08 3.98 15.37-.25 30.02 5.14 45.39 5.62 16.55.51 32.79 4.7 49.4 5.5 6.29.3 12.6.55 18.9.92 1.35.08 2.9.19 2.96 1.93.06 1.61-1.58 1.32-2.59 1.72-2.24.87-4.55.76-6.89.7-27.79-.66-55.05-6.11-82.57-9.25-7.63-.87-15.04-3.67-22.97-2.32Zm-103.13 13.42c-.13-.4-.26-.79-.39-1.19-4.08.59-8.26.81-12.23 1.83-15.71 4.05-31.91 5.81-47.47 10.53-3.41 1.03-4.65 2.75-4.23 6.07 1.41 11.35 1.28 22.9 3.99 34.06 3.56 14.68 6.91 29.5 18.02 40.92 4.1 4.22 4.53 4.4 7.86-.78 5.38-8.36 11.31-16.41 15.63-25.39 2.47-5.14 6.79-9.02 10.1-15.34-4.55 3.32-8.39 4.79-11.61 7.58-8.15 7.05-16.98 13.32-23.95 21.69-.82.98-1.98 3.06-3.54 1.55-2.1-2.03.78-2.74 1.69-3.67 6.63-6.73 13.41-13.23 20.89-19.13 13.8-10.89 26.77-22.82 40.2-34.19 6.45-5.46 13.16-10.6 19.73-15.9.85-.68 2.6-.61 2.45-2.08-.15-1.5-1.62-1.91-2.92-2.27-1.3-.36-2.57-.27-3.92-.15-5.65.48-11.02 2.43-16.57 3.22a265.475 265.475 0 0 0-50.1 12.22c-4.38 1.53-8.86 2.79-13.32 4.11-.97.29-2.04.22-2.42-1.04-.24-.8.34-1.34.98-1.44 3.01-.46 5.03-3.25 7.37-3.98 7.21-2.23 13.53-6.29 20.54-8.9 7.7-2.87 15.52-5.5 23.24-8.35Zm-561.11 81.7c-3.55 7.73-2.07 16.98-4.87 25.39-1.12 3.37-1.62 6.74-.26 10.16.43 1.09 1.17 2.37-.27 3-1.65.72-2.21-.84-2.92-1.97-.86-1.36-.89-2.85-.72-4.34.5-4.62.76-9.3 1.71-13.83 1.54-7.43.77-15.51 3.52-22.28 2.55-6.28 2.66-12.44 3.37-18.7.25-2.21.3-4.64-3.36-5.82-2.61-.85-5.35-1.32-7.91-2.27-3.97-1.47-9.18-.72-11.09-6.14-.5-1.43-.26-3.85-2.32-4-2.44-.18-2.77 2.43-3.84 4-7.1 10.45-12.21 22.1-19.57 32.39-5.34 7.47-8.72 16.03-13.31 23.92-1.59 2.73-1.29 4.9 1.29 6.91 5.76 4.49 11.51 9.01 17.1 13.71 10.25 8.64 22.8 11.82 35.27 15.22 2.75.75 4-.12 4.43-3.37 1.19-9.01.53-18.05 3.26-27.16 2.34-7.79.48-16.83.48-24.81Zm39.96-31.48c-.25.38-.5.75-.75 1.13.69 2.66 1.45 5.31 2.05 8 2.75 12.3 5.87 24.47 10.51 36.26 2.65 6.74 5.49 13.41 6.87 20.71 1.38 7.29 2.42 14.75 5.05 21.81.92 2.47 1.92 3.44 4.7 2.62 6.21-1.83 12.53-3.27 18.48-5.92 10.17-4.54 20.29-9.17 30.55-13.49 5.92-2.49 6.2-2.54 1.64-6.82-13.29-12.47-23.45-27.51-34.48-41.82-7.82-10.15-15.63-19.73-30.15-19.01-5.08.25-10.3 1.26-14.47-3.47Zm612.2-48.41c-2.44-.38-3.09 1.09-4.01 2.26-1.09 1.39-.39 2.37.49 3.49 3.5 4.41 7.58 8.3 10.99 12.82 4.79 6.36 11.23 11.71 14.95 18.58 8.09 14.96 19.54 27.13 30.46 39.77 8.66 10.04 19.14 18.48 26.43 29.77 1.61 2.5 3.67 3.2 5.92.26 1.4-1.82 3.2-3.37 4.95-4.9 6.93-6.04 13.1-12.74 17.67-20.77 4.5-7.92 4.68-8.32-2.94-13.36-13.14-8.7-26.27-17.43-40.21-24.86-6.15-3.28-12.78-5.73-18.35-10.01-12.11-9.3-24.17-18.67-36.19-28.09-3.22-2.52-7.04-3.59-10.15-4.96Zm1.58-3.32c2.65-.47 4.5 1.01 6.46 2.23 6.48 4.03 12.21 9.11 18.96 12.81 17.75 9.73 35.56 19.38 52.83 29.91 10.9 6.65 22.85 10.46 34.43 15.33 3.85 1.62 6.43.75 7.47-3.91 2.17-9.69 2.46-19.71 5.36-29.27.83-2.72-.77-4.51-3.22-5.37-12.05-4.2-23.95-9.02-36.25-12.29-12.96-3.44-26.54-3.98-39.7-6.85-12.99-2.83-25.75-6.58-37.89-11.68-5.48-2.3-6.08-.23-7.29 3.34-.58 1.69-.73 3.53-1.16 5.74Zm8.91-31.6c.75-.15 1.25-.22 1.73-.34 12.36-3.06 24.67-6.25 36.72-10.47 13.42-4.7 26.01-12.06 40.59-13.19 11.21-.87 21.41-5.69 32.22-8.11 5.93-1.33 5.89-2.03 3.67-7.85-.88-2.32-1.32-4.81-2.17-7.14-3.18-8.77-7.16-17.05-13.98-23.76-1.8-1.77-2.92-1.55-4.59-.34-13.75 9.98-29.26 17.11-43.28 26.62-6.02 4.09-12.63 7.29-18.13 12.16-10.37 9.18-21.03 17.95-33.89 23.58-1.71.75-3.42 2.16-2.24 4.26.92 1.64.38 4.68 3.35 4.58Zm-657.54 82.81c-.48.01-.96.02-1.44.04-1.03 1.66-.46 3.52-.51 5.29-.33 11.96.46 23.93-.48 35.89-.94 12.07-1.74 24.15-3.24 36.18-1.09 8.73.65 10.72 9.01 11.08 1.83.08 2.83 1.55 4.58 1.44 12.85-.8 25.42 2.06 38.13 3.09 4.6.37 4.88-1.25 3.07-4.56-5.23-9.54-7.9-20.08-11.69-30.17-6.15-16.34-9.63-33.46-12.7-50.64-.26-1.46.19-3.42-1.98-4.17-3.08-1.07-.96 3.31-3.22 2.99-1.38-3.13-1.39-3.18-5.23-2.89-1.94.15-2.03-1.31-2.45-2.51-.79-2.24-2.74-2.29-4.54-2.16-2.21.16-1.85 2.04-1.69 3.45.86 7.33-.88 14.6-.56 21.9.77 17.57 2.16 35.13.05 52.71-.3 2.52.2 5.16-1.37 7.55-2.94-14.05.22-28.21-.87-42.28s-1.94-28.15-2.89-42.23Zm763.82 27.25c-3.05 1.7-3.32 1.59-4.43 4.24-6.34 15.21-19.63 24.67-30.09 36.45-2.64 2.97-5.49 5.84-8.63 8.24-3.01 2.3-9.13 3.7-9.33 5.91-.62 6.61-5.64 1.59-7.45 3.83-.29.36-.83.55-1.27.78-3.7 1.9-7.28 4.07-11.12 5.63-20.07 8.16-41.31 11-62.64 13.31-1.47.16-3.02.06-4.48-.19-21.82-3.86-42.89-10.22-63.16-19.16-3.32-1.47-6.69-3.19-9.46-5.48-13.21-10.93-27.22-20.89-39.4-33.05-5.6-5.59-9.89-11.99-12.8-19.37-4.76-12.1-8.27-24.58-9.57-37.48-1.3-12.96-3.73-26.01-.48-39.04 2.12-8.49 3.24-17.18 5.13-25.73 2.33-10.58 2.67-21.59 5.3-32.2.24-.99 1.11-2.14-.27-3.06-1.53.54-1.7 1.99-2.17 3.16-3.03 7.41-5.2 15.07-6.5 22.97-.24 1.46.16 3.15-2.06 3.29-4.09.27-4.35 3.57-4.46 6.33-.48 11.93-.71 23.88-.95 35.82-.1 5.19-2.18 10.13-2.38 15.15-.31 7.65-1.01 15.64 4.51 22.33 2.97 3.61.91 8.46 2.35 12.42 2.47 6.85 4.21 14 7.9 20.37.8 1.37 1.07 2.74.92 4.28-.41 4.22-1.5 8.69 4.5 10.22.87.22 1.33 1.83 2.11 2.68 2.89 3.11 4.72 7.07 10.04 7.77 3.08.4 7.78 3.19 8.28 5.62 1.08 5.26 6.42 5.29 8.4 8.94.33.6 2.51.98 2.38.11-.54-3.8 1.15-1.42 2.01-.82 8.73 6.05 17.7 11.79 26.04 18.34 4.64 3.64 10.64 4.87 14.06 11.35 2.23 4.24 10.21 5.44 16.79 8.57-2.13-4.63-5.44-5.01-7.85-6.66-1.04-.71-2.62-1.28-1.65-3.02.74-1.33 1.82-.95 2.99-.4 9.69 4.57 20.29 4.95 30.62 6.37 11.02 1.52 22.13 2.5 33.21 3.55 3.26.31 5.83 2.46 9.52 2.05 23.89-2.67 45.82-10.38 65.53-24.23 2.36-1.66 4.91-3.61 5.82-6.02 1.92-5.08 6.27-7.57 9.83-10.89 5.23-4.89 10.44-9.32 13.01-16.68 2.54-7.28 7.37-13.73 10.36-20.97.73-1.77 2.09-3.49 1-5.62ZM818.54 415.65c3.66-1.08 5.2-4.7 8.19-6.42 16.15-9.31 28.16-23.96 44.01-33.81 9.3-5.78 16.41-14.65 25.1-21.53 6.06-4.8 10.45-11.77 17.22-16.1 1.63-1.04 2.42-2.97.51-4.03-2.48-1.38-.92-8.14-6.67-5.03-.09.05-.69-.94-1.11-1.39-1.24-1.33-2.44-2.72-3.79-3.94-2.28-2.06-2.29-1.99-.81-4.43.49-.81.04-1.65-.52-2.26-1.25-1.33-2.53-2.65-3.9-3.85-5.27-4.58-5.32-4.59-9.74.97-2.27 2.85-4.58 5.7-6.57 8.75-12.67 19.34-27.36 37.14-43.13 53.93-9.86 10.5-18.34 21.75-25.37 34.22-.54.95-1.09 1.91.14 2.47 2.09.96 4.29 1.65 6.46 2.46ZM717.52 579.88c1.47.13 1.85-.8 2.22-1.74 1.44-3.71 2.83-7.44 4.36-11.11.37-.88.41-1.57-.12-2.29-2.76-3.71.56-7.03 2.43-7.78 4.03-1.62 4.77-4.76 5.89-7.91 1.12-3.16 2.55-6.1 4.45-8.86 3.1-4.51 6.64-8.81 9.1-13.66 8.62-17 18.43-33.37 26.13-50.85 1.98-4.5-1.97-4.45-3.59-6.02-1.65-1.6-3.72-1.59-5.54.47-3.55 4.01-6.79 8.49-11 11.66-17.24 13.03-30.95 28.92-40.91 48.08-4.98 9.58-11.43 18.18-18.11 26.6-1.65 2.07-.23 2.92 1.03 3.99 6.56 5.58 13.11 11.17 19.71 16.7 1.26 1.06 2.72 1.87 3.96 2.71Zm-281.31-63.71c-5.04-2.67-5.19-2.69-4.76-8.53.23-3.12-.15-6.32.99-9.37.32-.86.81-2.35-.49-2.52-6.82-.89-2.76-4.41-1.59-6.86 1.41-2.94 1.64-4.64-2.13-5.92-7.17-2.44-7.61-5.61-1.88-10.77.75-.67 1.75-1.14 1.53-2.31-.3-1.54-1.91-1.41-2.83-1.49-2.97-.24-5.94-.15-8.9-.73-12.42-2.46-25.1-2.67-37.62-4.29-2.19-.28-3.36.12-3.42 2.79-.32 14.3-1.38 28.52-5.36 42.36-.49 1.72-.81 3.2 2.15 2.85 3.04-.35 6.22.73 8.07 3.11 2.24 2.88 4.72 3.14 7.86 2.56 2.12-.39 4.31-.68 6.45-.6 6.47.24 12.59-.16 18.87-2.76 5.14-2.13 11.22-3.05 15.98 2.61 1.43 1.7 4.51 1.15 7.11-.13ZM206.56 299.83v.22c-3.16 0-6.34-.22-9.48.06-3.52.32-7.08 2.48-6.47 5.85.9 4.96-.36 9.52-.68 14.22-.89 12.76-2.06 25.5-3.27 38.23-.95 10-2.2 19.98-4.35 29.81-.32 1.47-.64 3.24 1.07 3.96 1.42.59 2.33-.82 3.28-1.74 5.84-5.68 11.43-11.44 15.43-18.76 4.38-8 8.9-15.94 14.13-23.47 7.4-10.67 12.72-22.54 19.05-33.83.57-1.02 1.23-2 .8-3.26-1.15-3.39-8.51-7.33-12.23-6.36-1.49.39-2.73-.21-2.72-1.25.04-4.37-3.13-3.5-5.58-3.63-2.98-.16-5.98-.04-8.98-.04Zm4.97 104.52 1.12 1.04c5.26-3.59 10.6-7.08 15.77-10.79 20.35-14.6 39.94-30.28 62.02-42.35 3.89-2.13 7.21-5.37 11.2-7.25 3.58-1.68 2.76-3.17.75-5.03-4.75-4.4-9.54-8.76-14.47-12.97-3.28-2.8-6.81-5.35-11.08-6.5-3.4-.92-5.9-.59-8.46 2.8-3.5 4.64-6.4 9.66-9.88 14.3-13.29 17.71-26.45 35.52-38.5 54.1-2.75 4.24-5.88 8.28-8.46 12.65ZM89.1 563.88c3.13-4.44.08-6.91-2.16-9.72-4.46-5.58-8.94-11.15-13.08-16.96-1.69-2.38-2.68-4.11-4.71-.55-.47.82-1.16 1.33-1.99.74-.84-.59-.52-1.76-.08-2.25 2.6-2.9.86-5.26-.89-7.49-2.92-3.7-4.87-7.9-6.76-12.16-1.56-3.51-3.28-6.94-4.93-10.41-.47 6.33 2.83 11.86 2.15 18.21-1.25-4.77-4.52-7.74-8.05-10.69-1.52-1.27-2.82-3.46-1.97-6.05 3.74.91 2.22 5.76 6.2 6.73-4.51-11.49-5.54-23.53-9.06-34.96-.02 8.19 1.59 16.17 2.67 24.24-3.27-3.46-4.25-7.85-5.26-12.13-5.98-25.3-.72-50.6.13-75.9.05-1.62.66-3.23 1.04-4.83.24-1.01.69-1.97 1.85-2.06 1.36-.11 2.3.87 2.49 1.99.27 1.62.2 3.32.04 4.97-.97 10.07-2.23 20.12-2.98 30.2-.93 12.6 1.43 24.82 5.27 36.82-.61-8.03.71-16.06-1.04-24.09-3.06-14.08-1.41-28.22 1.96-41.92 2.6-10.56 7.36-20.58 10.56-31.02 1.04-3.41 3.88-6.37 3.13-10.26-.44-2.27.63-3.63 1.95-5.28 5.09-6.4 12.83-9.94 17.66-16.6 1.66-2.28 5.55-4.37 2.23-7.36-3.28-2.96-4.97 1.46-6.43 3.15-16.58 19.26-33.06 38.57-39.53 64.17-2.78 10.98-5.31 21.9-6.08 33.24-.24 3.5 2.73 6.33 1.52 9.58-1.41 3.79-1.01 7.52-.62 11.31.97 9.25 3.07 18.28 4.87 27.39 4.21 21.3 11.88 40.68 27.62 56.23 1.41 1.4 2.62 3.01 3.83 4.6 7.95 10.44 16.64 19.75 29.93 23.66 3.67 1.08 6.6 1.49 10.69-.73-4.81-1.56-6.32-9.32-12.8-4.22.07-7.87-3.17-12.38-9.38-9.58Zm666.59-119.17c1.47-5.55-.75-7.54-6.52-7.87-5.19-.3-10.23-2.58-15.43-3.38-8.63-1.31-17.11-3.27-26.11-2.04-11.36 1.56-22.87.56-34.3-.3-2.62-.2-3.45.74-4.17 2.97-3.22 9.97-3.08 20.61-6.2 30.6-.72 2.31-.27 3.28 2.7 2.61 7.73-1.74 15.26-4.21 23.17-5.38 11.64-1.72 23.2-4.1 34.72-6.52 8.67-1.82 17.53-1.33 26.24-2.76 5.03-.82 7.99-2.17 5.89-7.93ZM175.85 312.24c0-2.33-.22-4.68.05-6.98.48-4.03-1.65-4.14-4.38-3.02-5.21 2.14-10.32 4.54-15.5 6.74-3.99 1.69-7.43 4.38-12.24 4.61-4.19.2-5.99 3.3-4.62 7.87 6.93 23.05 14.69 45.79 24.79 67.68 1.17 2.54 2.79 3.04 5.13 2.34 2.34-.69 4.89-.96 4.79-4.56-.69-24.93-.36-49.83 1.98-74.69Zm154.24 223.47c.14-1.21-.52-1.71-1.23-2.15-11.12-6.93-20.74-16.56-34.97-17.76-5.73-.48-11.68-.3-17.13-.13-5.4.17-10.34 1.39-15.31-1.54-1.96-1.16-3.11.41-4.18 1.63-1.4 1.59-.16 2.62.93 3.75 4.25 4.44 8.46 8.92 12.63 13.43 9.7 10.48 18.57 21.71 28.7 31.81 2.83 2.82 4.85 2.98 8.02.71 5.59-4 10.52-8.64 15.06-13.74.76-.86 1.89-1.72 1.39-2.97-1.42-3.6.7-5.91 2.7-8.37 1.25-1.53 2.32-3.21 3.36-4.66Zm439.51-138.5c-2.95-17.61-5.36-35.17-8.12-52.66-1.66-10.48-4.11-20.84-5.79-31.31-1.04-6.5-2.91-7.67-9.05-4.76-6.6 3.13-11.37 8.57-16.87 13.08-2.29 1.87-5.17 3.91-6 6.45-1.11 3.4 3.49 4.7 4.81 7.46.21.45.5.86.77 1.28 8.25 13.05 16.51 26.1 24.77 39.15 4.69 7.41 9.52 14.71 15.47 21.31ZM280.42 509.38c1.16-.1 2.35-.07 3.47-.32 1.55-.35 3.96.65 4.51-1.01.73-2.19-1.94-2.76-3.32-3.67-7.74-5.14-16.27-8.95-23.73-14.63-12.06-9.18-26.05-15.38-38.31-24.28-5.11-3.71-10.16-7.49-15.25-11.22-3.46-2.54-9.24-1.97-11.59 1.69-2.05 3.19.46 5.77 2.53 8.05 2.22 2.45 4.55 4.81 6.89 7.15 11.54 11.52 24.33 21.65 36.81 32.08 7.14 5.97 15.73 7.71 24.51 2.33 2.54-1.56 5.88-2.65 7.29.64 1.44 3.37 3.51 3.33 6.2 3.19Zm659.14 20.97c5.09-11.22 14.48-19.59 15.65-33.54 1.3-15.43 3.68-30.96 5.2-46.46 1.08-10.95 2.32-22.07.71-33.18-.4-2.72.3-5.55.47-8.27.37-5.97-1.46-11.77-4.5-17.05-.23-.4-.86-1.02-1.02-.94-4.93 2.33-4.46-2.44-5.2-4.42-4.57-12.28-9.47-24.42-14.83-36.36-1.82-4.06-3.49-8.28-6.48-11.73-6.41-7.38-12.46-15.12-20.11-21.29-4.72-3.81-8.86-8.47-14.6-10.92 1.22 1.6 2.6 2.98 4.05 4.29 11.24 10.16 18.96 23.02 27.45 35.33 12.43 18.03 21.4 37.44 24.37 59.25.46 3.41 3.67 6.94 2.83 8.82-2.01 4.48-.25 8.46-.27 12.58-.07 20.39-1.89 40.62-5.32 60.68-1.87 10.94-4.52 21.73-6.71 32.62-.7 3.49-3.27 6.58-1.69 10.6ZM367.95 418.47c1.28 5.66 1.58 11.83 4.18 16.81 1.97 3.78 7.69 1.5 11.68 2.18 16.17 2.73 32.42 4.98 48.63 7.42 1.85.28 4.38-1.07 3.76-1.89-2.76-3.68 0-8.61-3.43-12.06-3.89-3.91-6.78-8.64-8.79-13.79-1.62-4.14-3.95-5.87-8.22-3.45-1.53.87-3.23.53-4.89.51-9.02-.09-18.16-2.97-27.04 1.12-.77.35-2.09.13-2.89-.31-3.37-1.82-6.75-.03-10.1-.11-1.72-.04-2.94 1.45-2.88 3.57Zm120.48 112.9c1.47-.89 2.63-2.01 3.98-2.34 5.94-1.44 11.08-6.81 17.98-3.65 1.3.6 2.56.03 3.54-1.12 1.04-1.21.9-2.36.22-3.66-1.86-3.56-4.37-6.65-6.98-9.66-1.32-1.53-2.16-1.62-3.15.51-1.8 3.86-5.39 5.32-9.35 5.56-5.64.34-11.29.25-16.94.5-5.07.22-8.82-2.17-12.21-5.57-2.05-2.05-2.26-3.94-.93-6.64 1.29-2.62 4.02-4.03 4.98-6.76.91-2.58 4.41-4.22 7.26-3.56 5.22 1.21 10.56.96 15.87 1.07 1.05.02 2.5 1.04 3.05-.48.25-.69-.55-1.78-.94-2.66-.9-2.03-2.32-2.75-4.69-2.76-5.45-.02-10.89-.47-16.34-.83-1.1-.07-2.61-.1-2.9-1.43-.32-1.47.96-1.97 2.2-2.04 1.63-.09 2.14-1.02 1.59-2.31-1.42-3.31-1.19-6.82-1.61-10.26-.42-3.49-3.4-2.53-5.53-2.56-2.98-.05-1.81 2.16-1.53 3.58.48 2.43 1.26 4.81 1.82 7.23.69 3.04.95 5.33-3.63 5.62-2.59.16-6.66.26-6.35 5.51.15 2.58-2.25 2.22-4.36.78-7.44-5.08-11.42-12.28-13.09-20.86-.42-2.17-1.48-2.83-3.3-2.82-1.22 0-3.7-.21-3.23 1.12 1.03 2.89-.34 6.68 2.29 8.67 2.66 2.02 2.63 3.82 1.26 6.33-1.47 2.69-.07 5.25 2.22 5.39 2.96.18 3.14 2.17 4.6 3.62 4.5 4.47 6.1 11.35 12.19 14.43.64.33 1.44.91.56 2.61-4.1-3.2-8.7-3.71-13.6-2.1-1.85.61-4.38.41-3.83 3.36.38 2.04-1 4.72 3.14 5.48 3.4.62 7.42 1.15 9.89 4.95.78 1.2 4.63 2.61 5.92-1 1.1-3.06 2.97-2.1 4.69-1.1 2.64 1.53 5.39 2.24 8.44 2.5 2.77.23 5.54 1.04 7.4 3.48 1.8 2.37 3.75 2.05 6.06.64 1.14-.69 2.11-2.21 3.78-1.68 1.24 1.74-1.23 2.68-.45 4.92ZM132.9 475.6c-6.05 3.49-9.24 8.21-11.57 13.89-1.66 4.05-1.53 7.32 1.86 10.21 1.34 1.14 3.13 1.78 1.47 4.28-1.25 1.88-2.07 3.24-4.58 2.26-1.94-.76-3.95-.98-5.2 1.31-.38.69-1.15 1.13-1.5.5-1.66-3.02-5.93-2.18-7.47-5.08-1.61-3.04-3.09-1.56-4.51-.08-7.48 7.79-14.93 15.62-22.36 23.46-1.02 1.07-1.85 7.43-1.21 8.33 4.44 6.21 9.05 12.28 14.07 18.04 1.71 1.96 2.43 1.64 3.44-.38 1.65-3.28 3.72-6.29 6.02-9.15 6.77-8.4 13.39-16.87 18.83-26.26 4.91-8.47 8.28-17.76 14-25.77.74-1.03.98-2.24.12-3.24-3.06-3.53-2.68-7.57-1.43-12.33Zm-23.27-56.61c.33.1.66.19.99.29 0 .62.12 1.27-.02 1.87-1.27 5.56-1.15 5.49 4.7 5.44 4.96-.04 9.94.4 14.88.86 2.14.2 4.49 1.32 5.55-1.46 1.06-2.8-1.14-4.31-3.09-5.57-4.59-2.97-9.35-5.68-13.91-8.68-15.49-10.2-32.66-16.82-49.74-23.69-2.98-1.2-3.83-.07-4.7 2.26-3.55 9.48-6.96 19-6.87 29.33 0 .89-.66 2.23.94 2.27 7.3.17 14.35 2.19 21.59 2.79 1.43.12 2.94-.06 2.98-1.79.17-6.94 6.07-9.42 10.13-13.35 2.58-2.5 4.25-1.74 5.56 1.24.43.97.42 2.31 1.85 2.65 1.66-1.72.46-3.85.88-5.72.18-.82.36-1.78 1.32-1.88 1.16-.12 1.86.75 1.99 1.79.16 1.31.05 2.65.05 3.98v12.43l1.47.09c1.14-1.71 2.29-3.42 3.43-5.13Zm716.98 69.67c2.44 5.74 4.85 11.49 7.31 17.22 3.93 9.15 7.2 18.67 12.01 27.34 9.65 17.41 20.18 34.33 30.24 51.51 1.41 2.41 2.53 3.35 5.42 1.86 4.49-2.31 8.46-5 12.03-8.67 3.54-3.64 2.04-7.45-.3-9.39-9.07-7.49-16.45-16.43-23.39-25.73-8.34-11.18-19.43-20.11-26.34-32.43-4.48-7.99-10.98-14.5-16.98-21.71Zm-683.93-81.84c-.16-3.28-2.23-5.5-4.87-7.41-8-5.78-15-12.82-21.16-20.32-7.62-9.29-16.57-17.17-24.65-25.93-1.08-1.17-2.3-1.36-3.48-.22-.82.78-2.14 2.44-1.25 2.83 3.19 1.38.6 2.07-.14 2.89-3.45 3.83-7.04 7.52-10.35 11.47-.93 1.11-2.65 3.88-1.22 4.19 4.59 1.01 6.19 5.5 10.19 7.25 18.78 8.24 35.92 19.44 53.29 30.21 1.08.67 1.96 1.98 3.47 1.71.6-.11 1.21-.5 1.66-.93.49-.48.01-.99-.42-1.13-2.6-.89-1.98-2.6-1.07-4.6Zm-43.86 84.77c-.14-.3-.53-1.03-.84-1.79-2.09-5.05-4.72-9.97-6.1-15.21-1.39-5.28-4-4.56-7.47-2.78-9 4.6-17.98 9.24-27 13.81-2.17 1.1-2.68 2.65-2.06 4.9 2.39 8.67 5.73 16.93 10.07 24.81 1.48 2.67 3.07 3.59 5.16.81 7.03-9.37 17.33-14.69 26.41-21.53.89-.67 2.2-.99 1.84-3.02Zm-4.45 88.09c7.72 7.47 15.53 14.4 24.2 20.27 1.07.73 2.66 1.93 3.48 1.6 7.26-2.91 11.86 2.16 16.96 5.47 2.68 1.74 5.39 3.04 8.45 4.02 12.21 3.93 24.92 3.25 37.31 3.2 11.99-.05 23.98-2.93 35.95-4.7 1.23-.18 3.1-.55 2.6-3.18-6.59.64-13.16 1.38-19.76 1.84-1.71.12-4.83 1.31-4.86-1.54-.03-2.41 3.09-.46 4.55-1.36.2-.12.24-.49.37-.78-.95-1.23-2.39-.94-3.64-1.12-10.61-1.56-21.31-.02-32.04-1.48-8.2-1.12-16.46-1.47-24.42-4.06-11.36-3.7-22.9-7.11-32.95-13.76-5.07-3.35-10.94-2.44-16.21-4.41Zm158.4-154.04c5.17.79 9.7 1.67 14.27 2.13 16.5 1.65 32.95 3.84 49.53 4.8 10.94.63 21.61 3.52 32.6 4.01 3.07.14 3.96-.9 3.35-3.65-1.01-4.52-2.02-9.05-3.16-13.54-.37-1.44-1.61-3.52-2.82-2.91-4.72 2.37-8.92-1.2-13.45-.62-8.63 1.1-17.29 2.09-25.96 2.74-5.34.4-10.41 3.29-15.53 2.79-9.43-.92-18.48 1.58-27.75 1.85-3.4.1-7.27-.08-11.06 2.4Zm501.61-256.77c1.37-3.1 1.91-5.87 3.51-7.7 6.35-7.25 12.03-15.05 18.28-22.36 6.94-8.13 7.24-11.48.09-19.46-.77-.86-1.76-1.56-2.46-2.47-4.38-5.72-11.25-8.13-16.64-12.53-2.2-1.8-2.04.6-2.12 2.05-.28 5.26 3.27 9.73 3.04 15.01-.11 2.66.34 5.34 1.89 7.62 4.26 6.28 1.9 12.03-1.38 17.7-.43.74-.64 2.12-2.07 1.29-.93-.53-.74-1.45-.5-2.22.76-2.36 1.73-4.66 2.36-7.05.35-1.32 1.47-3.26-.2-4.04-1.86-.87-4.12-1.07-6.22-1.15-1.09-.04-1.57.93-.74 2.12 2.14 3.08.42 3.5-2.19 2.85-2.1-.52-2.59.6-3.03 2.23-1.36 5.05 1.03 8.61 4.65 11.59.82.68 1.71 1.12 1.25 2.29-.26.64-.96.73-1.69.67-1.23-.11-2.95-2.15-3.58.3-.43 1.68-.1 4.16 1.53 4.97 3.23 1.61 4.27 4.72 6.21 8.3Zm47.43 143.99c-.27-4.98-.77-9.95-.75-14.93.01-3.84-1.25-6.37-5.28-6.05-3.63.29-8.32-.61-8.37 5.67-.04 5.64-.48 11.24.41 16.89 2.1 13.26 4.1 26.54 5.93 39.85 1.64 11.93 1.81 24.17 5.71 35.75.65 1.92.71 5.54 2.62 5.26 3.2-.46.65-3.56.8-5.42 2.12-25.7-1.66-51.33-1.06-77.02Zm-368.24-144c17.09-.57 34.19-1.7 51.27-1.55 19.83.17 39.49-1.26 59.23-2.79 17.05-1.32 34.01-3.96 51.14-4.13 17.78-.18 35.55-1.11 53.34-.72 5.81.13 11.7-.76 17.63-5.43-5.2.39-9.14.91-13.09.95-31.91.32-63.79 1.55-95.65 3.41-32.18 1.87-64.3 5.06-96.58 4.52-9.68-.16-18.55 2.79-27.3 5.75Zm138.65 388.06c1.44-3.87 7.1-6.69 3.54-11.95-2.71 1.19-5.55 2.44-8.42 3.7.55 1.54 2.6.42 2.69 1.84.09 1.52-1.5 1.59-2.48 1.97-1.86.71-3.77 1.46-5.73 1.71-6.27.8-9.59 5.65-14.3 9.33 3.36 1.42 5.46-.46 7.76-1.12 2.49-.71 4.68-.2 6.38 1.55 1.63 1.69 3.03 3.85 2.01 6.3-1.22 2.93-2.96 5.82-5.67 7.45-2.93 1.76-6.53 3.32-9.79 1.13-2.35-1.58-4.22-3.89-2.61-7.49.6-1.33 0-3.88-1.99-4.55-2-.67-3.43.64-4.31 2.48-2.69 5.59-6.6 10.35-10.46 15.14-.55.68-1.65 1.34-.61 2.7 4.4-.14 4.12-7.02 9.4-6.81-.48 1-.68 1.63-1.04 2.12-2.38 3.19-2.23 3.07-.17 6.07.92 1.33.35 3.05-1.53 3.41-1.08.21-2.43.08-3.41-.4-2.68-1.32-4.43.25-5.35 2.1-1.5 3.01 1.81 4.07 3.21 5.85 1.27 1.63 3.52 2.48 4.74.83 3.51-4.75 9.47-5.97 13.46-10.13 2.79-2.9 6.09-5.54 9.45-8.02 8.95-6.58 17.46-13.76 26.13-20.72 1.8-1.45 2.09-2.95.67-5.1-3.31-5.02-4.95-5.25-8.89-.8-.55.62-.51 2.13-2.68 1.41ZM439.89 172.98c15.06.71 30.02 3.03 45.15 1.81 12.74-1.03 25.42-3.31 38.28-2.29 8.47.67 16.95.53 25.42.79 10.78.33 21.39-1.35 32.1-1.74 3.71-.14 8.43 3.75 11.27-1.93.03-.06.67.02.83.2 2.73 3.2 6.18 1.28 9.31 1.27 6.64-.02 13.22-1.01 19.89-1.17 6.29-.15 12.56-1.93 18.63-4.68-1.64-1.93-3.35-1.88-4.98-1.79-14.09.8-28.22 1.09-42.25 2.89-.8.1-2.66 1.12-2.35-.08 1.11-4.28-2.12-2.37-3.31-2.35-3.98.1-7.97.47-11.92.98-19.78 2.55-39.66 4.07-59.55 5.36-11.43.74-22.89.52-34.36.28-10.95-.23-21.89 1.3-32.88.99-3.05-.09-6.3-.45-9.29 1.46Zm-84.62 232.33c4.21.19 5.27-1.21 3.23-4.96-1.41-2.6-2.31-5.42-3.3-8.08-7.8-20.92-21.87-37.44-37.45-52.59-9.1-8.84-20.28-15.4-31.33-21.81-1.28-.74-2.83-2.95-4.1-.74-.85 1.47 1.5 2.14 2.6 2.92 7.75 5.46 15.9 10.76 21.64 18.22 10.95 14.22 24.14 26.66 32.95 42.66 2.04 3.7 3.14 7.48 3.49 10.94.95 9.26 3.71 13.07 12.27 13.45Zm-297.41 35.6c2.31-2.71 4.26-2.21 5.96-2.4 4.61-.51 9.25-.84 13.86-1.35 3.11-.35 5.32-1.64 5.26-5.32-.06-3.49-2.44-3.9-5.03-4.19-5.43-.6-10.86-1.15-16.3-1.64-4.52-.41-5.04 1.01-4.78 4.69.26 3.62.76 7.43-.05 10.87-1.58 6.69-1.45 13.44-1.89 20.19-.16 2.47.53 2.94 3.11 2.53 5.75-.92 10.36-4.35 15.59-6.36 11.05-4.23 10.9-4.27 9.51-15.87-.41-3.43-1.69-3.48-4.55-2.85-6.46 1.4-13.06 1.43-20.69 1.71Zm810.01-21.51c9.07-1.09 18.15-1.91 27.36-2.18 10.39-.31 20.81-.98 31.23-1.19 4.16-.09 8.31-.3 12.29-1.53 10.54-3.24 10.66-3.8 8.39-14.73-.77-3.72-2.16-3.85-5.45-3.12-9.84 2.18-18.9 7.31-29.06 8.05-16.08 1.17-30.15 8.41-44.76 14.7Zm-623.88 95.54c-2.32.31-2.69 1.48-1.26 3.3 3.08 3.91 6.14 7.83 9.32 11.65 11.13 13.38 20.45 28.21 33.06 40.39 6 5.79 5.98 5.86 12.74 1.39 2.24-1.48 2.69-2.58.73-4.54-15.32-15.24-28.5-32.44-43.82-47.69-3.01-3-6.9-3.52-10.77-4.5ZM744.58 257.1c.1-3.43-.92-5.11-4.67-3.03-1.88 1.04-3.8 1.9-5.4 3.45-9.21 8.91-19.79 16.15-30.02 23.76-14.5 10.8-29.55 20.84-43.25 32.72-8.25 7.16-16.35 14.57-25.34 20.83-17.73 12.34-35.58 24.51-50.67 40.16-.97 1.01-3.68 1.74-1.88 3.67 1.39 1.5 2.95-.29 4.31-1.18 3.68-2.38 6.23-6.02 9.65-8.64 13.43-10.28 26.44-21.1 39.59-31.72 23.26-18.81 47.54-36.19 71.88-53.5 10.96-7.79 22.18-15.21 33.22-22.88 1.19-.82 3.43-1.16 2.59-3.64Zm-349.47-.08c1.32-2.39.44-3.57-.03-4.75-2.55-6.31-5.1-12.63-7.78-18.89-7.26-16.95-14.98-33.71-20.97-51.18-1.02-2.98-4.51-3.04-5.61-5.88-.35-.91-1.73.31-1.52 1.43.31 1.62.91 3.19 1.37 4.78 3.43 11.61 8.54 22.64 11.57 34.41 1.19 4.63 1.39 9.96 4.51 13.6 3.77 4.39 4.41 9.76 6.11 14.7 8.18 23.66 17.17 47.02 26.09 70.41.54 1.43.86 3.29 3.19 3.84-.56-5.71-2.31-11.21-4.23-16.08-5.73-14.52-10.78-29.3-16.54-43.8-1.44-3.62-1.27-7.82-4.32-10.92-.91-.93-.98-3.3.91-3.69 1.83-.38.78 1.71 1.27 2.54 1.8 3.06 3.76 6.02 5.97 9.51Zm439.35 117.76c4.53-5.46 8.86-11.12 13.65-16.35 13.96-15.24 24.54-33.02 37.39-49.08 1-1.25 1.5-2.43.36-4.01-2.52-3.51-5.95-6.6-9.89-6.85-3.09-.2-4.86 3.94-6.31 6.89-2.11 4.31-4.43 8.54-5.27 13.38-.22 1.25-1.02 2.43-1.68 3.58-4.14 7.2-8.3 14.39-12.49 21.57-5.82 9.98-12.37 19.57-15.77 30.87ZM227.91 504.24c-10.52-13.39-22.29-25.35-32.13-38.88-1.85-2.55-5-1.69-7.36-.85-2.01.72-2.9 2.77-3.01 5.25-.26 5.98 2.01 11.42 3.24 17.05.95 4.35 2.68 8.55 4.23 12.75.69 1.89 2.54 3.15 4.32 2.51 1.58-.58.28-2.33-.08-3.52-2.41-7.94-4.88-15.86-7.31-23.79-.64-2.08-2.31-3.99-1.08-7.38 1.79 2.97 3.42 4.96 4.08 7.86 1.91 8.41 4.53 16.62 7.81 24.63 1.45 3.54 5.02 3.27 7.62 4.69.82.45 1.68-.92.91-2.01-1.89-2.72-.05-2.53 1.81-2.47 2.61.09 4.69 1.56 6.96 2.54 3 1.31 5.96 2.78 9.97 1.62ZM772.59 39.28c-.36 7.83-.05 15.54 1.37 23.18 1.21 6.53 1.17 6.53 6.87 3.82 4.72-2.25 8.28-1.19 10.38 3.11-1.38.91-2.52-.28-3.78-.43-1.42-.17-2.96-.94-3.71 1.19-.86 2.44.9 2.69 2.47 3.33 1.27.52 3.02.6 3.28 2.92-2.8.24-5.55-.13-8.29.19-5.27.62-4.95 4.07-4.6 7.47.4 3.87 3.67 3.03 6.2 2.99 1.82-.03 3.63-.3 5.45-.48.99-.1 2.14-.34 2.38 1.01.24 1.31-.77 1.62-1.84 1.76-2.23.28-4.46.57-7.62.98 3.19 2.72 6.11 3.6 9.2 4.08 2.76.42 3.87-.75 3.81-3.59-.12-5.48-.16-10.97.08-16.45.32-7.46-1.58-14.5-3.97-21.38-1.29-3.72-3.44-7.17-5.38-10.63-1.72-3.06-5-4.68-7.94-3.74-2.41.78-.88 4.16-.54 6.24.92 5.57.66 11.08-.04 16.66-1.97-7.31.17-15.25-3.78-22.22ZM233.93 613.37c5.02-.73 10.61-3.79 16.54-5.88 19.56-6.92 37.82-16.15 53.96-29.29 1.02-.83 3.67-1.32 1.64-3.64-1.58-1.81-3.3-2.57-5.57-.96-17.13 12.11-36.6 19.38-55.89 27.04-4.22 1.68-7.89 3.91-9.86 8.12-.57 1.21-1.08 1.52-2.17 1.15-1.57-.53-3.67-2.37-3.92 1.02-.19 2.61 2.03 2.57 5.27 2.45Zm534.46-120.65c-.41-.2-.83-.41-1.24-.61-2.73 5.21-4.91 10.81-8.3 15.55-7.44 10.4-11.71 22.52-19.1 33.04-5.91 8.41-9.17 18.7-13.59 28.16-.61 1.31-1.7 2.77.32 3.81 2.83 1.46 1.02 2.09-.3 3.34-6.62 6.24-6.55 6.55 1.03 11.71.39.27.89.38 1.96.81 9.13-33.62 27.77-63.24 39.23-95.81ZM354.33 454.2c-1.26-2.84-2.98-2.32-4.34-2.56-23.21-4.12-46.65-6.43-70.07-8.86-17.99-1.87-35.99-3.55-54-5.29-2.3-.22-4.62-.4-6.93-.4-.96 0-2.08.45-1.9 1.78.12.93.92 1.14 1.81 1.34 18.02 3.92 36.31 5.91 54.63 7.6 18.18 1.68 36.37 3.22 54.57 4.7 8.56.7 17.15 1.11 26.23 1.69Zm491.42-53.94c4.66-.59 8.02-3.39 11.24-6.49 2.14-2.06 4.31-4.19 6.78-5.81 10.96-7.19 21.89-14.42 33.63-20.35 8.16-4.12 15.39-9.76 23.09-14.63 1.47-.93 3.12-1.88 2.48-4.31-2.41-9.14-6.6-10.35-13.47-3.8-.6.57-1.17 1.18-1.77 1.75-12.04 11.4-23.51 23.38-37.12 33.1-8.72 6.24-16.6 13.65-24.86 20.54ZM197.28 513.4c.09.66.16 1.32.27 1.97 4.2 24.77 11.5 48.67 20.64 72.02 1.57 4 3.68 7.8 5.65 11.63.43.83 1.31 1.71 2.42 1.32.95-.34.85-1.41.58-2.13-3.41-8.87-3.68-18.48-6.59-27.48-3.96-12.3-9.11-24.16-12.49-36.7-1.89-7.03-2.73-14.32-5.36-21.17-.64-1.66-1.28-2.66-3.13-2.28-1.5.31-2.38 1.14-2 2.81Zm340.49-38.72c-.47-4.13-.87-8.26-1.45-12.37-.21-1.46-.71-2.92-1.34-4.26-1.04-2.24-2.01-4.63-5.24-4.38-7.34.57-11.11 4.33-11.08 11.52.03 6.01-.91 11.56-5.8 15.72-1.3 1.11-.98 2.16.11 3.38 3 3.33 5.93 6.73 8.78 10.19 1.94 2.34 4.11 2.17 6.01.4 5.82-5.43 10.9-11.32 9.99-20.19Zm-376.13-84c-.16-.35-.42-.96-.71-1.55-10.56-21.73-17.4-44.79-24.32-67.83-.44-1.47-.56-4.07-2.89-2.7-2.36 1.39-7.34 1-6.14 5.63 2.74 10.61 5.49 21.42 11.45 30.67 4.09 6.36 7.12 13.02 10.06 19.87 2.42 5.64 5.27 11.09 7.96 16.61.6 1.22 1.39 2.42 3.04 1.9 1.04-.32 1.53-1.21 1.55-2.62Zm618 21c.64-1.25.13-2.16-.15-3.11-4.6-15.91-4.63-32.49-6.02-48.74-1.61-18.85-5.75-36.93-10.99-54.91-.47-1.61-1.11-3.55-3.27-2.82-1.97.67-.97 2.6-.67 3.88 2.3 9.84 3.57 19.88 5.41 29.8 4.16 22.48 7.34 45.15 10.88 67.75.53 3.38 1.77 6.22 4.8 8.15Zm-413.42 72.11c.42-8.24-2.08-13.78-1.72-19.64.15-2.52-1.86-2.72-3.8-2.8-2.64-.11-2.13 1.74-2.34 3.36-.96 7.19-1.19 14.45-2.77 21.58-1.73 7.83-4.74 15.09-8.33 22.2-.95 1.88-2.28 5.39.53 5.86 2.95.5 7.4 2.51 9.51-1.04 5.8-9.76 7.29-20.91 8.92-29.51Zm393.39-93.69c-2.99-4.71-5.96-9.44-8.97-14.14-8.16-12.71-16.18-25.5-24.56-38.06-5.21-7.79-6.41-7.58-11.81.27-.89 1.29-.87 2.01.33 3.32 3.89 4.28 7.66 8.7 11.13 13.33 9.81 13.06 21.52 24.34 33.89 35.28Zm25.67-206.14c2.63 1.52 1.9 3.84 1.95 5.86.06 2.76-1.67 6.55.47 8.01 2.34 1.59 4.99-1.7 7.33-3.02 2.36-1.33 5.18-1.85 6.57-5.22 2.31-5.56-1.84-8.12-4.31-11.22-4.25-5.31-5.41-4.74-10.58-.21-5.54 4.85-8.75 12.18-16.75 14.57-3.78 1.13-4.22 7.91-.91 9.33 3.51 1.51 7.5 2.38 11.4.9 4.14-1.57 3.74-5.27 4.12-8.74.36-3.34-1.16-6.86.71-10.25Zm-430.1 335.73-.96-.75c-2.99 3.44-6.8 5-11.2 5.64-2.6.38-5.01 1.27-2.29 4.89 2.02 2.69.76 8.94-1.37 9.56-6.04 1.75-10.01 6.47-13.47 10.98-4.9 6.4-8.75 13.53-16.25 17.53-1.4.75-3.9 1.82-2.86 3.91 1.14 2.29 3.79 1.53 5.88 1.16.73-.13 1.39-.85 2.01-1.38 11.36-9.69 25.28-16.74 30.36-32.61 2.15-6.7 6.69-12.64 10.15-18.92Zm-182.13-48.43c.51-.06 1.01-.13 1.52-.19 0 7.56-.01 15.13 0 22.69 0 3.27 3.79 9.51 5.88 9.76 5.31.63 9.52-4.35 8.1-9.54-1.22-4.47-2.42-8.95-3.58-13.44-.83-3.21-1.55-6.44-2.36-9.65-1.02-4.02-4.32-3.73-7.18-3.29-2.53.39-5.51.71-4.86 5 .37 2.43-.12 5.09-.55 7.69-.81 4.94-1.95 10.15-.32 15.23.31.96-.35 2.77 1.4 2.68 1.99-.1 1.41-1.99 1.41-3.14 0-7.94-.17-15.87.53-23.79ZM757 67.17c3.04-.03 6.5-.03 9.92.86 2.65.69 3.71-.43 3.21-3.15-1.17-6.37-1.66-12.8-1.83-19.26-.1-3.78-1.18-4.99-5.13-3.14-10.1 4.72-14.77 13.82-19.4 23-1.14 2.25-.17 3.6 2.43 2.85 3.4-.98 6.88-.94 10.79-1.16ZM140.32 417.76c-.77-2.74-2.98-3.82-4.87-5.02-18.95-12.03-38.71-22.63-58.6-32.99-4.1-2.13-6.3.98-7.66 3.21-1.77 2.9 1.86 3.25 3.61 3.9 14.95 5.54 29.68 11.51 43.13 20.26 6.38 4.15 13.03 7.91 19.36 12.13 2.83 1.88 3.72.18 5.03-1.49ZM53.74 473.4c.22 2.87.43 4.52.46 6.18.08 4.44 1.78 4.45 5.21 2.43 8.56-5.04 17.34-9.73 26.49-13.63 5.63-2.4 1.22-5.79.97-8.69-.29-3.44-2.64-2.67-4.77-1.82-7.51 3-14.91 6.35-22.57 8.93-4.18 1.41-7.02 2.84-5.79 6.61Zm730.24-89.17c.25-4.71.48-8.58.65-12.45.48-11.13 1.12-22.42-2.37-33.1-2.12-6.5-4.61-12.86-4.85-19.67-.16-4.59-2.05-8.71-2.46-13.17-.26-2.78-2.59-2.39-4.17-2.29-2.2.14-1.11 2.03-.9 3.13.55 2.93 1.17 5.86 2.03 8.71 2.74 9.08 4.98 18.72 4.89 27.78-.12 12.14 2.54 23.67 3.64 35.49.15 1.64.87 3.55 3.54 5.57Zm-35.77-147.14c-.51-9.27-1.5-17.48-2.25-25.67-1.39-15.14-4.32-30.14-3.82-45.46.08-2.31-1.33-3.21-3.7-2.21-3.5 1.48-5.37 6.54-4.57 11.61 2.01 12.76 5.69 25.2 6.82 38.15.68 7.86 1.8 15.81 7.53 23.59ZM475.9 432.55c2.38-2.31.87-5.47 2.47-7.68 5.64-7.78 24.05-9.58 31.59-3.3 2.29 1.91 3.37 6.38 6.02 5.95 2.59-.42 4.67-3.87 7.02-5.95.72-.64 2-.95 1.87-2.09-.17-1.51-1.63-1.23-2.7-1.57-3.99-1.26-8.39.21-12.23-1.79-12.29-6.41-16.81-6.95-28.22-3.17-12.56 4.16-13.94 8.63-5.84 19.59Zm63.96 7.92c-.03-1.41-.83-1.58-1.67-1.77-1.76-.4-3.6-.49-4.87-2.16-2.11-2.77-4.11-2.25-6.34.12-5.82 6.17-11.61 12.38-17.78 18.18-2.63 2.47-2.87 4.45-1.92 7.77 1.1 3.85 4.49 7.99-.03 12.14-.97.89.02 2.85 1.53 3.71 1.65.95 1.91-.7 2.62-1.43 4.67-4.83 3.33-10.96 3.07-16.6-.22-4.74 1.32-6.66 5.87-7.81 8.2-2.07 10.58-3.87 16.65-9.91.35-.35.78-.6 1.17-.91.62-.49 1.24-.99 1.7-1.36ZM212.58 288.68c-6.18-.34-11.88-.73-17.59-.91-1.32-.04-3.23-.64-3.86 1.3-.66 2.04.55 3.5 2.06 4.67s3.23 1.47 5.15 1.43c6.64-.12 13.29-.11 19.93-.16 1.96-.01 4.75.37 4.39-2.47-.34-2.69 1.09-6.57-2.91-7.86-11.29-3.63-22.81-5.44-34.69-3.72-1.31.19-2.71.26-3.89.78-.93.41-2.37 1.02-1.91 2.48.38 1.21 1.69.82 2.61.79 8.65-.3 17.22.8 25.83 1.33 1.56.1 3.43-.61 4.88 2.33Zm126.94-98.66c-12.63 1.98-14.16 2.42-19.47 9.77-7.65 10.58-15.71 20.9-22.21 32.24-2.14 3.73-3.61 8.14-1.96 13.2.77-.81 1.29-1.2 1.61-1.71 8.68-14.13 17.87-27.92 27.23-41.6.98-1.43 1.32-3.63 3.68-3.51 3 .15.74 3.22 2.02 4.48 5.94-6.03 7.87-8.77 9.1-12.86Zm469.09 251.06c-1.59.67-1.66 1.83-1.64 2.97.18 10.26-14.15 18.3-22.65 17.32-3.57-.41-6.71-1.92-7.72-5.34-1.96-6.63-7.03-13.14-1.65-20.45.69-.94.63-2.61-.4-3.17-1.42-.77-1.87.82-2.37 1.8-2.99 5.77-2.06 12.23-2.92 18.36-.24 1.69.63 3.61-.26 5.57-.67 1.47-.54 3.06.76 4.59 5.36 6.35 19.65 8 25.75 2.56 5.36-4.78 9.66-10.48 12.65-17.06 1-2.2 1.71-4.52.45-7.15Zm-126.53-68.77c.65-.72 1.44-1.36 1.92-2.18 10.89-18.73 26.83-33.27 41.23-49.05 5.06-5.55 10.44-11.21 17.52-14.58 1.09-.52 3.23.13 3.11-1.71-.14-2.14-1.53-4.09-3.22-5.35-1.22-.91-2.38.48-3.41 1.32-6.68 5.43-12.96 11.17-18.3 18.07-9.43 12.2-20.33 23.24-29.16 35.92-3.8 5.47-8.7 10.36-9.7 17.54Zm-497.19-64.64s-.07 0-.11-.01c.08-.99.16-1.99.25-2.98.23-2.49-.42-4.27-3.36-4.38-3.41-.13-3 2.05-2.96 4.35.08 4.15.13 8.32-.24 12.45-1.97 22.02-1.62 44.13-2.41 66.19-.04 1.15-.71 3.21 1.25 3.13 1.68-.07 1.2-2.04 1.27-3.31.57-9.62.91-19.26 1.74-28.86 1.35-15.54 3.02-31.06 4.56-46.59Zm242.96-142.2c-2.51-1.97-4.73-1.11-6.76-1.1-17.6.01-35.15 1.98-52.77 1.34-1.59-.06-3.1-.12-3.26 2-.18 2.34 1.48 2.49 3.22 2.72 13.86 1.83 27.7 1.67 41.63.47 6.29-.54 11.82-2.58 17.94-5.41Zm337.48 9.8c2.75-.32 5.64 1.46 7.06-1.51 3.95-8.25 11.74-14.03 14.58-22.97.5-1.57 1.34-3.51 3.44-2.61 1.93.83.55 2.56.32 3.92-1.27 7.36-5.05 13.7-9 20.48 8.92-2.49 14.38-12.63 12.05-21.52-1.21-4.64-2.61-9.24-4.16-13.77-.47-1.38-.8-3.77-2.89-3.38-1.91.35-1.81 2.62-1.95 4.2-.8 8.67-4.45 16.07-9.34 23.14-3.16 4.57-7.64 8.19-10.11 14.01ZM734.59 58.81c6.93-4.34 8.58-10.5 9.69-16.95 1.4.7 1.16 1.6 1.36 2.34.31 1.19-1.12 2.75.48 3.57 1.48.77 2.43-.76 3.42-1.46 5.13-3.62 10.25-7.27 15.22-11.1 3.13-2.42 3.52-7.42.68-9.93-2.8-2.48-5.44-.97-7.79 1.2-.73.67-1.51 1.35-2.38 1.77-12.51 6.09-15.37 18.49-20.69 30.56Zm78.65 98.84c1.05-1.12 1.48-1.37 1.46-1.59-.63-10.63-3.05-20.88-6.53-30.91-.55-1.59-1.4-2.56-3.28-2.27-4.42.7-8.86 1.24-13.26 2.05-1.23.23-2.64 1.03-2.76 2.51-.15 1.86 1.45 1.65 2.73 2.04 6.89 2.07 13.58 4.53 17.4 11.35.7 1.26 2.34 2.76.8 3.91-1.64 1.23-2.47-1.02-3.36-1.97-3.64-3.9-7.57-7.17-14.43-7.85 6.11 9.44 17.57 12.15 21.22 22.74ZM140.16 447.9c-8.5 2.68-15.87 5.59-23.1 8.88-1.98.9-3.48 1.82-3.01 4.36.69 3.73 1.07 7.53 1.97 11.21 1.29 5.3 1.86 5.46 5.52 1.65 4.12-4.29 8.15-8.69 11.98-13.25 2.97-3.53 4.73-7.79 6.65-12.85Zm151.11-205.53c-2.85.37-3.54 2.28-4.62 3.64-6.58 8.35-12.36 17.2-17.17 26.71-1.23 2.44-2.57 4.53-.78 7.23q-5.21.22-9 8.98c3.01 1.24 6.08 2.53 8.37-1.07 4.9-7.7 9.8-15.41 13.31-23.89 1.27-3.06 1.54-6.78 6.29-7.24 1.46-.14 2.71-2.52 3.11-4.7.58-3.14.22-6.22.49-9.66ZM131.62 433.06c-.03.12-.05.24-.08.36-6.77.5-13.53 1.01-20.3 1.51-1.59.12-3.86-.3-3.64 2.17.32 3.56.17 7.74 2.86 10.21 2.1 1.94 4.91-.7 7.28-1.57 2.79-1.03 5.36-2.61 8.08-3.82 4.52-2 9.82-2.45 9.96-9.81.05-2.8.29-2.79-2.05-2.73-7.47.18-14.93.24-22.4.45-1.39.04-3.82-1.09-3.67 1.75.12 2.28 2.24 1.43 3.57 1.44 6.79.06 13.59.03 20.38.03Zm679.92-1.63c-1.81-3.16-1.29-5.58-1.55-7.86-.33-2.88-1.33-4.57-4.34-4.2-.79 4.02 4.66 7.36.96 11.62-.1.12.4.82.68 1.21 8.99 12.41 5.11 18.77-2.54 28.39-1.11 1.4-2.87 2.43-3.21 4.83.97-.34 1.47-.43 1.89-.67 10.49-6.07 19.98-26.58 17.81-38.38-.23-1.23-.74-2.68-1.87-2.58-2.92.26-4.43-3.86-6.29-2.92-2.27 1.14-.08 4.52-.88 6.84-.31.89-.34 1.87-.66 3.73Zm-56.6-335.87c-1.28-1.95.06-3.42.81-4.92 1.87-3.71.64-5.25-3.35-5-1.16.07-2.37-.14-3.47.15-3.75.97-5.33 4.07-5.61 7.38-.3 3.55 3.19 2.17 5.07 3.02 4.89 2.21 11.69-.08 14.86 6.54.65 1.36 4.04 1.79 5.33.1 2.39-3.11 5.71-4.4 8.98-5.94 1.64-.77 2.42-1.53.62-3.2-3.63-3.37-13.79-4.64-18.43-2.8-2.47.98-2.11 4.14-4.82 4.68ZM136.92 492.93c-2.38 2.04-3.82 4.23-4.96 6.6-7.87 16.36-17.43 31.61-29.16 45.52-2.65 3.15-4.87 6.7-6.5 10.55-1.16 2.74.66 4.04 2.5 5.18 2.81 1.74 2.44-1.33 3-2.36 10.65-19.69 22.76-38.51 34.42-57.6 1.51-2.48 2.3-4.65.71-7.9Zm511.46-324.3c1.01 1.77 2.41 1.21 3.69 1.14 14.09-.76 28.18-1.53 42.28-2.29 5.8-.31 11.61-.58 17.41-.96 1.42-.09 3.55.12 3.61-1.8.08-2.33-2.15-1.34-3.41-1.46-2.79-.27-5.6-.4-8.4-.49-9.27-.32-18.54.76-27.82-.28-9.78-1.1-19.02.49-27.34 6.16ZM504.89 481.41c-1.84 2.2-3.61 4.05-6.07 5.16-1.67.76-2.26 2.38-.9 3.62 4.51 4.09 5.95 10.72 11.94 13.71 2.03 1.01 4.35 2.57 4.2 6.44-.13 3.39 3.53 5.95 6.72 8.98.19-3.07-1.54-3.86-2.37-5.17-.42-.66-1.21-1.96-.27-1.94 5.57.13 1.42-2.72 1.08-3.84-.68-2.2-2.43-4.36-1.83-6.6 1.08-4.01-1.91-5.77-3.43-8.57-2.38-4.36-9.26-5.16-9.06-11.8Zm-17.03 32.24c2.27-.18 6.41.85 10-1.42 3.44-2.18 3.8-5.58 2.86-9.18-.51-1.93-1.96-2.63-3.87-1.83-5.42 2.25-11.04 1.48-16.03-.45-5.36-2.07-7.71-.28-10.73 3.86-2.69 3.69-1.4 5.21 1.57 6.88 4.56 2.56 9.59 2.21 16.21 2.14ZM427.2 345.47c-.8 1.95-.11 3.01.31 4.03 2.22 5.29 4.83 10.43 6.73 15.82 1.4 3.95 2.5 7.84 5.75 10.8 1.26 1.15 3.42 2.97 2.03 4.5-1.23 1.35-3.69.54-5.2-1.14-.1-.11-.75.27-1.27.47 3.06 9.43 8.09 17.48 14.79 26.19.09-5.24-1.87-8.44-2.75-11.89-.54-2.1-1.26-4.14-.26-6.3 1.77-3.86-.36-11.85-4.02-13.02-2.01-.64-2.24-1.44-2.78-3.06-3.14-9.24-6.75-18.28-13.32-26.4Zm5.02 106.47c1.31.19 2.61.68 3-1.41.37-1.94-.85-2.12-2.14-2.51-1.41-.42-2.75-1.18-4.19-1.41-17.68-2.79-35.3-6.01-53.1-7.98-1.08-.12-2.43-.97-2.67.93-.16 1.34.64 2.08 1.98 2.39 4.02.94 7.98 2.23 12.05 2.88 8.84 1.4 17.89 1.8 26.53 3.92 6.17 1.51 12.31 2.42 18.53 3.18Zm332.01 161.77c13.89 13.96 87.05 17.59 100.79 5.32-5.91-1.15-10.83 2.01-16.14 2.63-8.21.96-15.98 6.7-24.71 2.08-.93-.5-2.29-.27-3.45-.25-15.87.24-31.37-1.84-46.41-7.12-3.02-1.06-5.92-2.95-10.09-2.65Zm-28.75-492.49c-1.56 5.17-1.42 4.85 3.83 4.88 3.21.02 6.02.74 8.15-2.46.35-.53 1.92-.14 2.86-.41 1.33-.37 3 2.02 3.81-.11.71-1.85.34-4.01-1.59-5.33-1.62-1.11-3.04-2.56-2.47-4.49 1.42-4.82-2.1-5.71-5.17-7.11-1.37-.62-2.84-1.59-4.1-.33-1.13 1.13-.04 2.49.48 3.66.48 1.09 2.03 2.09-.02 3.17-3.31 1.74-6.57 3.56-9.91 5.24-1.09.55-2.28.88-1.79 2.42.36 1.13 1.36 1.33 2.42 1.23 1.14-.1 2.28-.23 3.48-.36Zm50.18 269.61c-2.69-.05-2.83-4.11-5.13-2.7-2.23 1.36-.77 3.99-.45 6 .52 3.27 1.51 6.46 2.1 9.72 1.48 8.17 1.62 8.29 8.85 4.6.59-.3 1.7-.42 1.49-1.6-1.62-.13-3.26-.09-4.82-.42-1.3-.28-3.41-.17-2.89-2.47.47-2.07 2.08-1.02 3.25-.76 2.86.63 3.8 0 4.24-3.36 1.2-9.12-1.68-17.65-2.81-26.43-.14-1.08.12-2.67-2.09-3.61-.6 7.26-1.17 14.18-1.74 21.03Zm-321.67 52.21c-1.94-5.3-3.69-10.54-5.79-15.64-.9-2.18-3.5-2.43-5.2-1.72-2.37.98-.23 2.82.13 4.19 1.24 4.77.54 5.77-4.26 5.57-1.99-.09-4.03-.52-5.94-.17-1.54.28-4.24.51-3.4 3.21 1.02 3.25 2.71-.71 4.25.08-.54 3.38-.5 6.99-1.87 9.93-.68 1.47-2.1 2.92-.89 3.99 1.26 1.12 4.01 1.25 5.06-.11 2.51-3.24 7.01-6.46 7.59-9.27 1.54-7.57 3.97-3.1 6.62-1.57.97.56 1.56 1.83 3.71 1.53Zm78.65 100.36c1.26-1.32 3.51-.06 4.52-.98 1.72-1.58 5.9-2.21 3.7-6.13-3.35-5.97-8.03-10.97-12.37-16.18-2.54-3.04-5.48-.21-8.15.72-1.21.42-2.23 1.21-1.19 2.57 2.9 3.81 4.43 8.63 8.36 11.64 1.47 1.12 2.24 1.99 1.9 4.03-.34 2.02.5 3.89 3.23 4.34ZM231.95 338.04c7.93-11.24 15.54-22.48 24.06-33.06.76-.95 1.43-1.73.31-2.97-2.8-3.11-6.08-2.95-8.45.47-5.85 8.44-10.67 17.5-15.82 26.36-1.71 2.94-2.86 5.88-.1 9.2Zm-129.53 160c.07-1.96-1.62-2.66-3.31-1.39-9.55 7.14-19.79 13.47-27.37 22.95-1.67 2.09-3.53 4.23-.57 6.74 2.97 2.51 4.57-.23 6.14-1.85 7.99-8.21 15.85-16.55 23.75-24.84.55-.58 1.04-1.22 1.36-1.6Zm279.36-371.12c5.09 1.93 10.33 3.51 15.22 5.85 8.74 4.17 17.59 1.64 26.41 1.02 1.55-.11 3.06-1.24 4.53-2.01 1.81-.95 1.67-2.79 1.6-4.4-.09-1.87-1.85-1.85-3.03-1.77-4.42.29-8.88-4.69-13.48.35-.72.79-3.87 1.54-6.08 1.25-.8-.11-1.74-.41-1.93.8-1.15 7.1-7.69 3.1-8.85 2.4-4.48-2.72-9.44-2.85-14.37-3.48Zm51.06 288.74c-5.69-.04-6.46 1.06-4.43 4.54 2.09 3.58 4.35 7.06 6.62 10.54.72 1.1 2.59 2.69 2.93 2.22 2.24-3.06 4.85-.29 7.18-.79 1.37-.3 3.21.6 4-1.08.67-1.44-.78-2.42-1.54-3.43-1.17-1.57-2.39-3.01.15-4.4.96-.52 3.37.2 2.46-1.89-.73-1.67-3.02-4.28-3.83-4.02-5.39 1.72-10.05-1.13-13.52-1.7Zm242.71-257.67c16.88-.75 33.76-1.52 50.64-2.23 1.85-.08 2.24-1.1 2.14-2.6-.15-2.32-1.95-1.89-3.36-1.86-11.14.22-22.29.15-33.4.87-5.61.36-11.46 1.18-16.03 5.81Zm129.81 27.9c2.84-4.34 5.65-8.06 6.75-12.65.27-1.13 1.3-2.44-.16-3.62-2.69-2.17-5.21-4.56-8-6.58-5.07-3.66-5.16-3.58-7.36 2.29-.7 1.87-3.15 4.09-1.16 5.72 4.69 3.85 6.83 9.21 9.94 14.85Zm-98.87 283.82c.52.48.67.7.74.68 16.35-4.78 33.25-6.72 49.97-9.6 2.48-.43 2.91-1.71 1.6-3.8-1.32-2.1-3.08-2.78-5.5-2.17-2.88.73-5.81 1.3-8.71 1.93-13.13 2.85-25.48 7.89-38.09 12.97Zm-290.7-66.03c-1.21-1.3-2.03-2.31-2.99-3.17-4.67-4.18-4.71-4.2.71-7.36 1.39-.81 1.21-1.93.84-2.97-.41-1.17-1.69-1.32-2.46-.65-2.7 2.35-6.7 2.43-9.11 4.51-4.37 3.75-9.32 5.42-14.65 6.48-2.94.59-4.1 2.52-4.7 5.08-.18.75-.64 1.8.31 2.19.65.27 2.03.2 2.29-.21 2.44-3.9 6.21-2.8 9.77-3.03 2.38-.15 5.05.25 7.17-1.33 2.63-1.97 5.24-1.39 7.96-.35 1.34.51 2.52 1.72 4.86.82Zm292.06 24.68c-.88-.98-1.14-1.53-1.54-1.66-10.38-3.43-21.29-4.34-31.89-6.71-3.7-.83-3.27 2.45-3.81 4.43-.66 2.42.39 3.7 3.06 3.76 7.6.17 15.19.56 22.79.66 3.55.05 7.16.66 11.39-.47Zm-501.31-24.33c3.5.2 4.54-1.97 5.31-3.48 3.02-5.92 7.55-10.92 10.1-17.1 3.82-9.29 9.67-17.31 15.63-25.3 2.74-3.68 5.98-7.13 7.35-11.69-15.88 16.92-28.25 36.12-38.38 57.57Zm-97.2 79.7c-.4-.79-.6-1.44-1.01-1.92-3.33-4.02-3.87-9.1-5.14-13.85-.62-2.34-.81-4.58-3.82-3.16-2.45 1.15-6.78.84-5.14 6 1.72 5.4 4.14 10.46 6.56 15.53.71 1.48 1.54 3.81 3.27 3 2.26-1.06 4.11-3.18 5.29-5.61Zm341.42-13.69c-7.45-.28-7.76.15-4.78 6.36 1.36 2.83 2.88 5.6 4.56 8.25.98 1.54 2.4 2.96 4.55 1.98 2.55-1.17 5.01-2.53 7.56-3.71 1.06-.49 1.61-1.26 1.47-2.31-.15-1.17-.95-1.64-2.16-1.32-3.38.89-5.09-1.68-5.09-3.93 0-5.26-2.68-6.03-6.11-5.33Zm25.53-13.34c2.21-.16 4.53-4.08 3.53-6.09-4.34-8.73-8.83-17.39-13.18-26.12-.65-1.31-1.46-1.74-2.72-1.31-1.29.43-1.82 1.41-1.42 2.74.9 3 1.59 6.11 2.85 8.96 2.61 5.88 3.44 12.96 10.62 15.9 1.92.79 1.46 2.22-.16 3.3-.71.47-1.22 1.22-.65 2.07.23.34.84.42 1.12.54ZM125.64 317.93c4.86-2.44 9.04-4.7 13.36-6.66 10.41-4.73 20.91-9.27 31.33-14 2.65-1.2 5.55-2.35 6.16-5.84-2.21-1.24-3.84.44-5.7.81-5.12 1.02-7.48 6.49-12.34 7.65-9.8 2.33-18.48 7.16-27.22 11.85-2.26 1.21-4.84 2.32-5.58 6.19Zm-10.65 137.23c7.91-4.64 17.24-6.72 25.82-10.64 1.36-.62 1.9-2.18 1.02-3.35-.95-1.26-2.27-2.38-4.28-1.49-8.02 3.56-16.07 7.04-24.12 10.5-1.54.66-1.99 1.77-1.42 3.18.43 1.06 1.17 2.03 2.97 1.8Zm249.78-22.56c-.22-5.48-2.83-9.64-4.47-14.12-.56-1.52-.22-3.87-3.35-2.57-2.42 1.01-4.09 1.61-3.1 4.87 1.2 3.95 1.88 8.06 2.61 12.14.52 2.92 2.06 3.74 4.92 3.41 2.79-.33 3.85-1.56 3.4-3.73ZM752.23 74.45c-5.12-.08-6.58.76-5.21 2.4 1.48 1.77 4.58 3.91 5.83 3.1 4.32-2.8 6.95.55 10.17 1.77 2.06.78 3.74 1.38 4.47-1.67.38-1.56 1.4-2.98 2.26-4.39.57-.93 1.1-2.1.07-2.59-2.86-1.37-7.3-3.16-8.86-1.22-2.92 3.63-6.5.96-8.74 2.59ZM376.02 455c0 .4-.02.8-.02 1.2.28.17.55.43.85.48 16.69 2.67 33.4 5.16 50.23 6.82 1.3.13 3.06.52 3.31-1.22.27-1.9-1.7-1.73-2.88-1.87-13.02-1.49-26.05-2.94-39.09-4.34-4.12-.44-8.26-.73-12.39-1.08Zm105.93-24.43c8.49-.46 16.82-1.42 24.9 1.44.79.28 1.73.15 2.09-.8.35-.93-.48-1.46-.96-2.09-6.58-8.65-19.59-8.08-26.02 1.45Zm434.1-111.95c15.28 11.27 22.67 27.81 33.31 41.78-4.97-13.97-13.57-25.67-22.84-36.88-2.27-2.75-5.04-5.94-10.47-4.9ZM779.6 141.51c-3.57 3.06-8.57 6.69-8.02 10.6.67 4.81-1.4 5.14-4.28 6.28-5.98 2.38-8.71 6.66-8.37 13.27 10.52-7.73 18.51-16.92 20.67-30.15Zm4.69 191.12c1.79-2.7 1.95-5.14 1.39-7.84-1.78-8.58-3.44-17.18-5.11-25.78-.33-1.7.13-4.34-2.58-3.8-2.47.5-1.59 2.9-1.17 4.6 1.76 7.1 2.9 14.29 3.49 21.59.31 3.9 1.46 7.65 3.99 11.23Zm-369.43-8.42c.33 2.7-3.53 4.24-2.53 6.76 3.66 9.19 7.07 18.5 11.6 27.32.37.73.92 1.54 1.88 1.27 1.24-.34 1.25-1.53.94-2.42-3.92-10.99-7.91-21.96-11.88-32.94ZM354.01 94.95c1.61 3.22 3.5 6.1 3.71 9.75.08 1.38 1.33 2.4 2.77 2.41 6.02.04 12.31-1.62 17.55 3.07.29.26 1.2-.16 2.7-.4-8.36-6.87-17.41-10.98-26.73-14.83Zm88.98 306.44c-2.08-3.41-4.45-6.16-5.57-9.35-2.04-5.82-5.62-7.51-11.24-5.66 1.58 8.09 10.33 16.22 16.81 15.01Zm361.36-120.94c-6.96.63-13.63-.22-20.19 2.05-3.01 1.04-1.96 2.91-1.91 4.7.04 1.24.51 2.4 2.14 1.87 6.75-2.2 15.35.09 19.96-8.62ZM489.48 439.52c-.59.08-1.91.22-3.22.45-1.31.23-2.59.58-3.9.82-1.27.23-2.19.63-1.95 2.23.6 3.96 4.18 6.23 8.12 5.16 1.11-.3 2.31-.24 3.44-.48 2.74-.58 6.44-1.23 6.4-4.26-.04-3.31-3.97-3.32-6.67-3.91-.48-.1-.99-.01-2.23-.01Zm242.1-307.1c3.85-.3 2.87 2.3 2.07 4.35-.89 2.27-2.68 4.22-2.58 6.84.11 2.65 1.12 4.22 4.26 4.12 2.82-.09 4.46-.65 3.91-3.89-.16-.96-.34-2.25.15-2.91 1.94-2.64 2.46-5.3-.44-7.25-2.42-1.63-4.28-4.23-7.43-4.72-1.59-.25-2.68.19-2.44 2.04.16 1.22.15 2.97 2.5 1.41ZM328.98 566.6l-1.08-1.15c-2.84 2.21-6.34 3.94-8.38 6.74-3.34 4.56-7.11 7.96-12.67 9.18-1.18.26-2.89.94-2.69 1.82 1.17 4.93-3.65 5.87-6.21 9.41 14.12-5.35 21.81-16.55 31.03-25.99Zm6.58-40.04c-.45-2.34-1.54-3.98-3.39-2.93-3.43 1.94-5.74-.32-8.12-1.73-2.22-1.31-4.37-2.87-6.1-4.95-1.48-1.79-3.52-.99-4.7.25-1.57 1.65.22 2.43 1.46 3.27 4.64 3.15 9.22 6.39 13.85 9.56 1.32.91 2.89 2.58 4.35 1.27 1.35-1.22 1.9-3.33 2.64-4.75Zm-7.07-336.76c8.57-1.4 15.18-3.69 18.98-10.91.63-1.19 1.83-2.32.71-3.46-1.06-1.08-2.77-1.23-4.17-.4-6 3.56-10.57 8.58-15.52 14.77Zm484.22-21.29c2.79-6.86-4.62-16.81-15.42-21.63.3 3.08 0 6.93 2.4 8.27 5.62 3.13 10.01 7.2 13.02 13.36Zm-347.82-9.38c15.15.25 28.96.11 43.36-1.1-5.36-3.68-34.1-3.03-43.36 1.1Zm316.06-43.82c4.05-1.18 8.49-.72 12.36-2.65 1.55-.77 4.26.13 4.62-1.99.41-2.44-2.41-3.23-3.82-4.75-1.26-1.34-2.69-1.12-4.06-.34-3.44 1.95-6.82 4-10.23 6-.94.55-1.55 1.35-1.18 2.42.34.99 1.12 1.62 2.31 1.3Zm-3.08 64.74c-5.43.52-10.11 1.49-14.78-.09-2.05-.69-4.78-2.92-6.33-1.05-1.56 1.89.82 4.57 1.34 6.93.58 2.68 2.04 2.43 4.03 1.51 2.55-1.17 5.16-1.95 8.1-2 3.09-.05 5.31-2.12 7.64-5.31Zm-235.1 300.64c1.65-.52 2.35-1.33 2.2-2.35-.6-3.94-.04-7.44 2.99-10.34.75-.72 1.02-2.05-.29-2.41-5.14-1.4-5.05-4.55-3.69-8.79.38-1.19-1.08-3.21-2.14-4.48-.35-.42-2.53-.03-3.15.65-1.25 1.38.55 2.59.89 3.93.44 1.76 1.11 3.48 1.31 5.27.7 6.04 1.24 12.1 1.88 18.52Zm-23.46-325.36c3.95 2.42 41.07.63 45.45-2.02-15.58.1-30.54.67-45.45 2.02ZM93.97 425.71c4.8 1.8 5.08-1.49 5.28-5.09.25-4.5-3.43-3.76-5.73-4-3.4-.36-7.79 1.64-7.88 4.24-.15 4.17 4.15 5.16 8.34 4.86Zm221.78-294.33c-2.67.25-4.81.49-6.95.65-2 .16-4.36-.02-3.94 3.02.33 2.4 2.11 3.3 4.36 2.95 4.88-.75 9.74-1.64 14.61-2.46 1.38-.23 2.64-.43 2.23-2.4-.31-1.48-1.24-2.02-2.5-1.66-2.81.8-5.57-.01-7.82-.11Zm-92.6 216.44c-6.02 7.54-10.92 14.26-13.65 22.34 9.13-3.97 12.61-11.59 13.65-22.34Zm490.74-218.77c-2.93 3.31-4.07 7.4-6.72 10.6-1.2 1.46-.22 3.08 2.09 3.09 3.49.03 6.92-.37 10.32-1.17 1.88-.44 2.36-1.52 1-2.67-3.12-2.63-4.68-6.27-6.69-9.85Zm-299.8 173.76c-5.39-13.65-9.74-27.75-16.09-41.05 2.5 14.78 9.09 27.98 16.09 41.05Zm355-196.32q5.29 3.87 10.23.85c1.83-1.11 3.8-2.01 5.51-3.27 1.14-.84 4.05-.44 3.08-2.85-.86-2.11-3.12-2.98-5.42-1.97-4.49 1.96-9.03 3.88-13.39 7.24ZM218.12 487.51c4.78 6.11 9.66 12.04 14.2 18.24 1.7 2.32 4.62 1.16 6.96.91 1.13-.12 1.24-1.51.18-2.26-7.42-5.22-13.29-12.35-21.33-16.89Zm-82.73-7.5c-.11 2.29.33 4.1 2.09 4.57 1.78.47 1.71-1.66 2.26-2.68 2.77-5.15 2.01-11.58 5.87-16.41.52-.65.26-1.99-.97-2.4-1.18-.39-1.87.43-2.46 1.21-3.7 4.81-5.41 10.45-6.79 15.71ZM439.1 492.7c-1.02 3.78-1.97 6.69-3.05 9.55-1.91 5.06-.38 6.68 4.85 5.7 1.88-.35 3.98.11 6.34-1.68-5.13-2.81-3.91-9.01-8.14-13.57Zm94.93-66.9c-10.79 7.14-20.27 15.71-29.7 24.34-1.15 1.05-1.43 2.46-.34 3.5 1.57 1.51 2.26-.33 3.05-1.22 6.64-7.45 13.82-14.35 21.2-21.04 1.98-1.8 3.86-3.71 5.79-5.58ZM109.61 324.84c-8.09 3.74-14.92 9.28-21.33 15.42-1.45 1.39-.4 2.22.54 3.26 1.07 1.19 1.79 1.03 2.74-.11 5.51-6.63 12.13-12.15 18.04-18.57Zm232.86-200.49c2.29-.75 5.39-.83 6.4-2.32 1.48-2.18-2.07-3.16-3.01-4.95-.38-.72-.92-1.44-1.57-1.92-1.41-1.05-3-1.41-3.14.98-.2 3.56-1.66 4.02-4.41 2.26-.98-.63-2.05-.52-2.71.26-.76.9.01 1.84.48 2.71 1.84 3.41 5.59 1.01 7.96 2.97Zm181.75 401.44c-1.68-.13-2.25.93-1.59 2.15 3.56 6.54 7.29 13 12.22 18.64.45.52 1.62.95 2.16.73.9-.37.65-1.43.16-2.13-3.82-5.54-5.95-12.11-10.38-17.28-.72-.84-1.15-2.1-2.57-2.1ZM227.25 418.34c0-.18 0-.36-.01-.54-2.65 0-5.3-.02-7.96 0-.95 0-2.18-.22-2.34 1.14-.15 1.28.96 1.62 1.96 1.73 6.56.67 13.07 2.6 19.72.69 1.32-.38 3.61.11 3.33-1.97-.2-1.49-2.31-1.77-3.79-1.72-3.64.12-7.27.44-10.9.67Zm156.73-303.59c5.51 7.33 13.08.78 19.27 3.49.12.05.55-.6.86-.95-9.47-5.66-16.15-6.43-20.13-2.55Zm-67.81 10.71c1.16-.43 3.4 1.16 4.38-1.1.81-1.87-4.65-8.22-6.45-7.48-2.73 1.12-6.48 2.97-6.54 5.36-.06 2.56 4.06 2.73 6.68 3.21.48.09.99.01 1.93.01Zm414.63 55.27c-3.84 7.06-1.22 20.71 5.09 27.11-1.75-9.33-3.32-17.69-5.09-27.11ZM171.57 454.06c-5.63-2.02-10.7-3.32-12.24-8.47-1.15-3.85-3.1-3.26-6.46-2.35 3.07 2.4 6.05 4.24 4.75 8.39-.16.51 1.71 1.79 2.77 2.52 1.98 1.38 4.06 2.63 6.2 4 .75-1.76 2.08-3.12 4.97-4.09Zm542-353.54c4.38-8.97 4.06-12.02-1.11-14.67-.97-.5-2.01-1.4-3.12-.35-.92.87-.99 1.98-.61 3.19 1.21 3.87 2.5 7.71 4.84 11.83Zm74.37 17.66c-1.94-.45-3.84-.94-4.38.75-.57 1.78 1.52 2.71 2.62 3.83 1.06 1.08 2.13 0 3.15-.43 3.98-1.63 7.87-3.53 12.39-3.05.87.09 2.25.44 2.4-.95.15-1.45-.85-2.74-2.16-2.91-1.58-.21-3.27.17-4.87.49-3.22.64-6.22 2.27-9.14 2.26Zm-430.8 46.79c-1.6-5.31-3.04-10.21-4.57-15.08-.56-1.78-2.13-1.15-3.37-1.11-.98.03-1.59.65-1.34 1.61 1.38 5.45 3.38 10.64 6.65 15.26.48.68 1.23 1.29 2.05.61.42-.35.5-1.11.58-1.3ZM95.6 454.72c-1.21.65-5.51-1.58-4.87 3.39.32 2.45.36 6.08 3.88 5.66 2.47-.3 6.48-.91 6-4.98-.22-1.85.08-5.62-5.01-4.07Zm61.99-23.5c0-1.16.06-2.32-.02-3.47-.09-1.26.22-2.97-1.54-3.2-1.57-.2-2.28 1.44-2.61 2.54-.98 3.28-1.68 6.65-2.35 10.01-.21 1.06-.48 2.42.94 3.02 1.12.47 1.75-.57 2.58-1.03 3.2-1.82 2.84-4.92 2.99-7.87Zm506.57-28.48c-3.45.3-4.94 2.35-5.45 4.85-1.55 7.52-2.84 15.09-4.23 22.64.25.05.5.11.75.16 2.93-9.07 5.86-18.13 8.93-27.65ZM161.1 482.16c.61-2.04.22-3.22-1.63-3.8-1.12-.35-2.29-.33-2.35.85-.25 4.62-3.46 7.6-5.75 11.11-.5.76-.25 1.73.52 2.17.44.25 1.3.11 1.8-.16 4.2-2.28 7.55-5.21 7.41-10.17Zm77.79-189.17c-3.06-.4-4.74.65-5.59 2.97-.93 2.54 1.01 3.13 2.72 3.79 1.38.53 2.78 1.07 4.22 1.43 2.76.7 3.96-1.35 4.82-3.27 1.04-2.33-1.37-2.6-2.63-3.36-1.25-.76-2.69-1.2-3.54-1.56Zm466.48-146.37c6.62 2.34 13.09.57 19.57.72 1.21.03 2.95.37 2.75-1.75-.14-1.52-1.32-2.46-2.76-2.24-6.54 1-13.05 2.16-19.57 3.27Zm-427.62 272.6c-4.48-3.93-19.66-2.2-27.56 2.85 9.6-.99 18.05-1.86 27.56-2.85Zm8.05-131.81c-1.72.97-3.11 2.38-2.47 3.95.87 2.16 1.16 4.3 1.57 6.52.38 2.09 2.49 3.22 4.44 2.48 1.9-.72 3.12-2.54 1.84-4.8-1.3-2.28-2.7-4.5-4.1-6.73-.33-.52-.82-.93-1.27-1.42Zm241.83 227.26c-.3-1.18-1.39-2.93-.92-3.99 2.46-5.5-1.88-7.13-4.97-9.54-.54-.42-1.04-.96-1.72-.59-.9.48-.84 1.45-.54 2.18 1.78 4.26 3.61 8.51 5.52 12.71.21.46 1.04.83 1.61.87.8.06 1.02-.65 1.01-1.64ZM294.96 264.9c5.35-7.23 10.15-14.7 13.24-23.1-4.96 7.43-11.64 13.88-13.24 23.1Zm460.79-53.25c1 8.19.37 16.96 8.39 22.68-3.32-7.38-4.23-15.6-8.39-22.68ZM399.07 389.58c-8.65-2.92-11.51-2.79-16.06.55-.95.7-2.19 1.32-1.34 2.69.77 1.23 2.18 2.92 3.54 1.63 3.06-2.9 6.43-3.19 10.3-2.68 1.07.14 2.59-.46 3.57-2.19ZM162 414.17c2.48-1.55 4.52-3.56 6.91-4.16 3.97-.99 3.26-4.14 4.04-6.68.33-1.09-.62-1.91-1.19-1.41-2.97 2.65-6.21 4.67-10.15 5.47-.04 0-.08 1.05.18 1.34 1.46 1.6-.83 3.06.21 5.44Zm142.15-90.11c-3.63-7.79-11.68-9.8-17.77-14.39-.86-.65-1.6-.2-2.11.51-.59.82-.32 1.48.55 2.02 6.45 3.94 12.89 7.91 19.33 11.87Zm-134.04 92.79c-3.84.08-7.88 2.5-7.44 4.67.94 4.61 5.11 1.2 7.64 2.55 1.84.98 3.32-1.49 3.25-3.81-.08-2.32-.89-3.92-3.45-3.41Zm580.45-133.8c-.83-2.1.34-4.81-2.11-5.84-1.75-.73-5.04 5.01-5.11 8.67-.04 1.99.86 3.31 2.87 3.16 3.82-.3 3.15-3.86 4.35-5.99Zm-615.72 184.9c-4.57 4.06-10.52 9.35-16.46 14.63 6.31-5.01 14.41-8.26 16.46-14.63Zm370.73-31.46c-5.38-3.37-21.87-3.31-24.99-.06 8.65-1.64 16.8 1.51 24.99.06Zm-41.89 12.3c-2.29-3.32-5.97-.72-8.63-2.78-.93-.73-3.15 3.36-3.61 5.62-.55 2.69 2.03 1.78 3.46 1.98 4.18.6 5.39-3.75 8.77-4.82ZM205.33 614.68l.21 1.49c6.14-.29 12.29-.31 18.39-1.71 1.16-.27 2.54-.38 2.38-1.86-.2-1.89-1.79-1.59-3.09-1.34-5.96 1.12-11.92 2.28-17.88 3.43Zm-39.15-148.35c-.67-.59-1.38-1.16-2.03-1.78-4.46-4.29-6.9-4.24-10.39.92-2.73 4.03-4.23 8.67-4.74 13.59 2-3.57 3.48-7.37 5.38-10.96 1.78-3.35 4.08-6.01 7.82-1.81 1.15 1.29 2.49 1.52 3.97.04Zm320.63 6.27c.35.89.69 1.79 1.07 2.68 2.02 4.68 7.33 5.7 10.81 2.07.7-.73 1.33-1.63.92-2.67-.44-1.15-1.47-.17-2.16-.38-3.3-.99-7.43 2.09-10.64-1.7Zm-312.95-28.34c1.94 4.84 4.53 6.13 7.74 3.9 1.89-1.31 3.43-3.08 5.9-3.45.47-.07 1.13-.84 1.17-1.34.09-1.03-.89-1.29-1.69-1.37-1.14-.11-2.92-.53-3.35.02-2.62 3.39-6.25 2.39-9.76 2.24Zm622.96-24.36c-.11-1.44-.17-2.77-.34-4.08-.11-.86-.58-1.63-1.57-1.58-1.23.07-1.91 1.06-1.53 2.05 1.39 3.58-.51 3.72-3.22 3.49-1.15-.1-2.44.37-2.81 1.61-.21.68-.04 1.97.44 2.29 2.52 1.71 5.07-.16 7.61-.32 2.19-.13 1.34-2.21 1.42-3.47Zm-381.29-42.83c2.9-1.43 5.76-2.67 8.42-4.24 1.09-.64.57-2.2.3-3.25-.35-1.37-1.71-.88-2.49-.59-2.62.98-5.17 2.14-7.72 3.3-1.13.52-1.21 1.5-.68 2.5.53.98.89 2.18 2.16 2.29Zm-81.91-230.54c-3.26 1.07-5.4-5.24-8.17-1.37-1.95 2.71.71 7.35 2.98 7.95 3.82 1.02 3.11-4.17 5.2-6.58ZM768.6 246.58c-.71.07-1.47.41-1.41 1.1.27 3.4.27 6.95 2.49 9.77.83 1.06 2.52.87 3.69.23 1.16-.63.46-1.72.11-2.61-.89-2.3-1.76-4.61-2.72-6.88-.38-.9-.88-1.83-2.15-1.61Zm-57.89 347.81c3.64 5.28 21.27 16.34 26.6 17.01-9.61-4.5-17.77-11.28-26.6-17.01ZM112.85 477.4c.7-5.69-1.74-9.97-1.82-14.51-.02-1.21-.13-2.41-1.88-2.15-1.58.24-2.58 1.21-2.12 2.73 1.34 4.5 2.24 9.22 5.83 13.94ZM741.21 57.93c-3.75 2.69-5.9 5.57-7.96 8.52-.77 1.1-1.71 2.44-.18 3.41 1.14.71 2.72.4 3.59-.77 2.25-3.02 4.42-6.13 4.54-11.16ZM960.16 484.7c.57.05 1.14.11 1.71.16 1.4-7.73 2.06-15.53 2.2-23.38-.46-.04-.91-.09-1.37-.13l-2.55 23.35ZM542.1 435.92c1.79-.72 4.93.35 5.06-2.56.1-2.32-2.51-2.89-4.51-2.71-2.53.23-6.34.08-6.45 3.05-.08 2.28 3.69 1.68 5.91 2.21Zm-62.84 38.31c-1.25-.17-1.67.29-1.74 1.02-.3 3.37.99 6.31 3.67 8.05 1.16.75 5.2.98 4.38-1.59-.96-2.97-4.25-5.19-6.3-7.47ZM305.05 119.08c3.05-.17 4.8-2.36 6.7-4.08 2.19-2 0-3.55-1.03-5.08-.79-1.18-2.15-1.54-2.67-.03-1.04 3.01-3.95 5.46-3 9.2Zm265.97 266.29c-.42-.51-.84-1.01-1.26-1.52-6.48 4.15-11.58 9.96-17.58 14.69.32.38.63.76.95 1.14 5.96-4.77 11.92-9.54 17.89-14.31Zm-102.27 69.98c-.2-1.99-1.36-3.09-2.76-3.47-1.17-.32-2.64.84-2.17 1.94 1.26 2.92-.65 4.63-1.84 6.72-.44.78-.98 1.95.29 2.58.73.36 1.67.45 2.29-.3 1.91-2.3 3.11-4.99 4.19-7.48ZM322.19 93.95c-3.41.57-6.53 1.42-8.47 4.4-1.25 1.91-1.11 2.64 1.52 2.95 5.74.69 5.12-4.42 6.96-7.35ZM794.7 451.31c-2.25 1.95-4.83 1.85-7.51 1.93-3.34.11-4.13-3.28-6.77-4.63-.85 5.2 3.58 6.52 6.09 7.36 3.2 1.06 6.53-1.16 8.19-4.66ZM591.66 151.05c10.46.84 20.9.8 31.34-.11-10.45-.05-20.91-1.58-31.34.11Zm184.81 118.88c-1.72-1.88 1.84-6.73-2.8-7.2-2.75-.28-1.67 3.53-1.69 5.15-.03 1.97-.14 5.24 2.76 5.78 1.71.32 2.07-1.68 1.73-3.73Zm-50-172.16c-2.73 3.54-3.98 6.76-3.69 10.47.08 1.07.12 2.56 1.63 2.65 1.14.06 1.48-1.18 1.73-2.07.92-3.31 1.83-6.63.33-11.05Zm74.22 349.02c1.26-3.72 2.54-7.26.31-10.62-.79-1.19-2.04-1.99-3.38-1.18-1.2.73-.7 2.01-.26 3.14 1.14 2.87 2.22 5.77 3.33 8.66ZM679.08 364c.47.36.93.72 1.4 1.09 3.75-5.49 7.5-10.98 11.24-16.47-5.05 4.54-9.99 9.15-12.65 15.38Zm39.08-245.59c.51 1.1-.63 2.96 1.59 3.02 3.68.1 3.76-3.36 4.63-5.5.76-1.88-1.34-3.74-3.07-3.5-3.33.46-1.89 3.99-3.15 5.98Zm-294.3 287.92c-1.89-3.32-3.75-6.67-5.7-9.96-.5-.83-1.34-1.75-2.43-1.27-1.5.67-.93 2.06-.4 2.99 1.87 3.29 3.58 6.75 8.53 8.23Zm8.18-60.41c-.73-5.76-3.07-10.97-6.79-15.57.7 5.8 3.52 10.69 6.79 15.57Zm-7.66 38.55c1.92-1.52 5.33-1.89 5.8-5.51.18-1.35-.72-2.5-2.07-1.96-2.73 1.1-5.19 2.8-6.18 5.73-.38 1.12.89 1.56 2.44 1.74Zm-85.76-225.72c-1.38-1.75.38-5.53-3.01-6.06-1.01-.16-3.59 2.64-3.5 3.94.19 2.54 2.62 3.95 5.23 4.35 1.66.25 1.19-1.07 1.28-2.23Zm439.03 123.28c-.12-1.11 2.17-3.22-.93-3.12-2.37.07-3.01 1.79-2.45 3.85.6 2.2 1.45 4.34 2.13 6.52.23.73.02 1.82 1.3 1.4.82-.27 1.33-.97 1.17-1.91-.39-2.25-.81-4.5-1.22-6.75ZM192.33 425.89c-2.25.1-3.01 1.3-2.72 3.29.34 2.34-.31 6.18 2.7 6.05 3.82-.16.91-4.32 2.1-6.47 1.1-1.98-.8-2.39-2.08-2.86Zm205.22-39.9c1.15-.19 3.39 1.11 2.73-1.71-.34-1.46 1.29-4.29-1.64-4.21-2.63.08-5.37 2.13-5.69 4.49-.25 1.78 2.94.92 4.6 1.42Zm-73.76-269.01c-.54.29-1.44.47-1.58.9-.54 1.65.3 3.1 1.67 3.74 2.14 1 3.67 3.73 6.54 2.72.97-.34.55-1.56.15-2.2-1.56-2.51-4.26-3.55-6.79-5.15ZM117.49 501.4c-2.55-1.65-4.07-4.54-6.38-6.69-.6-.56-1.72.61-2.42 1.31-.99.98-.46 1.81.36 2.46 1.93 1.53 3.9 3 5.88 4.45 1.32.96 2.06.36 2.56-1.52Zm441.53-99.22.94.85c4.6-4.3 9.2-8.61 13.8-12.91-5.95 2.91-10.94 6.84-14.74 12.06Zm-349.93-13.15c-.48-.14-.95-.29-1.43-.43-1.83 4.87-5.85 8.9-5.87 14.46.42.16.83.33 1.25.49l6.06-14.52Zm322.06 113.93c1.97-1.41 4.05-2.97 5.11-5.32.37-.83-.67-2.83-1.77-2.36-2.44 1.04-5.13 2.32-6.13 4.97-.4 1.05 1.23 2.13 2.78 2.71Zm20.34 51.05c3.79-1.78 3.44-5.36 5.75-7.07.77-.57.06-1.85-.72-2.55-1.44-1.27-2.8-.57-4 .35-.82.63-2.58 1.68-1.27 2.57 2.79 1.92.78 3.96.25 6.7ZM288.33 272.48c-3.88 4.86-7.75 9.73-9.95 15.65 3.79-4.92 8.06-9.54 9.95-15.65Zm475.26 173.1c.44-2.29 1.1-4.64-1.2-5.11-1.85-.37-2.67 1.63-2.43 3.46.3 2.19-.29 5.71 2.35 5.86 2.89.17.64-3.14 1.28-4.21Zm-306.61-39.91c-1.05-6.16-3.24-10.43-5.36-14.72-.11-.23-.96-.37-1.23-.19-.31.2-.61.94-.47 1.21 2.15 4.11 2.09 9.3 7.05 13.7ZM352.11 98.44c-2.39-3.89-5.9-3.04-9.25-2.68-.95.1-1.56.89-1.26 1.73.56 1.55 1.56 2.88 3.21 3.46.62.22 1.53.18 1.51-.63-.11-6.51 3.1-3.07 5.79-1.88Zm387.08 2.65c3.9 3.06 7.8 2.42 11.35 3.06 1.06.19 1.96-.39 1.94-1.63-.01-1.03-.89-1.38-1.7-1.37-3.54.05-7.03-1.61-11.58-.06Zm26.24 154.64c.05.24.06-1.01-.44-2.01-.68-1.37.43-4.5-2.56-3.72-2.51.65-1.75 3.27-1.45 5.12.17 1.05 1.03 2.04 1.74 2.94.53.68.71 2.14 2.06 1.59 1.07-.43 1.16-1.5.65-3.92Zm-95.09 121.44c-4.82 4.6-6.24 8.57-4.88 13.63 1.71-4.63 4.14-8.26 4.88-13.63ZM529.5 572.4c2.67-2.86 4.89-5.25 7.1-7.63.75-.81 1.17-1.66.09-2.49-.73-.56-1.66-.59-2.21.15-2.09 2.82-5.02 5.23-4.98 9.97Zm259.45-216.97 2.24-.26c-3.52-5.65-.36-12.07-4.28-17.67l2.04 17.93ZM430.16 477.39c-.75-1.04.17-3.9-2.06-4.08-1.81-.15-2.91 2.16-3.09 3.94-.21 2.12 1.55 2.7 3.35 2.79 1.49.08 2.12-.68 1.8-2.65ZM793.92 275.7c-4.61-2.69-9.37-1.54-12.28 3.11 4.27-1.08 8.15-2.06 12.28-3.11Zm-532.03 20.12c-1.53-1.71-3.49-2.75-5.8-2.98-1.11-.11-2.72.07-2.44 1.63.5 2.75 3.22 2.95 5.28 3.65 1.45.49 2.34-.71 2.96-2.3Zm479.27-141.36c-2.08 1.22-3.78 2.15-5.4 3.21-1.21.79-1.04 2.15-.52 3.12.61 1.13 1.88 1.39 2.97.51 2.04-1.64 4.21-3.28 2.95-6.84Zm-561.48 140.9c2.86-.07 5.63 1.03 6.79-2.48.3-.91.47-2.24-.95-2.32-3.07-.18-4.73 1.6-5.84 4.8Zm600.6 137.1c1.81-1.13 3.87-2.28 4.1-4.84.08-.93.35-3.09-1.08-2.63-2.25.72-4.19 2.42-4.45 5.22-.1 1.06-.12 1.99 1.43 2.25Zm-27.09-163.69c.29 4.17-1.51 8.81 2.86 12.83-.02-5.05-.61-9.14-2.86-12.83ZM163.18 437.49c3.11-1.34 3.88-3.75 2.63-6.91-.53-1.34-1.36-1.91-2.68-1.38-1.35.55-1.67 2.5-.99 2.83 2.72 1.35 1.18 3.49 1.04 5.45Zm4.06-148.06c-5.68.49-9.86 2.55-11.49 5.61 4.48-.93 7.98-3.2 11.49-5.61Zm-42.02 314.79c3.26 3 6.67 5.7 10.84 7.13-2.67-3.89-6.48-5.96-10.84-7.13Zm17.12-113.48c.39-.76.9-1.53 1.21-2.38.61-1.66 1.51-3.37.21-5.08-.4-.52-1.12-.73-1.68-.09-1.33 1.53-2.28 3.24-1.63 5.34.27.87.45 1.97 1.89 2.21Zm355.28-28.35c-2.19-.27-4.13-.54-5.24-2.63-.38-.72-1.47-.73-2.21-.17-.84.64-.45 1.55-.13 2.26 2.06 4.51 4.86.77 7.57.55Zm-328.8-22.73c-2.61.59-5.27-.48-5.96 2.77-.3 1.39.93 3.08 1.91 3.01 3.01-.22 3.04-3 4.05-5.78Zm260.94-73.72c-1.52.35-1.33 1.64-.87 2.36 1.77 2.76 3.94 5.27 4.91 8.51.18.6.98.95 1.59.35.54-.53.54-1.36-.01-1.78-2.45-1.88-2.62-4.85-3.74-7.37-.38-.86-.77-1.84-1.89-2.06Zm343.98-66.56c.08-1.54-.19-2.93-2.32-2.73-1.69.16-2.9.95-2.62 2.81.25 1.68 1.52 2.44 3.16 2.56 1.99.15 2.05-1.1 1.79-2.64ZM387.39 161.5h-13.13c4.37 1.66 8.79 1.6 13.13 0ZM769 284c-.86 3.02-1.39 6.01.26 8.78.38.64 1.35-.1 1.6-.61 1.57-3.11-.6-5.54-1.87-8.18Zm17.62-14.47c-1.42-1.57-2.88-3.2-5.2-3.38-1.19-.09-1.16.93-.95 1.75.46 1.82 1 3.62 3.49 3.36 1.14-.12 2.35-.14 2.67-1.74ZM414.98 517.79c2.96 1.08 5.89 1.42 9.27-.54-3.64-2.02-6.44-.55-9.27.54ZM125.86 301.15c-4.42.96-8.06 3.28-11.3 6.3 4.23-1.3 7.9-3.56 11.3-6.3Zm25.74 162.48c-1.81-3.22.72-7.13-1.5-11.63-.7 4.92-2.79 8.66 1.5 11.63Zm-46.37-8.2c.91.67-.67 3.07 1.51 3.26 1.82.15 2.33-1.42 2.27-3.09-.06-1.53-.1-3.18-2.08-3.3-1.88-.11-1.95 1.33-1.7 3.14Zm655.35-157.29c-1.06-3.45-.98-6.44-4.41-9.09.15 3.98-.11 7.03 4.41 9.09ZM27.93 423.03l-1.42-.08c-.4 3.57-.79 7.13-1.19 10.7 1.93-3.41 3.15-6.89 2.61-10.62Zm690.84-322.78c2.69-1.27 3.81-3.36 3.55-6.23-.07-.76-.69-1.26-1.37-.84-2.24 1.36-2.5 3.7-2.69 6.02-.02.27.27.57.51 1.05ZM206.29 429.16c-.68.63-2.84-.58-2.66 1.6.14 1.72 2.08 1.24 3.26 1.62 1.44.46 2.33-.27 2.32-1.68-.01-1.76-1.52-1.34-2.91-1.53Zm171.65-27.65c-1.68.93-3.93 1.7-3.63 3.92.12.92 2.27 1.63 3.56 2.29.56.28 1.36.18 1.64-.57.15-.42.03-1.35.01-1.35-4.58-.09.04-2.87-1.58-4.29Zm82.52 11.17c-2.62 2.78-1.14 4.82.31 6.77.61.82 1.49.57 1.97-.27 1.76-3.11-1.79-4.01-2.28-6.5Zm-274.06 6.98c-.75-1.74-2.81-1.7-4.33-2.35-.9-.38-2.33.22-2.19 1.27.32 2.41 3.07 1.81 4.52 2.97.78.62 1.67-.53 2-1.9Zm614.08-.2c-1.14 4.38 1.56 5.92 5.01 8.42-.99-3.95-2.19-6.37-5.01-8.42Zm-254.55 68.39c-2.28.51-4.3 1.31-4.35 3.89-.01.61 1.12 1.86 1.41 1.77 2.63-.82 2.48-3.38 2.95-5.66Zm-189.65-42.54c2.62 3.54 5.33 2.34 7.91 1.93-2.03-2.14-4.39-2.75-7.91-1.93Zm12.06-282.8c-1.79-2.46-3.35-4.04-6.01-3.51-.22.04-.49 1.23-.31 1.73 1.06 2.96 3.36 2.41 6.32 1.78ZM194.67 444.03c-1.64-.01-2.26.87-2.43 2.12-.33 2.43 1.56 1.51 2.62 1.58 1.04.06 2.63.32 2.44-1.47-.16-1.47-1.53-1.94-2.63-2.23Zm31.37-151.62c-.11 1.24-.51 2.9 1.18 2.74 2.34-.22 2.02-2.7 2.63-4.28.53-1.37-.39-2.49-1.7-2.34-2.32.27-1.29 2.7-2.11 3.88Zm-53.45 140.51c1.84-2.46 4.3-3.87 4.71-6.89.02-.18-.84-.75-1.05-.65-2.45 1.21-2.65 4.03-4.12 5.96-.11.14.15.57.46 1.58Zm580.67-134.08c-.95-1.21-.94-3.69-3.6-3.79-1.13-.04-1.39.72-1.17 1.65.48 2.08 1.81 3.6 3.76 4.22 1.07.34 1.1-.86 1.01-2.08Zm-546.29 78.29c-2.24 2.16-6.09 3.06-6.22 7.62 3.17-2.04 4.67-4.84 6.22-7.62Zm-66.91 87.09c1.73-3.01 4.13-4.71 3.22-8.44-2.34 2.35-5.12 3.79-3.22 8.44Z"/></svg>