<svg xmlns="http://www.w3.org/2000/svg" viewBox="0 0 596 874"><path fill="#2c2c2c" d="M154.99 263.81c3.31-3.06 7.7-3.65 11.71-5.11.89-.32 2.04-.56 1.97-1.85-.02-.37-.56-1.01-.89-1.03-6.08-.34-12.16-.78-18.64-2.13.96 2.92 3.03 2.63 4.32 3.52 1.14.79 2.4 1.28 1.68 2.98-.63 1.48-1.78.91-2.95.83-4.01-.26-7.94-1.02-11.42-2.91-4.44-2.41-7.86-1.5-11.15 3.31-.15-3.87 2.14-5.03 4.89-6.92-8.99-2.19-16.37-5.54-22.25-11.24-2.2-2.13-3.69-3.03-6.73-.76 4.11-7.3-.55-13.72-.85-20.43-.19-4.26.65-7.58 3.95-10.61 13.72-12.58 28.31-23.76 46.18-29.9 13.15-4.52 26.98-5.61 40.57-7.83 5.55-.91 10.1.63 13.71 5.74 5.32 7.52 8.6 7.9 17.01 3.71.89 1.17-.16 1.88-.8 2.33-5.53 3.83-4.41 8.1-.74 12.3 5.04 5.78 9.19 12.16 13.75 18.27 2.33 3.12 3.7 6.68 5.33 10.13.63 1.33 1.23 3.05-.81 3.75-1.91.65-2.45-.85-3.09-2.34-4.99-11.62-12.65-21.37-21.34-30.44-2.4-2.51-4.67-3.15-7.34-1.02-2.65 2.11-1.11 4.38.15 6.55 2.65 4.6 5.24 9.23 7.92 13.81 1.08 1.83 1.94 3.94 4.44 4.41.45.08 1.24.48 1.22.65-.97 7.69 8.78 9.58 8.39 16.99-2.11.14-3.71 1.34-3.57 4.53.16 3.52 2.46 2.89 4.56 2.86 2.21-.04 3.06 1.75 4.29 3.05.97 1.03 2.12 1.66 3.57 1.31 1.79-.43 1.47-1.97 1.59-3.24.41-4.42 2.79-8.43 2.51-13.03 2.22 2.48 1.9 5.55 1.13 7.97-2.11 6.65-2.4 13.74-5.27 20.19-1.85 4.16-6.16 7.01-9.92 4.79-8.78-5.19-13.33 1.88-18.77 5.8-2.46 1.77-5.95 4.81-4.51 8.14 1.06 2.45 5.23 1.22 7.85 1 3.82-.32 7.7 2.61 11.23.24 5.09-3.43 10.97-6.08 14.53-11.29 2.9-4.23 6.75-7.8 8.78-12.63 1-2.37 3.08-4.58.49-7.23-.55-.57-.65-1.49.48-1.97 6.69-2.85 4.2-9.72 6.23-14.61.7-1.67-1.27-1.87-2.7-1.67-1.15.17-2.56.52-2.69-1.2-.11-1.52 1.28-1.13 2.2-1.24 2.56-.31 3.74-1.74 3.81-4.33.17-6.31.41-12.62.69-18.93.07-1.62-.62-2.46-2.15-2.8-6.23-1.38-9.66-8.1-17.44-7.73q4.34-3.45.57-5.47c-1.32-.71-1.17-1.99-.89-3.06 1.18-4.5.93-9.23 2.53-13.7 1.55-4.33.71-4.96-4.05-4.37-2.8.35-5.64.33-8.47.48-1.02.05-2.2.1-2.43-1.13-.3-1.58 1.09-1.89 2.19-2.11 3.27-.64 6.6-.98 9.82-1.79 4.97-1.24 7.83-3.77 9.19-9.53 5.09-21.62 9.15-43.55 19.79-63.57 11.42-21.51 27.6-38.91 45.08-55.37 4.12-3.88 8.18-7.83 12.35-11.66 11.11-10.18 23.82-15.3 38.86-10.87 10.4 3.06 24.64 16.68 25.35 30.08 1 18.82 6.65 36.88 9.18 55.46.12.87.19 2 1.96 2.78 1.16-2.9 2.37-5.72 3.43-8.59 3.72-10.01 8.48-19.53 13.77-28.77 1.04-1.82 1.47-5.77 5.57-3.03 1.13.76 2.11-1.23 3.05-2.09 6.02-5.49 10.7-12.31 17.32-17.23 9.71-7.23 21-10.56 32.67-10.61 9.51-.04 18.31 4.15 25.27 11.24 3.96 4.03 7.75 8.31 12.16 11.78 9.97 7.86 16.41 18.44 21.95 29.31 5.28 10.34 11.4 20.35 15.43 31.27 3.07 8.33 6.4 16.69 7.11 25.72.2 2.5.89 4.94 2.16 7.1 1.44 2.44 3.45 3.1 5.33.52 1.1-1.52 2.48-1.76 3.08-.36 1.75 4.1 4.35 2.21 6.95 1.46 2.67-.78 5.39-1.37 9.05-2.29-3.27 3.95-7.38 4.28-10.79 5.85-3.21 1.48-5.83 3.19-5.73 7.25.51 19.95-3.91 39.18-8.51 58.41-2.5 10.45-4.45 21.02-6.78 31.51-.37 1.68-.61 3.72-2.74 4.46.3-1.82.61-3.65 1.07-6.41-3.8 8.93-11.3 13.39-18 19.95 1.96-.1 2.44-.08 2.91-.15 7.82-1.28 10.48-7.94 14.14-13.55-.97 9.14-6.71 15.08-16.04 16.27-4.45.57-8.95.77-13.43 1.02-1.95.11-3.85.1-5.7-1.15-2.75-1.86-5.85-2-9.11-1.08-1.2.34-3.15 1.34-3.85-.76-.52-1.58.99-2.27 2.15-2.9 5.11-2.76 8.76-6.79 11.03-12.17.95-2.26 2.6-4.17 1.02-6.91-1.02-1.76.31-3.01 1.81-4.05 7.65-5.33 12.95-12.81 18.29-20.24 1.86-2.6 3.45-5.31 1.35-9.71 5.93 4.42 6.28-1.58 7.4-3.21 3.95-5.75 5.51-12.55 5.71-19.59-2-.38-2.7.91-2.83 1.87-.69 5.25-4.59 6.9-8.83 8.28-.95.31-1.93.63-2.75 1.17-7.51 4.88-16.58 5.46-24.6 8.9-.67.29-1.15 1.02-2.19 1.99 2.61.14 4.15-2 6.34-.95-2.75 3.65-6.93 4.64-10.89 5.83-2.32.7-2.9-.27-2.01-2.69 1.15-3.13 2.8-5.41 6.09-6.47 1.17-.38 2.94-1.32 2.2-2.75-.77-1.48-2.25-.43-3.44.27-1.74 1.02-3.26 2.18-4.51 3.83-1.36 1.78-2.02 5.55-5.72 2.73-.22-.17-1.12.09-1.31.39-4.11 6.68-12.5 7.95-17.34 13.71-.66.79-1.58 1.86-3 1.19-.91-.43-1-1.22-.98-2.08.04-1.59 1.05-2.69 2.41-2.71 4.59-.04 3.15-1.79 1.46-4.1-2.01-2.76-1.92-4.39 1.02-7.61 4.75-5.21 9.83-6.64 16.35-7.65 6.26-.97 12.17-4.32 18.16-6.81 4.63-1.93 9.43-3.2 14.29-4.37 6.67-1.6 9.27-5.86 8-12.5-.27-1.43-1.02-1.4-2.04-1.46-9.67-.64-18.97-3.1-28.3-5.54-4.53-1.18-9.33-1.27-13.98-2.06-3.53-.6-5.48.42-5.53 4.24-.02 1.29-.09 2.73-1.84 3.17-1.48-.3-.99-1.5-.95-2.36.29-5.49-.97-6.55-6.28-5.1-3.75 1.03-6.81 4.18-11.21 3.32-1.22-.24-1.26 1.21-1 2.26.91 3.76-1.61 6.02-3.91 9.35-1.25-3.39-.08-5.87.31-8.33.47-2.95.28-5.07-3.62-4.25-.79.17-1.66-.02-2.49-.07-8.3-.51-8.69-.14-12.43 7.12-.92 1.78-.94 5.86-3.82 4.65-2.12-.89.75-3.67 1.14-5.66.29-1.46.75-2.88 1.14-4.34-7.44-.76-9.6.47-12.39 7.08-2.02 4.78-3.96 9.59-6.42 14.23-1.92-6.12 2.62-10.77 3.44-16.21-7.87-.3-13.41 4.74-12.94 12.45 2.34 38.83 3.95 77.74 11.76 116.03.99 4.85 1.65 9.83.99 14.87-.21 1.6-.38 4.31.42 4.76 6.44 3.6 5.04 10.92 8.02 16.14 11.35 19.87 20.23 40.89 25.58 63.12 6.72 27.95 11.56 56.27 14.62 84.92 2.3 21.5 3.67 43.04 5.12 64.6.8 11.89 4.07 23.49 4.33 35.56.2 9.17-.42 18.26-.57 27.39-.45 26.96-2.42 53.87-5.25 80.63-2.32 21.91-7.15 43.51-13.96 64.63-4.94 15.32-10.31 30.48-16.28 45.4-4.45 11.12-11.16 21.09-19.33 29.98-2.36 2.57-4.77 5.11-6.95 7.82-8.52 10.61-20.04 13.21-32.86 12.55-1.87-.1-3.6-.49-5.29-1.28-4.87-2.28-5.01-3.44-.93-8.01.12.63.5 1.36.32 1.87-1.2 3.31 1.2 3.64 3.32 3.88 1.51.17 3.77.89 4.31-1.14.75-2.84-2.29-2.61-3.79-3.43-1.24-.68-2.82-.75-4.25-1.09-.05-1.59-1.36-2.32-2.43-2.92-13.73-7.69-22.02-20.59-30.74-32.82-7.56-10.6-11.34-23.19-15.1-35.59-2.55-8.4-6-16.52-7.4-25.29-1.94-12.12-4.03-24.23-6.46-36.26-2.37-11.71-4.05-23.77-8.31-34.8-2.95-7.63-2.01-14.88-2.49-22.26-.98-15.23-1.16-30.51-2.6-45.74-1.02-10.82 1.63-21.51 1.76-32.33.29-22.42 2.08-44.8 6.18-66.82 4.31-23.16 10.24-45.97 18.2-68.22 4.99-13.96 12.7-26.88 16.8-41 2.62-9.01 7.79-16.72 10.51-25.75-2.19.09-3.17 1.44-4.32 2.54-9.76 9.29-18.92 19.34-29.46 27.66-14.86 11.74-26.93 26.2-40.69 38.98-6.42 5.97-11.1 13.64-16.83 20.28-6.72 7.78-14.25 14.87-21.63 22.06-11.19 10.9-22.55 21.63-33.84 32.42-1.22 1.17-1.76 2.76-2.65 4.09-1.67 2.51-2.88 5.94-7 5.71-1.53-.09-2.55.94-2.52 2.49.03 1.41.95 2.56 2.22 3.05 1.64.63 2.43-.5 2.83-1.92.17-.61.26-1.25.4-1.97 3.5 2.93 2.87 6.2-1.65 7.73-4.33 1.47-8.18 3.69-11.85 6.27-4.69 3.29-4.64 7.69.21 10.57 1.58.94 2.52 2.04 1.76 3.5-.91 1.76.48 4.26-3.08 5.36-8.08 2.48-9.76 6.69-6.72 13.34.94 2.06 2 2.96 3.32.56 1.28-2.33 2.19-4.43 5.24-5.43 2.44-.8-.07-3.94 1.06-6.14 2.44 2.71 2.49 5.91 2.36 9.11-.11 2.72-.72 4.97-4.09 2.52-.82-.59-1.5-.68-2.06.23-1.3 2.1-3.07 4.12-2.1 6.86.99 2.82 2.16 5.58 3.25 8.36.58 1.46 1.99 2.72 1.03 4.93-3.44-2.21-2.67-6.77-6.35-9.78-.32 5.9 1.09 10.93 2.05 15.92.39 2.04 1.95.95 3.07.12 3.56-2.65 6.7-5.87 10.75-7.98.03.43.16.91.05.98-5.26 3.14-6.5 7.38-6.08 13.65.9 13.3-4.51 23.92-17.05 29.95-2.51 1.21-3.14 2.74-1.26 4.5 5.12 4.77 5.18 11.74 8.06 17.46.96 1.92.44 2.8-1.59 3-5.92.59-11.7 1.97-17.67 2.48-4.95.43-9.99 2.44-15.01 3.69-1 .25-1.76 1-1.87 2.11-.12 1.17.52 2.06 1.63 2.08 2.46.06 2.2 2.03 2.74 3.49.36.97.75 2.04-.25 2.71-1.26.84-2.1-.11-2.92-1.02-1.56-1.73-3.13-3.46-4.82-5.06-.68-.64-1.82-1.49-2.52-1.32-4.37 1.07-6.37.36-5.28-4.86.43-2.08-7.47-6.13-10.37-5.19-5.18 1.67-9.26.68-13.08-3.23-2.21-2.27-5.47-2.78-8.19-.79-2.39 1.76-4.89 1.76-7.53 1.74-10.58-.08-20.91.52-30.88-5.57-3.8-2.32-6.84-4.13-9.38-7.82-2.45-3.55-4.05-8.02-8.49-10.05-1.32-.61-2.28-2.15-2.37-3.67-.51-8.81-5.77-15.86-8.92-23.65-2.44-6.04-4.66-12.07-6.21-18.36-6.23-25.27-13.19-50.42-15.52-76.45-1.45-16.26-.15-32.47 1.76-48.69 1.16-9.87 3.72-19.54 3.76-29.57.04-10.31-.09-20.67.95-30.9 2.97-29.08 5.9-58.29 20.69-84.45 4.76-8.42 9.05-17.3 17.66-22.94 2.84-1.86 4.59-5.42 7.45-7.24 6.94-4.43 26.81-4.56 34.85 3.47 5.06 5.06 8.93 9.98 7.93 17.74 8.24-19.18 15.4-38.56 26.12-57.71 1.26 4.37-1.88 6.25-1.23 9.43 6.03-2.25 9.02-9.03 15.55-10.02-4.5 3.86-7.66 8.9-11.91 13.11-15.66 15.5-20.1 36.36-24.31 57.23 1.84.62 3.83-3.41 4.83.52-1.92 2.39-5.23 4.46-4.99 7.54.5 6.56 1.95 13.05 3.07 19.56.2 1.19.78 2.31 2.26 2.1 3.76-.53 7.07-9.19 5.14-12.75-2.81-5.18-5.22-10.55-5.59-16.58 3.43 4.5 5.74 9.63 8.23 14.65.48.97.94 2.86 2.24 1.43 1.78-1.96 4.43-3.93 3.26-7.24-4.37-12.36-2.89-25.22-3.09-37.9-.16-10.32 4.96-16.82 14.8-20.57 1.68-.64 2.35-1.99 3.11-3.56 1.94-4 2.25-8.75 5.62-12.08 1.29-1.28 3.19-2.73 2.2-4.58-.96-1.79-3.28-.61-5-.78Zm21.71 344.84c-3.1.1-4.31-2.6-6.23-4.22-.95-.8-1.49-2.33-3.18-1.27-1.85 1.16-2.69 2.75-2.53 4.95.15 2.12 1.85 1.43 2.96 1.7 3.13.76 6.19.7 9-1.17-1.78 3.95 1.85 7.24 1.37 11.09-.11.9 1.27 1.18 1.96.8 2.59-1.4 6.36-1.78 5.28-6.41-1.11-4.77-2.65-5.98-6.94-4.85-.64.17-1.32.12-1.68-.62Zm-27.07-299.14c-1.75.43-2.6 1.91-2.4 3.34.69 4.84-.52 9.41-1.48 14.04-.17.81-.58 2.02 1.22 2.84 4.17-4.58 7.6-9.67 8.33-16.08.19-1.68.69-5.9-3.61-2.48-1.4 1.12-2.37.07-2.2-1.76 1.19-3.13 3.88-5.94 1.91-10.24-2.94 3.34-3.55 6.61-1.78 10.34Zm42.09-95.75c2.37 1.01 4.11-.04 5.81-1.62 1.36-1.26 2.84-2.56 5.19-1.36q-7.75 5.91-1.71 13.65c1.13 1.44 2.19 2.93 3.4 4.3.97 1.09 2.64 1.85 3.24.19 1.18-3.23 4.11-6.21 1.63-10.22-2.35-3.79-4.33-7.82-6.35-11.81-.69-1.37-1.5-2.63-2.89-1.32-2.82 2.67-7.12 3.92-8.2 8.3-3.52.7-12.17 10.74-12.13 14.1.03 2.17 1.63 3.24 3.28 3.91 1.12.45 2.67.79 3.7-.45 1.19-1.43 1.24-2.98.19-4.58-.7-1.07-1.27-2.23-1.99-3.51 1.94-.4 3.05 3.54 4.59.9 1.83-3.13 4.68-6.33 2.24-10.48Zm-55.27 441.37c6.67 3.8 13.29 1.51 19.9-.23.87-.23 2.12-.61 1.6-1.97-.57-1.48-2-1.3-2.93-.71-3.44 2.18-6.15.51-8.38-1.77-2.05-2.09-3.54-1.61-5.53-.16-1.91 1.39-3.52 2.97-4.68 5.02-1.43-3.48-3.08-6.49-7.8-5.57-2.23.43-2.71-1.06-2.54-3.1.1-1.14 1.41-2.42-.41-3.86-2.95 3.76-3.47 8.2-3.7 12.54-.42 7.8 2.96 11.63 10.69 12.67 1.44.19 3.18.39 4.27-.78 1.37-1.46-.24-2.72-.74-4.03-1.03-2.7-2.3-5.4.26-8.04Zm62.38-456.41c-6.4-6.5-12.14-.33-18.09 1.45-.17-2.17 2.41-2.25 1.96-4.65-9.8 3.26-18.2 8.78-26.61 14.25-.43.28-.87 1.33-.68 1.66 1.82 3.13 4.74 5.11 7.93 6.51 2.31 1.02 3.04-1.39 4.07-2.76 4.56-6.03 9.28-11.77 16.85-14.34 3.19-1.08 6.18-1.83 9.56-.48-1.59 3.58-4.85 2.17-8.68 3.14 3.96.96 2.4 5.81 6.36 5.15 3.22-.54 7.24-6.46 7.19-10.09 1.52.88 3.21 2.69 4.69.4 1.45-2.23-.68-4.12-1.63-5.87-.87-1.61-2.36-.29-3.34.41-2.67 1.91.53 3.45.44 5.22Zm-65.92 417.64c-1.43-2.59-3.92-1.76-4.95-.45-2.08 2.65-4.05 5.74-2.84 10.49 3.18-3.81 3.14-8.92 7.88-10.15-1.04 3.85-4.95 6.16-4.92 10.86.03 3.95.6 4.78 4.14 2.42-.83 4.05-4.76 6.14-5.09 10.73 1.94-1.58 3.71-2.47 4.67-3.91 3.68-5.55 9.17-7.83 15.32-9.18 1.78-.39 3.45-1.09 5-2.16 1.05-.72 2.56-2.64 3.63-.79.82 1.42-1.32 2.4-2.43 3.26-.74.57-1.82.68-2.74 1.02a83.769 83.769 0 0 0-13.46 6.4c-1.13.66-1.87 1.47-1.59 2.77.39 1.78 1.8 1.2 2.81.86 2.81-.95 5.59-.21 8.39-.14 3.03.08 6.19.95 8.95-1.58 1.46-1.34 3.73-3.37 5.62-1.62 1.7 1.57.33 4.06-.62 6.02-.41.84-.52 1.96-2.07 2.31.07-.9.21-1.68.19-2.46-.03-1.12 1.86-2.71-.34-3.26-1.59-.39-2.26 1.18-2.33 2.59-.18 3.72-2.34 6.25-5.22 8.35 2.24 2.04 4.42-1.26 5.74.09 5.28 5.39 8.84.41 12.99-1.69 2.86-1.44 3.57-3.22 2.7-6.4-1.16-4.26-2.68-8.58-1.48-13.2.59-2.28-.55-3.32-2.95-3.37-1.27-.03-2.64-.43-3.78-1.03-4.23-2.23-8.62-2.62-13-.95-3.93 1.5-7.39.82-11.12-1.27 2.85-2.66 6.29-1.94 9.41-2.4.82-.12 1.68-.1 2.15-.94.38-.69.17-1.44-.44-1.72-2.49-1.14-5.32-3.49-7.77-1.16-3.34 3.18-6.68 2.86-10.44 1.66Zm33.64-380.7c4.76.79 9.92-.18 14.02 3.54 1.22 1.1 3.49 1.52 4.5-.05.77-1.2.72-3.27.35-4.79-.44-1.78-2.34-1.72-3.79-1.41-3.16.67-5.17-.96-7.56-2.72-3.33-2.46-6.17-6.86-11.91-4.27.96-5.91-4.09-7.35-6.94-10.32-3.01-3.14-6.07-2.75-8.49.9-1.15 1.74-2.02 3.36-5.1 2.48 5.13-6.54 11.18-11.3 18.06-15.05 7.55-4.13 14.63-9.62 23.65-10 5.1-.21 9.79-1.56 14.49-3.19 1-.35 2.6-.39 2.46-1.96-.11-1.33-1.47-1.65-2.55-2.06-13.58-5.14-27.47-5.6-41.06-.88-16.64 5.78-31.66 14.59-44.21 27.18-1.22 1.22-3.8 2.07-2.97 4.12.88 2.17 3.18 3.13 5.69 3.41 12.91 1.44 25.48 4.71 37.71 8.79 4.62 1.54 9.96 2.67 13.79 6.42-1.87.51-3.54-.32-5.3-.72-1.15-.26-2.91-1.07-3.2.86-.26 1.7 1.06 2.66 2.81 2.64 3.86-.05 7.5 1.29 11.53 2.06-1.06-3.27-5.12-2.13-5.99-4.96Zm172.3 441.45c1.4-1.02.5-4.03 2.37-3.98 4.32.1 4.36-3.42 5.75-5.83 2.8-4.85 3.03-10.61 6.08-15.53 4.72-7.59 8.56-15.74 12.78-23.65 1.26-2.36 2.23-4.77 1.11-7.74-2.3 3.95-4.61 7.9-6.91 11.85 2.35-8.25 8.01-15.18 8.49-25.57-1.45 3.56-4 4.3-5.29 6.28-1.28 1.96-2.26 4.55-5 4.09-2.96-.5-5.01-2.8-5.48-5.75-.57-3.61-1.74-3.01-4.02-1.3-4.91 3.67-9.71 7.67-15.12 10.44-5.08 2.6-6.63 6.43-6.88 11.46-.69 13.84.87 27.5 3.59 41.03.55 2.72 1.78 5.34 2.91 7.91.81 1.82 2.08 3.18 4.2 1.34-.65 2.2-2.63 4.24-.79 7.16 3.04-3.17 3.74-7.17 5.38-10.67.52-1.11 1.59-2.63-.19-3.42-1.47-.65-2.45.49-2.97 1.88Zm32.02-148.94c3.14.13 4.1-1.47 4.39-4.48 1.52-15.86 3.01-31.73 4.98-47.54 2.3-18.5 3.06-37.04 2.6-55.66-.03-1.06.64-2.62-.86-3-1.23-.31-1.99.99-2.66 1.91-.59.8-1.07 1.68-1.52 2.57-5.24 10.38-10.59 20.7-15.64 31.17-3.9 8.08-6.32 16.45-2.58 25.38.21.49.03 1.15.03 2.16-1.94-1.91-1.34-4.18-2.28-5.92-.44-.82-.29-2.14-1.64-2.15-.98 0-1.27.95-1.56 1.7-2.37 6.1-4.25 12.03-1.08 18.67 5.01 10.48 9.11 21.36 13.13 32.26 1.84 4.98 3.07 10.26 6.77 14.51-.31-3.95 1.02-8.12-2.06-11.57h-.02ZM81.96 477.58c2.46-3.18 4.06-6.82 5.2-10.61 3.11-10.34 6.82-20.61 11.15-30.33 5.52-12.39 10.87-24.96 17.31-36.98 3.05-5.69 1.88-11.49-1.78-16.62-.86-1.21-.67-2.02-.49-3.13.85-5.07-.2-9.89-1.91-14.64-.28-.78-.4-1.93-1.3-1.9-5.04.19-3.04-3.32-2.78-5.51.93-7.69-2.72-13.92-5.82-21.93-3.61 7.81-3.39 14.74-3.7 21.34-1.52 31.72-3.72 63.37-9.39 94.66-.93 5.13-1.79 10.54-4.33 15.7-1.14-1.33-.72-2.1-.56-2.91 3.6-18.09 6.04-36.35 8.06-54.67 2.45-22.14 2.92-44.48 6.43-66.51.9-5.63 3.15-10.91-.79-16.65-4.22-6.16-5.64-7.14-11.61-2.45-10.29 8.06-19.1 17.67-25.67 28.92-3.04 5.21-6.56 10.9-4.69 17.78 5.96 21.87 8.71 44.24 10.36 66.78.7 9.62 3.26 19.07 2.49 28.82-.11 1.38.34 2.92-.89 3.93-1.12-.23-1.16-.92-1.22-1.56-.99-10.4-1.51-20.87-5.3-30.79-.31-.81-1.22-2.26-.03-2.64 3.53-1.14 2.04-3.82 1.89-5.83-1.24-17.27-3.94-34.34-7.27-51.31-.24-1.24.08-3.23-1.5-3.32-1.76-.1-1.88 1.89-2.24 3.29-.16.65-.31 1.29-.47 1.94-4.56 18.92-7.83 38.06-9.05 57.48-.35 5.51-4.07 12.27 4.02 16.17-4.66-1.78-4.82-1.79-5.15 2.83-.37 5.29-.95 10.55-.89 15.9.04 3.87.7 8.35-.17 11.52-2.51 9.12-1.31 18-.85 27 .11 2.15 1.61 3.27 4 3.67 4.2.72 8.43.84 12.66 1.23-4.21 1.7-8.44-.12-12.66.15-1.8.12-4.08.11-2.87 2.42 2.09 4.01 1.24 8.42 2.61 12.55 1.78 5.39 1.51 11.24 3.03 16.89 1.17 4.35 1.53 9.29 2.45 13.93 1.66 8.36 6.25 15.68 8.56 23.84 1.08 3.79 2.08 7.78 4.56 11.3.46-.61.8-.86.8-1.1.09-17.94-1.27-35.9.69-53.82.22-2.04-1.24-2.91-2.77-3.68-1.21-.61-2.99.08-3.82-1.57 1.31-.93 2.26.06 3.33.37 2.73.8 4.64-.26 5.39-2.91 2.7-9.55 1.58-19.09-.02-28.68-.55-3.28-1.55-7.33-.2-9.89 2.79-5.28.72-13.21 9.07-15.31-1.93-1.72-3.33-2-4.85-1.58-1.64.46-2.25-.32-2.02-1.77.24-1.5 1.4-1.13 2.32-.78 1.95.73 5.08 1.09 4.52-1.29-1.28-5.43 1.33-10.06 1.69-15.08.66-9.06.89-18.12 1.88-27.22 2.52-23.13 3.37-46.45 2.58-69.76-.2-5.98-.6-11.97-.51-17.95.03-2.05-.54-5.56 4.53-5.49-2.06 2.54-3.02 4.28-2.77 6.67 2.73 25.58.85 51.16-.55 76.71-.86 15.76-2.34 31.48-3.54 47.22-.12 1.53-.28 3.49 1.15 4.06 1.96.79 2.05-1.6 2.92-2.65.58-.7.92-1.91 2.46-1.13-.51 2.32-1.03 4.68-1.56 7.04-1.98-.5-2.19-.36-2.93 1.37-.15.34-.73.56-1.15.7-1.35.45-2.25 1.18-.79 2.33.88.69 2.27.84 2.98-.49.7-1.29 1.19-2.69 1.77-4.04Zm335.99-388.6c-.64-2.48 2.52-4.78.18-7.67-1.86 1.79-3.59 3.53-3.19 6.22.26 1.76 1.83 1.54 3.17 1.3.48 3.44-1.02 5.78-4.3 7.58-.45-2.3 1.1-4.74-1.51-7.43-3.84 8.18-7.78 15.72-10.7 24.25 3.41.04 2.89-2.82 5.44-3.05-2.06 4.91-5.64 8.93-4.55 14.55 1.26 6.51 1.79 13.17 2.72 19.75.25 1.78.63 4.15 2.85 4.02 4.72-.27 9.55.96 14.17-1.59 3.85-2.13 6.18-4.86 5.83-10.08 2.14 2.36 1.28 4.17 1.05 5.87-.73 5.42-.42 5.85 5.12 5.02 14.14-2.14 28.41-3.23 42.51-5.73 7.17-1.27 14.55-1.46 21.81-.31 3.85.61 7.58 1.9 9.94-2.6 1.67 1.62.23 4.49 3.39 4.78 10.52.98 20.67 3.83 30.87 6.43 3.19.81 4.1.34 3.19-3.29-3.9-15.58-6.89-31.33-12.44-46.54-6.71-18.4-16.13-34.71-32.17-46.29-7.15-5.16-14.65-10.02-24.34-10.32-5.96-.18-11.57-.06-17.52.86-5.57.86-10.8 3.24-14.41 5.88-8.18 5.97-15.76 13.27-20.03 23.11-2.23 5.14-3.59 10.7-7.06 15.28ZM193.37 525.16c4.84-4.46 9.88-8.72 14.47-13.43 13.8-14.18 27.3-28.64 41.38-42.56 17.4-17.2 34.64-34.56 51.83-51.97 16.84-17.05 32.99-34.79 50.31-51.38 10.21-9.78 20.19-19.79 30.87-29.07.72-.62 1.76-1.51 1.73-2.23-.07-1.78-1.87-.69-2.72-1.2-5.46-3.21-11.72-1.51-17.61-2.86-15.16-3.49-30.22-7.74-45.89-9.19-21.47-1.98-43.07-3.59-63.72-10.72-5.23-1.81-10.41-1.87-16.08-.64-9.69 2.11-19.18.71-27.36-5.76-3.87-3.06-5.15-7.65-7.37-11.69-.55-1.01-1-2.36-2.42-2.13-1.42.23-1.48 1.58-1.5 2.77-.1 6.15-.13 12.3-.3 18.45-1.02 35 .16 70.15-5.86 104.83-1.3 7.48-.58 14.86-1.43 22.26-1.99 17.29-3.47 34.62-1.51 52.11-3.33-8.44-3.46-17.37-3.75-26.32-.48 1.77-.94 3.56-.8 5.3.93 11.9-1.69 23.69-1.04 35.6.23 4.18 1.94 5.92 6.02 4.29 3.27-1.31 6.52-1.13 9.82-1.05 3.94.1 4.2 1.81 1.95 4.65-1.55 1.96-3.1 3.88-5.23 5.26-2.29 1.48-3.74 3.57-3.78 6.68Zm170.49-394.34c-1.7.73-2.7-.5-3.91-.82-1.88-.5-4.07-.57-4.94 1.06-.77 1.44 1.24 2.47 2.43 3.24 3.34 2.17 5.62 5.17 7.06 8.8.96 2.43 2.36 3.5 4.99 2.37.71-.31 2.05-.61 2.32-.28 3.54 4.31 8.61 2.39 12.96 3.39 3.7.85 5.13-.74 5.79-4.15 1.28-6.67 2.47-13.39 4.32-19.91 1.63-5.74 2.09-11.21.53-17.06-2.47-9.26-4.42-18.66-6.68-27.98-3.65-15.02-9.23-29.06-20.37-40.35-8.95-9.07-15.3-10.53-24.55-4.86-3.52 2.16-6.98 4.62-9.94 7.48-19.08 18.41-36.32 38.34-49.49 61.51-7.82 13.76-14.68 27.93-19.06 43.21-1.12 3.9-1.11 6.41 4.07 6.34 3.67-.05 7.11 1.45 10.55 2.76 5.47 2.09 10.84.15 16.2-.77 4.05-.7 2.17-5.01 3.84-7.1 1.2.29 1.84 1.01 1.82 1.8-.12 4.62 2.45 4.28 5.84 3.68 8.49-1.49 17.03-2.76 25.57-3.88 7.86-1.03 9.38.89 10.88-11.12.73-5.82 5.92-7.78 10.33-9.8 3.19-1.46 6.77-.83 9.44 2.41Zm29.17 566.01c-.44.04-.87.09-1.31.13 0 2.12-.09 4.24.01 6.35.89 18.11 2.48 36.22 2.51 54.33.02 14.82 4.16 29.75-.57 44.52-.29.92-.03 2.27-1.31 2.32-1.64.07-1.54-1.41-1.6-2.54-.05-.99-.04-2 .06-2.99 1.06-10.81.24-21.63-.21-32.41-1.28-30.57-3.54-61.09-4.17-91.7-.11-5.26-.05-10.68-2.09-15.77-1.57 28.36-.19 56.78-3.74 84.99-1.16-4.42-.19-8.8.05-13.18 1.19-21.29-.25-42.6.37-63.89.18-6.29.71-12.57 1.08-18.86.06-1.07.39-2.23 1.56-2.14 1.25.1 1.33 1.05.8 2.21-.57 1.27-1.61 3.18 1.03 3.25 2.17.06 1.92-1.92 1.85-3.37-.37-7.72-.8-15.44-1.21-23.27-1.46 1.06-2.64 2.5-4.07 2.85-7 1.72-8.66 7.38-10.21 13.18-.38 1.44-.44 2.97-.85 4.4-5.82 20.31-9.97 40.9-11.66 62.01-.35 4.35-1.11 8.76-1.56 13.16-1.73 17.15-6.23 34.23 2.22 51.16 5.15 10.32 9.2 21.37 12.65 32.24 2.8 8.81 7.98 14.88 13.12 21.72 3.14 4.18 8.98 6.72 8.9 13.14-.02 1.31.87 2.02 2.33 2.01 2.03-.01 2.92-1.33 3.64-2.89 3.02-6.61 6.13-13.18 8.99-19.86 2.29-5.34 4.52-10.69 6.33-16.24 3.78-11.57 4.67-23.81 8.72-35.3 1.34-3.81 1.48-7.78.35-11.8-3.75-13.31-5.92-26.92-8.05-40.56-1.81-11.6-3.27-23.36-6.44-34.61-4.04-14.35-5.61-29.34-11.37-43.23-.6-1.44-1.43-3.92.19-4.55 2.35-.9 2.11 1.95 2.67 3.27 6.21 14.79 9.02 30.56 12.45 46.07 3.88 17.5 6.02 35.38 9.14 53.06 1.05 5.98 1.85 12.09 4.29 17.79 1.47-.59 1.59-1.65 1.97-2.55 5.1-11.78 5-24.73 8.32-36.9.9-3.29.34-6.19-.91-9.19-5.79-13.95-10.6-28.25-15.47-42.54-4.6-13.5-6.63-27.77-12.52-40.87-.52-1.16-.56-2.93-2.15-3.06-1.58-.13-2.06 1.43-2.56 2.65-.73 1.78-2.06 2.49-3.92 2.45-1.95-.04-2.37-1.57-2.94-2.93-.5-1.2-.92-2.43-1.21-3.2-8.33 2.19-8.39 8.31-7.21 15.12.36 2.11.21 4.32.16 6.48-.52 19.7 1.38 39.18 5.23 58.48.23 1.14-.19 2.79 2.07 3.06-.29-13.91-2.85-27.66-1.66-41.52.74 1.42 1.28 2.83 1.41 4.29 1.78 19.55 3.18 39.14 3.24 58.78.06 19.94 1.55 39.85.94 59.81-.44 14.31.5 28.6 2.43 42.81-1.9-9.45-3.75-18.92-3.92-28.56-.47-25.78-.29-51.58-3.31-77.24-.8-6.82-1.93-13.59-2.91-20.39Zm-90.31-492.58c-1.78-3.12-1.21-4.21-.99-5.34.37-1.85 2.55-4.04.64-5.46-1.81-1.36-3.97.72-5.96 1.38-1.63.54-2.41 1.74-3.03 3.09-1.25 2.68-2.6 4.11-5.61 1.78-1.46-1.13-3.67-.86-5.14.32-2.13 1.71-1.25 4.39-1.25 6.6 0 2.56 2.6 1.77 3.9 1.8 9.99.22 19.83 1.3 29.69 3.16 5.53 1.04 11.79 1.34 17.08-1.59 5.35-2.97 11.17-2.91 16.85-3.92 1.84-.33 3.35.11 3.6 2.34.25 2.17-6.66 13.82-8.84 14.4-3.32.88-5.98 2.73-8.68 4.73-2.27 1.69-4.93 3.2-7.86 1.68-13.17-6.81-27.75-6.94-41.91-9.08-3.05-.46-4.38.56-4.2 3.7.3 5.09.08 10.17-.21 15.27-.87 15.12-3.97 29.65-11.09 43.09-2.07 3.9-1.34 5.37 2.93 5.42 1.16.01 2.33.04 3.49.13 17.24 1.42 34.56 2.25 51.7 4.44 17.12 2.19 34.06 5.77 51.1 8.67 9.67 1.64 9.68 1.57 8.48-8.45-.06-.49-.05-1-.08-1.49-2.44-33.96-4.89-67.92-7.31-101.89-.49-6.85-1.99-8.08-8.72-7.01-2.41.38-4.34 1.37-5.64 3.58-1.04 1.78-1.99 3.76-4.27 4.57-.91-2.28 2.2-3.41 1.3-5.71-3.54-.56-6.81.89-9.94 2.14-2.43.97-.9 4.01-1.86 5.84-1.05 1.99-1.13 4.96-4.63 5.33-.4-3.85 4.21-7.92 1.57-10.23-2.61-2.29-7.27.39-11.03.75-5.9.57-12.05 1.25-10.91 9.81.02.15 0 .38-.1.48-.66.66-.85 2-2.11 1.81-1.72-.27-1.14-1.57-1.14-2.72.01-2.26 2.07-4.22.93-6.87-4.03 1.07-4.93 6.5-9.52 7.05-.12-2.83 2.96-3.35 3.27-5.6-9.1-2.28-12.98 2.74-14.47 12.02Zm148.92 260.3c-2.06 3.2-3.01 5.58-3.73 8.1-3.16 11.02-6.07 22.11-9.59 33.01-5.74 17.79-11.69 35.5-13.49 54.25-.15 1.59-.98 3.92.74 4.59 4.08 1.59 2.38 4.18 2.07 6.94-.42 3.62-3.9 8.39 3.59 9.83-1.24 1-1.78 1.73-2.48 1.95-3.37 1.04-4.23 2.72-4.68 6.65-.61 5.38 1.59 8.52 4.25 12.35 7.4 10.64 14.42 21.54 21.64 32.32.79 1.17 1.49 3.05 3.23 2.53 1.45-.44.97-2.3 1.05-3.53.6-9.77.8-19.57 1.68-29.31 2.14-23.56 2.02-47.14.62-70.7-.59-9.96-1.17-19.91-1.23-29.89-.08-12.74-2.07-25.3-3.66-39.07Zm-350.57 183.6c-2.65-2.14-1.75-5.2-2.56-7.81-5.32-17.18-6.1-34.99-7.24-52.73-.28-4.42.09-8.64-5.51-10.07-1.75-.45-2.08-2.26-2.46-3.98-.57-2.6-2.29-2.57-3.99-1-.96.88-1.53 2.17-2.42 3.14-.83.9-1.28 2.6-2.95 2.15-1.4-.38-2.01-1.67-2.27-3.05-.56-2.98-1.79-5.68-3.43-8.2-.82-1.26-.11-4.15-2.42-3.62-2.06.48-1.44 3.07-1.43 4.8.13 12.97.33 25.93.53 38.89.05 3.01.36 5.96 1.64 8.76 3.86 8.48 8.05 16.78 13.29 24.5 4.27 6.29 10.69 9.99 17.61 12.42 5.15 1.81 10.44-.86 13.53-4.27 2.56-2.83 2.51-8.08 1.93-12.41-1.28-9.55-2.58-19.1-4.17-28.6-.72-4.3-1.46-8.46-4.61-12.26-3.63-4.37-8.51-8.27-9.26-14.58-.02-.18-.45-.32-1.4-.94-.12 23.55 3.74 46.16 7.59 68.84Zm64.09-181.69c.45-17.25 1.66-34.41 2.91-51.57.78-10.77-1.01-21.61.76-32.37.57-3.47-2.16-4.16-4.44-3.7-6.01 1.21-11.89.56-17.82-.19-4.22-.54-6.63 1.43-7.28 5.62-.89 5.76-1.75 11.49-.87 17.37.65 4.36.8 8.79 1.17 13.19-2.11-5.48-1.14-11.33-3.83-17.69-1.27 8.96.34 16.84.4 24.73.02 2.91.06 7.61 3.7 7.59 2.24 0 3.94-4.5 4.07-7.71.2-4.99 1.43-9.87 1.15-14.92-.15-2.78 1.03-5.24 4.2-7.78-1.4 11.02-.75 21.19-3.83 30.98-1.39 4.42-.76 8.96.28 13.33.56 2.35 1.74 4.49 2.18 7 .86 4.93 1.23 9.88 1.7 14.84.16 1.7.48 3.48 2.8 3.35 2.19-.12 2.57-1.79 2.68-3.55.05-.83.09-1.68-.04-2.49-1.26-7.69-2.7-15.35-3.78-23.07-.61-4.39-1.88-8.77-1.14-14.72 2.32 6.37 2.66 11.65 3.37 16.87 2.01 14.8 4.06 29.59 6.07 44.39.18 1.32.24 2.65-.55 3.86-.99 1.5-1.55 3.49-.04 4.51 2.13 1.43 3.46-1.14 5.15-1.96 1.82-.89 1.91-2.59.76-3.7-2.29-2.21-1.69-5-1.82-7.49-.5-9.46-.72-18.92-2.75-28.23-.27-1.23-.86-2.82 1.01-4.16 1.4 6.07 1.07 12.13 3.82 17.66Zm-33.7 117.5c-1.38-1.06-2.69-2.08-4.02-3.07-2.54-1.9-5.09-2.35-7.66-.05-.85.77-2.05 1.47-1.35 2.84.54 1.07 1.76.88 2.7.68 2-.43 3.82-.94 3 2.32-.11.43.64 1.57.97 1.56 5.68-.14 8.16 5.79 13.21 6.87 1.44.31 3.1 1.48 4.16.32 1.62-1.78-.5-2.82-1.5-4.03-.51-.62-1.02-1.33-1.25-2.08-1.76-5.94-.69-12.95-6.63-17.33-.18-.13.01-.94.2-1.37.8-1.83 3.37-3.72 1.34-5.59-1.6-1.48-4.07.11-6.12.66-.96.26-1.95.47-2.94.54-5.52.4-7.26-2-4.64-6.82 2.54-4.66 5.42-9.16 9.32-12.86 2.17-2.06 2.4-3.88-.23-5.66-5.28-3.58-9.74-8.09-13.88-12.84-3.98-4.58-8.84-8.04-13.53-11.74-2.78-2.19-10.87-2.36-11.46-.18-1.27 4.71-4.73 8.74-3.97 14.12 1.49 10.51 2.62 21.08 3.98 31.61.16 1.22-.05 3.08 1.53 3.34 2.42.39 4.34-1.43 6.48-2.26 2.04-.79.93-2.66.58-3.93-2.69-9.75-4.91-19.65-8.85-29.03-.7-1.67-1.54-3.28-.23-5.85 2.94 8.26 6.32 15.66 9.01 23.43 2.16 6.23.24 14.01 6.57 18.79.17.13-.29 1.17-.53 1.75-1.29 3.13-.4 6.38.8 9 1.19 2.58 4.24.12 6.42.55.6.12 1.4 0 1.49 1.21-1.01 1.79-4.68-.02-5.07 2.96 1.66 1.64 3.73-1.24 5.16.84 1.53 2.23 1.97.55 2.47-.74 1.22-3.17 3.02-5.83 6.9-5.15 4.03.7 6.86 3.01 7.58 7.19Zm309.13 115.09c1.49-1.03 1.43-2.7 1.71-4.06 3.24-15.44 6.34-30.9 9.57-46.34.84-4.02 2.73-7.98-2.95-10.35-1.76-.74-2.94-3.1-4.14-4.88-4.95-7.28-9.75-14.67-14.74-21.92-2.8-4.08-5.51-8.24-10.35-10.46-3.18-1.46-7.54-.16-8.07 3.12-.77 4.86-1.48 9.65 1.33 14.36 2.3 3.85 3.3 8.32 4.37 12.69 5.3 21.49 12.46 42.38 20.28 63.05.65 1.73.82 3.93 2.99 4.81Zm-9.31-182.2c.57-1.3 1.29-2.56 1.7-3.92 5.23-17.31 10.36-34.65 15.66-51.94 1.56-5.11 2.92-10.05 2.13-15.57-2.1-14.65-5.45-29.01-9.59-43.18-2.01-6.88-4.12-13.84-8.64-19.65-1.65.98-1.5 2.22-1.71 3.35-1.86 10.16-2.38 20.46-3.12 30.72-.62 8.61-1.74 17.47-.4 25.87 2.29 14.38 2.98 28.72 2.82 43.2-.11 10.26-.87 20.53 1.16 31.12ZM328.13 621.18c6-5.07 11.25-9.66 17.32-13.12 4.12-2.35 7.11-5.09 6.52-10.46-.37-3.39 1.5-4.72 4.97-3.99 1.31.28 3.34 1.44 4.09-.29 2.65-6.03 5.01-2.6 7.46.01.66.7 1.08 1.84 2.33 1.12 1.01-.59 1.32-2.29.92-2.58-4.48-3.23-.08-4.66 1.19-6.78.4-.66.29-1.62.44-2.44 1.56-8.79-1.79-17.45-.71-26.23.48-3.9-1.2-4.31-4.69-3.55-11.12 2.43-20.13 8.89-28.21 16.07-3.87 3.44-8.48 7.82-9.87 13.36-3.15 12.52-2.9 25.31-1.75 38.86Zm65.89-49.6c1.56-12.51 9.02-23.21 9.6-36.28.81-18.02 3.89-35.91 5.22-53.95.97-13.13-.36-26.27.13-39.38.78-20.61.9-41.22.89-61.83 0-1.63.43-3.67-1.59-4.27-2.17-.65-2.63 1.53-3.45 2.87-2.68 4.41-3.52 9.27-3.38 14.35.23 8.47.85 16.95.65 25.41-.52 21.57-3.2 42.99-4.95 64.47-1.97 24.19-1.96 48.45-2.6 72.69-.14 5.27-2.17 10.39-.52 15.9ZM98.66 479.81c-2.17 4.61-3.6 8.73 2.12 10.73 3.12 1.09 4.83-.75 6.1-3.36-2.01-1.45-4.66-.17-6.29-2.41 1.28 0 2.57-.36 3.51.06 4.69 2.09 8.3.15 11.81-2.71.89-.72 1.95-1.31 3.02-1.74 7.68-3.07 11.25-7.04 9.34-16.77-3.01-15.36-5.51-30.86-8.23-46.69-2.27 1.54-3.38 3.54-4.44 5.56-8.74 16.61-17.34 33.29-24.58 50.63-.91 2.18-2.56 4.36-.49 6.9 2.48 3.04 4.79.39 8.13-.2Zm233.23 93.12c1.23-.65 1.75-.76 2.02-1.08 9.13-10.89 20.25-18.67 34.32-21.68 4.84-1.04 4.11-3.89 2.82-7.06-1.94-4.75-4.08-9.41-5.99-14.17-4.96-12.36-9.84-24.76-14.75-37.14-7.3 26.79-16.7 52.79-18.42 81.14Zm5.47 126.8c-2.01 2.95-1.38 5.93-.62 8.82.9 3.38 1.67 6.75 2.16 10.23 1.96 13.82 4.77 27.47 9.13 40.76.42 1.27.3 3.65 2.24 3.36 1.77-.26 1.31-2.4 1.27-3.83-.61-24.49.19-48.85 6.16-72.79 2.8-11.25 3.51-22.93 7.65-33.94 2.47-6.57 3.67-13.62 5.7-21.43-4.79 2.82-6.36 6.71-8.06 10.36a4129.86 4129.86 0 0 0-19.11 41.68c-2.98 6.6-6.89 13.13-3.06 20.77.01.03-.39.27-.57.39-1.51-1.02-.83-3.28-2.88-4.37ZM60.58 345.38c8.13-7.91 15.44-16.42 24.1-23.63 1.28-1.07 4.22-1.54 3.37-3.54-.82-1.94-2.98-3.56-5.35-4.11-1.07-.25-2.16.03-3.36-.35-9.14-2.9-12.94-1.29-17.44 7.16-1.49 2.79-2.92 5.59-5 8.03-.77.9-2.21 2.59-.74 3.27 3.96 1.82 1.39 4.09.34 5.5-3.22 4.35-5.15 9.31-7.22 14.18-6.84 16.03-12.36 32.48-15.52 49.67-2.58 14.05-4.14 28.14-3.26 42.45.5 8.12-1.3 16.26.09 24.39.23 1.31.12 2.8 2.1 2.7 1.68-.09 3.5-.06 3.69-2.38.11-1.32.07-2.65 0-3.98-.56-11.12-.23-22.21.22-33.33.15-3.66 3.36-4.19 3.62-7.04.44-4.79 1-9.6 2.04-14.29 1.76-7.9 1.56-16.14 4.62-23.83 1.55-3.9 2.08-8.21 3.07-12.33l-.78-.38c-1.22 1.3-2.44 2.6-4.36 4.65 6.12-20.35 13.84-38.7 27.45-54.06-4.73 6.65-8.34 13.91-11.68 21.25Zm401.56 218.49c-1.31.4-1.24 1.16-1.22 1.74.4 16.61-.19 33.16-1.8 49.72-1.01 10.39-1.11 20.87-3.19 31.15-3.42 16.93-6.95 33.83-10.4 50.76-.7 3.41-1.79 6.85-1.78 10.28.01 10.95-.34 21.85-1.92 32.7-.22 1.49-.96 3.3 1.08 4.37 1.39-.92 1.87-2.3 2.29-3.73 3.63-12.59 7.5-25.12 10.83-37.79 2.14-8.15 4.2-16.35 3.67-25-.34-5.61-.18-11.27.67-16.91 2.31-15.23 4.02-30.57 6.64-45.74 2.69-15.56-1.59-30.38-3.64-45.45-.28-2.03-.81-4.03-1.23-6.07Zm-55.58-9.4c1.07.82 2.02-1.11 3.09-.42 4.44 2.85 4.15-.31 4.14-3.18-.04-14.8.4-29.6.69-44.4.61-31.08.54-62.17.73-93.25 0-1.31-.4-2.88 1.41-3.24 2.61-.53 1.79-2.31 1.64-3.89-.52-5.23-.84-10.44.96-15.63l2.19 15.97c1.5-8.02 1.67-15.93.5-23.8-.39-2.62-1.14-4.84.99-7.4 1.62-1.95 1.79-5.44-.22-7.3-2.11-1.95-5.35-3.69-8.14-3.07-2.58.58-1.65 4.01-1.66 6.16-.02 23.46-1.18 46.91-.96 70.35.22 23.32-.27 46.5-3.01 69.67-1.7 14.36-3.67 28.77-2.34 43.43Zm-39.04 273.14c.65-1.62.34-2.45-.26-3.34-2.28-3.36-5.19-6.4-7.14-9.8-5.53-9.66-9.58-20.08-13.35-30.56-4.56-12.67-7.7-25.75-10.36-38.93-2.59-12.82-6.62-25.33-7.97-38.4-.07-.65-.11-1.43-.48-1.92-2.98-3.89-1.91-8.62-2.52-12.92-1.25-8.85-1.58-17.82-2.52-26.72-1.91-18.11-7.07-35.71-8.59-53.89-.03-.35-.52-.66-.89-1.09-1.17 2.94-1.09 5.82-.66 8.58 1.89 12.35 2.49 24.79 2.91 37.24.28 8.31.62 16.55 2.49 24.75 3.54 15.51 7.11 31.05 9.7 46.74 3.59 21.7 8.21 43.09 15.9 63.72 5.14 13.8 12.15 26.47 23.74 36.52ZM346.64 28.28c-10.56-1.14-18.8 2.18-25.31 9.16-9.07 9.73-17.04 20.39-24.16 31.64-10.31 16.3-20 32.96-29.62 49.68-7.23 12.58-12.64 25.52-14.67 39.86-.15 1.03-.94 2.73.68 2.89 1.5.15 2.9-1.08 2.19-2.9-.56-1.45-.41-2.3 1.1-2.57 4.21-.74 4.8-4.42 5.64-7.44 7.3-26.27 19.42-50.08 36.24-71.49 13.95-17.76 28.47-35.01 47.9-48.83Zm50.23 206.26c1.24-4.93.6-9.88-.34-14.54-1.53-7.6 1.3-15.99-4.16-22.92-.63-.8-.59-3.09.08-3.76 2.36-2.37 1.32-4.96.98-7.47-.21-1.59.64-3.89-.86-4.65-1.94-.98-2.42 1.72-3.7 2.6-.94.65-1.66 1.77-3 1.45-2.66-.64-2.69 1.14-2.69 2.87 0 2.34.49 4.56 1.39 6.77 1.05 2.59 2.68 5.45 2.37 7.99-1.49 12.1-.99 24.15-.12 36.24 1.45 20.05 2.06 40.16 5.14 60.07.22 1.45.04 3.49 1.95 3.5 2.22.02 1.52-2.14 1.57-3.46.44-11.63.6-23.23-.66-34.85-.44-4.09-2.24-8.35-.83-12.32 1.83-5.18.65-10.05-.07-15.04-1.11-7.62-3.64-15.03-3.54-24 3.86 7.43 4.03 14.82 6.51 21.54Zm-4.14 85.72c-.38-10.83-2.59-12.85-13.51-12.36-.83.04-1.66.1-2.49.1-5.98-.02-12.09.6-17.89-.85-16.4-4.11-32.85-3.82-49.4-1.52-1.16.16-3.13-.46-3.05 1.54.06 1.52 1.82 1.87 3.1 2.03 7.49.95 14.7 3.15 22.33 3.69 17.04 1.21 33.51 6.2 50.39 8.68 2.62.39 5.2 1.08 7.81 1.53 2.2.38 3.13-.62 2.71-2.83Zm-37.3 58.12c-3.37 1.26-5.17 2.22-6.79 3.67-6.83 6.09-13.38 12.55-20.66 18.05-7.75 5.85-15.88 11.05-22.38 18.51-5.93 6.82-10.05 15.1-17.6 20.65-4.25 3.12-7.72 7.29-11.51 11.02-27.29 26.87-51.64 56.64-81.03 81.42-.94.79-1.74 1.63-1.22 2.97.43 1.11 1.53 1.06 2.48 1.34 2 .59 2.99-.69 4.23-1.87 5.29-5.01 10.87-9.74 15.97-14.94 7.43-7.59 15.31-14.72 22.14-22.95 4.03-4.85 5.77-10.89 10.6-15.43 20.98-19.71 41.42-40 61.68-60.47 9.7-9.8 18.67-20.4 29.8-28.7 4.91-3.66 9.23-7.81 14.28-13.28Zm102.14 70.12-1.53.18c-.41 8.8-.42 17.57.89 26.38 1.1 7.38 2.58 14.83 2.49 22.23-.34 27.18 1.86 54.09 7.32 80.71.46 2.23.43 4.82 2.59 6.66.28-.63.53-.92.53-1.21.05-19.11.08-38.21.09-57.32 0-.81.08-2.01-.39-2.36-3.92-2.96-2.75-7.12-2.75-10.98 0-7.94-.46-15.93-2.18-23.6-1.64-7.3-3.09-14.57-4-21.99-.77-6.27-2.02-12.47-3.05-18.71Zm-319.42 65.11c-2.38-11.07-4.91-23.03-7.54-34.97-.42-1.88-1.51-1.97-3.28-1.02-7.36 3.98-13.49 9.76-20.66 14-1.5.89-2.17 2.26-.83 3.7 2.35 2.54 4.09 6.25 7.39 7.2 8.39 2.42 13.32 9 19.18 14.52 1.18 1.12 2.16 2.81 4.14 1.94 1.99-.88 1.16-2.86 1.6-5.38Zm212.22-83.42c-4.01 4.68-6.47 10.22-8.89 15.8-7.41 17.12-11.73 35.22-16.47 53.16-.81 3.05-4.74 7.1.16 10.5.71.5-.2.98-.68 1.45-1.5 1.47-1.53 3.52-2.06 5.44-3.14 11.3-1.88 23.11-4.19 34.49-.48 2.37-.72 4.98 3.01 6.35 1.02-10.41 3.31-20.4 3-30.65-.09-2.89-.27-6.61 1.25-8.06 2.81-2.67 2.4-5.83 3.34-8.77 2.38-7.51 1.9-15.68 6.42-22.81 2.85-4.5 3.88-10.16 5.69-15.31.55-1.56 1.68-3.13.05-4.92-2.11 2.06-2.12 5.15-3.65 7.95-.75-2.55-.04-4.53.87-5.85 3.01-4.41-.36-12.59 8.13-13.81.47-.07.74-1.72 1.06-2.66 2.43-7.15 2.13-14.7 2.98-22.3ZM300.9 301.26c-4.62-2.22-9.49-1.33-14.19-1.92-1.28-.16-3.21.13-3.27-1.51-.07-2.08 1.91-1.2 3.07-1.21 12.48-.12 24.8 1.37 37.12 3.22 5.04.76 10.28.03 15.22-2.17-1.67-.93-3.36-1.57-5.1-1.81-21.28-2.81-42.73-3.81-64.11-5.52-3.8-.31-6.84.93-8.26 4.88-.78 2.18-1.61 4.37-2.65 6.44-1.61 3.18-.06 4.23 2.8 4.61 6.5.85 12.96.26 19.43-.36 1.05-.1 2.38-.45 2.26-1.51-.41-3.71 1.97-2.44 3.77-2.35 4.66.24 9.38 1.95 13.89-.79ZM330.16 26c2.64.94 3.65-.6 5.04-.94 20.89-5.1 46.22 13.94 49.88 30.07.73 3.21 1.81 6.75 5.4 9.3-1.22-7.59-2.38-14.24-3.34-20.92-1.78-12.39-12.85-24.16-24.81-26.93-4.78-1.11-9.07 1.08-13.42.91-7.89-.3-12.45 4.69-18.75 8.5Zm-4.11 565.53c2.26-15.87 4.53-31.72 7.64-47.43 3.35-16.94 8.14-33.52 12.72-50.14 1.31-4.76 1.11-9.11.2-13.69-.12-.63.03-1.42-.77-1.65-1.01-.29-1.54.47-1.89 1.2-.58 1.19-1.25 2.41-1.48 3.68-1.48 8.18-4.57 15.91-6.74 23.89-7.5 27.58-13.44 55.31-9.68 84.13Zm195.09-422.69c-1.74-1.06-1.09-2.35-1.32-3.4-.69-3.2 2.86-7.37.08-9.17-2.48-1.61-6.79-.19-10.25-.55-4.16-.44-6.16 1.28-6.71 5.26-.56 4.08-.32 7.94 4.45 9.14 7.23 1.82 14.55 3.26 21.86 4.77 1.41.29 3.53.7 3.98-1.02 1.18-4.49 5.4-5.96 8.13-8.87 2.33-2.49 4.22-5.04 3.94-8.55-5.91-1.11-11.8-.96-17.7-.88-2.99.04-3.99 1.29-4.4 4.07-.45 3.01.34 6.37-2.07 9.21ZM115.2 597.56c-2.18.34-6.15-1.97-5.55 2.92 1.14 9.22 2.67 18.4 4.15 27.58.19 1.18 1.39 3.16 2.53 1.15 1.7-2.98 4.84-4.72 5.77-8.51 1.48-6.06 4.26-11.5 12.29-10.66 1.46.15 3.2-.86 4.58-1.7 2.4-1.46 2.74-4.22 2.68-6.56-.04-1.73-2.37-1.7-3.94-2.23-7.37-2.49-14.88-2.68-22.53-2Zm238.58-146.22c.2 1.23.54 3.33.91 5.43.14.82.33 1.75 1.27 1.95 1.28.27 1.62-.73 1.98-1.7 1.27-3.41 2.32-6.94 3.94-10.18 5.29-10.52 10.77-20.94 16.23-31.38 1.47-2.82 3.17-5.55 1.9-8.91-1.31-3.47-1.31-7.17-2-10.74-.26-1.34.63-3.54-1.44-3.68-1.7-.11-1.92 2.07-2.45 3.38-5.71 14.15-11.44 28.29-16.97 42.5-1.55 3.99-3.25 8.02-3.37 13.32Zm58.67-235.73-1.27.06c-.53 9.52-.48 19.04-.45 28.59.04 14.15 3.89 28.09 3.26 42.1-.48 10.61 2.18 21.09.32 31.63-.11.64-.19 1.43.09 1.97 1.53 3.01.64 5.79-.55 8.6-.43 1.01-1.33 2.35-.03 3.13 2.23 1.35 4.8 1.21 7.26.71 1.22-.25 1.91-1.31 1.65-2.68-1.06-5.79.53-11.77-1.44-17.52-.84-2.46-1.51-4.96-1.72-7.69-.72-9.41-1.05-18.84-2.24-28.23-1.52-12.01-2.27-24.12-3.24-36.2-.65-8.15-1.1-16.31-1.64-24.47Zm-232.03 80.12c-2.39 1.26-2.4 3.08-2.88 4.6-1.94 6.17-2.84 12.46-3.26 18.97-.72 11.24-2.06 22.41-1.6 33.75.13 3.18 4.59 4.7 2.31 8.2.63.09 1.26.27 1.88.24 2.67-.12 3.52-1.5 3.65-4.2.66-14.09 1.73-28.17 2.29-42.26.25-6.38.24-12.88-2.39-19.29Zm3.91 158.68c5.63-38.47 5.11-77.14 2.51-115.84-2.71 10.6-4.65 106.69-2.51 115.84ZM49.53 601.02c.25-5.02-1.24-9.86-1.03-14.9.25-6.09-.42-12.26-1.93-18.23-.27-1.07-.11-3.82-2.41-2.42-2.84 1.73-1.78-.26-2.09-1.54-.51-2.15 2.45-3.86.69-6.02-4.32-5.33-4.34-11.73-4.71-18.1-.41-7.03-.93-14.07-1.6-21.08-.16-1.65-1.16-3.35-3.29-2.98-2.1.37-1.61 2.28-1.54 3.65.27 4.97.57 9.94 1.06 14.89 1.1 11.03 2.92 21.94 4.83 32.88 2.11 12.07 7 22.85 12.01 33.85Zm157.89-349.05c6.09-.04 7.57-1.59 6.12-7.52-.68-2.76-2.21-6.14-5.27-6.56-3.31-.46-3.2 3.01-3.66 5.37-.15.78-.17 1.96-1.28 1.71-2.1-.49-.78-2.04-.34-2.71 4.52-6.82.87-11.77-3.6-16.59-.56-.6-1.1-1.24-1.56-1.92-2.69-4-3.88-4.15-5.53.45-1.98 5.52-4.29 11.01-4.94 16.96-.17 1.51.11 2.73 1.35 3.45 5.86 3.38 11.48 7.42 18.7 7.36Zm270.36 381.51c-8.7 26.56-8.83 54.34-11.06 81.83 8.38-26.58 14.54-53.49 11.06-81.83Zm-136.1-249.02 12.51-9.69c1.44-1.11 3.56-3.07 4.65-2.23 2.94 2.26 3.82-.3 5.11-1.59 2.32-2.31 3.97-5.66 6.69-7.15 6.95-3.83 12.92-8.4 16.64-15.54.31-.59.81-1.19 1.55-.94 6.13 2.12 5.65-3.98 7.87-6.52 1.18-1.35-.43-3.08-1.78-3.47-3.34-.96-6.99-2.72-9.09 2.32-1.42 3.42-4.29 5.99-7.09 8.23-12.23 9.78-22.66 21.45-34.22 31.92-1.15 1.04-2.54 2.01-2.85 4.66Zm-80.16-261.28c15.01-26.19 30.34-51.19 47.56-75.8-15.66 7.04-49.29 60.33-47.56 75.8Zm-92.16 367.95c5.36-8.84 11.15-72 8.12-84.54-4.32 27.51-11.47 54.75-8.12 84.54ZM530.17 80.65c.71 2.06 1.23 4.07 2.08 5.92 5.87 12.87 10.14 26.27 13.21 40.06 1.55 6.96 3.07 13.93 4.74 20.86.29 1.22.27 4.26 2.86 1.83 3.01-2.82 5.34-6.51 3.8-10.6-3.77-10.05-5.34-20.94-11.05-30.23-5.06-8.22-8.8-17.05-12.67-25.84-.5-1.13-.78-2.2-2.97-1.99Zm-391.2 589.62c2.71 3.45 5.41 6.75 9.42 5.74 10.17-2.57 20.47-4.04 30.84-5.22 3.61-.41 4.51-2.11 2.78-5.34-1.65-3.07-3.06-6.26-4.73-9.32-1.83-3.34-2.51-9.45-8.51-3.9-.4.37-1.15.37-1.79.55.62 2.33 2.28 2.67 4.11 3.22 3.17.96 3.9 3.94 1.19 5.46-7.59 4.26-15.26 8.48-24.03 10-2.99.52-5.59-1.85-9.27-1.19Zm249.35 173.76c-.85-1.83 3.83-2.52 1.54-4.88-5.57-5.71-10.6-11.76-14.21-18.93-.5-1-1.31-2.67-2.79-.7-.17.23-.41.41-.61.61-.15-.45-.33-.89-.43-1.35-2.59-11.56-10.9-20.2-15.66-30.66-.41-.89-.75-2.14-1.98-1.73-1.51.51-1.08 2.02-.72 3.01 1.3 3.59 2.4 7.32 4.26 10.6 5.54 9.77 10.61 19.8 16.32 29.49 3.64 6.17 6.16 12.89 14.28 14.54Zm40.11-71.28c-2.67 9.23-4.9 18.38-7.54 27.42-.22.74-.24 1.75.1 2.41 1.8 3.61.34 6.68-1.14 9.95-3.61 7.98-7 16.06-11.99 23.35-.85 1.25-2.27 3.25-.57 4.46 2.04 1.45 2.87-1.14 3.59-2.28 7.5-11.94 13.84-24.53 20.48-36.94 2.38-4.45.96-7.73-1.9-11.25-3.31 3.48-2.77 8.64-6.49 12.52.61-10.7 9.29-19.14 5.45-29.64Zm10.11 18.36c8.77-7.62 25.51-71.29 21.12-81.67-7.15 27.64-14.07 54.4-21.12 81.67Zm115.81-564.27c-6.93 4.61-12.64 8.49-15.77 15-4 8.32-11.42 13.2-18.59 18.1-2.9 1.98-1.24 4.11-1.53 5.98-.22 1.42 2.03.92 3.16.26 8.05-4.71 15.76-9.88 21.95-16.96 5.32-6.08 8.78-13.09 10.78-22.37Zm-427.3 9.87c.44-4.83 1.86-9.37-2.17-11.41-3.59-1.81-7.99-2.16-12.09-2.73-2.45-.34-3.64 1.81-3.73 3.84-.14 3.2 2.29 1.41 3.54 1.28 2.6-.28 4.19.79 6.02 2.58 2.48 2.42 1.71 5.6 2.88 8.27.91 2.08 2.31 4.76 4.46 2.48 3.17-3.35 2.68-.89 3.06 1.24.43 2.39.03 5.73 2.39 6.71 4.22 1.75 8.85 2.29 13.88.09-7.28-2.31-8.71-9.59-13.22-14.2-.77-.79-.87-2.44-2.26-2.38-1.94.09-1.83 2.02-2.78 4.23Zm36.58 339.18c-1.06 4.95-2.02 9.25-2.88 13.57-.27 1.38-1.04 3.11.73 3.99 1.51.76 4.24.91 4.7 0 1.71-3.46 2.73-6.83 7.44-7.88 1.5-.33-2.65-12.97-4.96-14.3-.6-.35-1.19-.52-1.83-.09-3.68 2.44-6.95.67-10.18-1.06-3.47-1.85-5.57-.77-5.86 3.22-.13 1.82.26 3.59.96 5.33 1.05 2.63 2.51 3.63 4.64 1.19 1.83-2.1 4.27-2.72 7.25-3.98Zm-113 7.01c1.57 18.95 4.19 37.61 15.62 53.71-2.88-18.56-5.04-37.31-15.62-53.71Zm140.14-178.28c.28.06.57.13.85.19.24-.76.64-1.51.68-2.27 1.03-22.03 3.45-44.04.65-66.13-1.1-8.73-1.53-17.55-2.32-26.32-.09-1.04.12-2.65-1.62-2.47-1.23.12-1.27 1.44-1.25 2.41.07 3.32.08 6.66.39 9.97 2.17 23.02 4.08 46.04 2.66 69.21-.31 5.12-.05 10.28-.05 15.42ZM85.14 530.32c-2.3 3.35-3.38 6.78-5.56 7.73-7.54 3.31-4.44 9.67-5.09 14.94-.2 1.61 1.28 1.19 2.14 1.25 1.94.15 3.14-1.06 3.79-2.67 1.13-2.82-2.08-3.08-3.43-4.87 5.14-.81 6.74 2.11 5.98 5.72-.92 4.39 1.15 8.32.82 12.54-.17 2.14 1.25 3.46 3.39 3.36 2.36-.12 2.25-1.99 2.1-3.7-.18-1.98-.35-3.95-.59-5.92-1.13-9.14-2.28-18.27-3.54-28.38Zm302.33-72.69c-3.86 29.56-5.02 59.29-6.06 89.03 3.38-6.05 8.46-81.92 6.06-89.03Zm38.65 69.87c2.78-5.14 2.51-66.82-.26-71.96-2.34 24-3.72 48 .26 71.96Zm-256.39-95.81c2.53-4.5 2.74-9.44 3.39-14.29 1.93-14.32 3.88-28.63 5.8-42.95.15-1.09.61-2.45-1.03-2.85-.83-.2-1.6.17-2.17.91-1.05 1.35-.29 1.94.86 2.68 2.11 1.35.55 2.42-.67 2.57-5.67.67-5.36 4.65-5.49 8.8-.37 11.28.92 22.58-.37 33.85-.43 3.74-1.35 7.45-.31 11.29Zm151.11 206.78c1.77-2.47 1.53-4.12 1.37-5.71-1.24-12.58-1.49-25.2-1.56-37.82-.05-8.96.07-17.93.07-26.9 0-1.08.44-2.66-1.1-2.91-1.28-.21-1.45 1.14-1.4 2.14.31 6.16-1.29 12.17-1.54 18.22-.53 12.57-.23 25.19 1.37 37.71.61 4.8 1.73 9.53 2.8 15.27ZM160.59 342.05c.19 2.46.33 3.95.41 5.45.07 1.34.02 2.97 1.36 3.49 1.27.49 2.55-.45 3.53-1.41 2.29-2.25 4.58-4.8 4.75-7.99.42-7.96.72-15.91 2.19-23.77.13-.72.22-1.82-.87-2.06-1-.21-1.44.7-1.8 1.4-1.42 2.82-2.93 5.61-4.13 8.52-2.31 5.61-6.44 10.68-5.44 16.38Zm-9.73 161.4c.41-.04.82-.09 1.22-.13-.24-5.18-.13-10.41-.78-15.54-1.32-10.38-2.94-20.72-4.7-31.04-.51-3.02.35-8.91-2.3-8.4-3.65.69-2.62 6.26-2.19 9.72 1.04 8.39 2.56 16.73 4.01 25.07 1.2 6.87 2.57 13.7 4.74 20.33Zm318.46 134.89c3.05-7.03 3.22-14.3 3.97-21.51 1.86-17.82 4.43-35.57 4.24-53.55-.01-1.24.62-3.29-.99-3.41-2.19-.17-1.49 2.12-1.63 3.42-1.44 13.36-1.43 26.82-2.96 40.19-1.33 11.57-1.79 23.24-2.64 34.86ZM326.86 220.89c-.39-1.34-.06-2.53.41-3.78.42-1.14-.1-2.21-1.34-1.94-5.82 1.27-11.55-.56-17.32-.35-.81.03-1.76.03-2.13.94-.53 1.32.67 1.56 1.43 2.14 6.09 4.62 13.59 5.7 20.58 7.92 4.6 1.46 7.09-1.48 6.36-6.31-.23-1.5-.87-2.5-2.14-3.06-1.71-.75-2.26.71-3.02 1.77-.72 1-.89 2.58-2.82 2.67Zm61.56 152.6c-8.75 5.72-11.47 26.4-4.56 33.24 2.59-11.01 4.77-21.64 4.56-33.24Zm-338.12 253c4.5 10.26 8.15 20.87 16.1 29.2 4.66 4.88 9.4 8.65 17.66 4.24-17.15-5.78-25.2-19.74-33.76-33.44Zm342.14-301.01c-9.94-1.84-19.85-3.6-29.73-5.51-9.84-1.91-19.54-4.59-29.58-5.45 17.7 8.79 37.38 9.17 56.18 13.26 1.51.33 3-.08 3.13-2.3Zm15.37-102.77c0-4.18.06-7.49-.01-10.79-.11-5.11-1.39-10.25.15-15.31 1.69-5.57 2.17-10.7-3.67-14.29-1.01-.62-1.17-2.87-2.91-1.91-1.39.76-.72 2.41-.54 3.65 1.45 10.33 2.9 20.65 4.51 30.96.37 2.38.42 4.93 2.48 7.69Zm-175.03 36.56c1.29-1.83 3.33-.92 4.96-1.42 1.64-.51 3.4-1.34 3.12-3.3-.52-3.63-9.51-7-11.83-4.3-1.97 2.3-3.6 2.82-6.39 1.85-1.68-.59-3.9-.24-4.34 2.15-.45 2.48 1.46 3.06 3.38 3.34 4.15.6 8.16 1.38 11.2 4.72.55.6 1.82.67 2.77.75 1.34.11 3.08.05 3.18-1.6.13-2.15-1.68-1.49-2.91-1.3-1.17.18-2.29.39-3.13-.88ZM178.3 628.46c.47 3.59.54 5.89 1.11 8.07.58 2.2 2.44 2.74 3.49.64 2.12-4.24 4.73-8.41 4-13.58-.35-2.47-1.17-3.03-3.6-2.2-8.98 3.07-12.19 10.65-7.92 19.22.35.7.59 1.75 1.63 1.58 1.28-.21 1.1-1.41 1.26-2.35.57-3.39-2.47-6.58.04-11.38Zm-3.87-125.03c.22 3.81-.17 6.64-4.66 6.61-2.38-.02-2.05 1.95-1.86 3.25.48 3.33-.31 6.58-.26 9.85.05 3.57 1.08 7.01 3.37 9.93.45-1.1.32-2.05.31-3-.06-3.8.33-8.75 3.42-9.99 4.76-1.91 3.08-4.86 3.32-7.85.29-3.59-2.18-5.79-3.63-8.81Zm-142.64-7.52c0 5.01-.1 8.83.05 12.64.07 1.69-1.26 4.49 2.23 4.33 2.95-.14 1.89-2.53 1.92-4.18.21-10.87-1.69-21.77.67-32.62.54-2.46-1.57-2.92-3.51-3.08-2.01-.17-2.19 1.18-1.9 2.57 1.49 7.16-1.08 14.4.55 20.34Zm190.36-234.03c-3.64-.91-7.32-2.71-10.9-2.52-5.26.27-10.36 10.61-8.57 15.71 1.01 2.88 2.19 2.52 3.59.48 2.04-2.98 4.79-5.46 6.14-8.94.27-.69.51-2.4 1.9-1.46 3.88 2.63 5.37-1.42 7.85-3.28Zm225.7 123.03c-.42.14-.83.29-1.25.43 0 .46-.16 1 .02 1.38 5.34 11.22 8.48 22.96 8.89 35.43.07 2.14.17 4.73 3.8 6.47.48-16.25-2.8-30.68-11.46-43.71Zm-290.58-94.35c.2-.01-1-.11-2.09.19-2.1.58-3.78 2.23-3.64 4.21.17 2.4 2.33.81 3.6.82 2.6.03 2.09 1.48 1.46 2.97-1.08 2.53-1.73 5.06-.09 7.58 1.4 2.14 2.8 3.47 4.38.03 1.11-2.39 2.45-4.69 3.79-6.96 3.82-6.48 3.05-8.01-4.57-8.83-.49-.05-.99 0-2.85 0Zm396.02-87.18c-2.46 5.41-5.32 10.52-8.48 15.45-1.89 2.96-2.87 6.27-4.07 9.51-.34.93-.56 2.14.27 2.81 1.11.9 1.69-.49 2.41-1 9.24-6.59 11.46-15.94 9.87-26.77Zm-377.44 75.61c-.19-.86.54-2.52-.65-3.31-1.42-.94-2.36.75-3.33 1.45-4.2 3-8.9 4.19-13.95 4.07-1.56-.04-2.66.18-2.81 1.88-.15 1.73 1.09 2.2 2.48 2.46 2.58.5 5.22.84 7.74 1.56 5.93 1.71 10.26-1.4 10.52-8.12Zm-13.79 247.13c-.54 0-1.04.12-1.44-.02-2.61-.86-4.86.09-6.07 2.17-1.37 2.36.91 3.45 2.57 4.56 1.52 1.02 1.5 2.82 2.16 4.29.73 1.62.23 4.7 3.08 4.38 2.48-.28.33-2.87 1.25-4.18.36-.52.51-1.25.58-1.9.6-6.06 2.23-12.13-.36-18.15-.46-1.08-.6-2.62-1.99-2.36-1.89.35-1.08 2.1-.96 3.29.26 2.6 1.57 5.06 1.19 7.92Zm32.46-196.91c2.5-1.36 2.16-2.67 2.13-3.73-.31-9.75-.66-19.49-.09-29.26.21-3.54.38-7.6-4.46-11.33-.73 15.51 1.85 29.56 2.43 44.32ZM320.11 315c-12.67-2.42-24.33-10.94-38.11-6 12.43 3.74 25 6.64 38.11 6Zm108.2-159.43c7.3-.72 14.85 1.04 21.7-2.89 1.17-.67 2.02-1.05 2.76.49.64 1.36 1.98.88 3.08.98 4.19.37 8.25-2.21 12.58-.35 1.18.51 2.81-.8 2.75-2.19-.08-1.7-1.92-1.27-3.14-1.62-2.01-.58-3.16 2.02-5.03 1.3-7.85-2.98-15.66-.32-23.48.13-4.05.24-7.91 1.3-11.21 4.14ZM68.74 626.71c.45 19.57 10.65 28.93 20.03 26.1-10.32-6.22-15.2-16.09-20.03-26.1Zm293.27-232.49c9.32-9.33 16.47-20.15 22.64-31.65-9.3 9.32-19.19 18.21-22.64 31.65Zm-90.56-156.44c-.03-.25-.08-1.59-.36-2.88-.56-2.62-3.01-1.37-4.54-1.98-1.19-.48-1.96.8-1.66 1.77 1.48 4.84-.65 9.06-1.97 13.45-.69 2.3.76 4.18 1.76 6.04.53.98 1.56 2.03 2.77 1.78.96-.2 1.26-1.41 1.51-2.41 1.2-4.84 2.14-9.72 2.49-15.77Zm-91.49-20.63c.2-2.33-2.18-4.35-3.98-5.75-1.77-1.37-3.25 1.49-4.53 2.79-6.12 6.25-6.03 6.82 1.61 11.25 1.33.77 2.73 2.37 4.49 1.04 1.65-1.26 2.86-2.92 2-5.16-.47-1.22-.12-2.27.41-4.17Zm221.75 45.57c-.51 0-1.02.01-1.53.02 0 5.05.18 10.11-.04 15.15-.38 8.35 2.4 16.31 2.78 24.56.06 1.2-.67 3.03 1.42 3 1.89-.03 1.53-1.74 1.56-3.04.2-7.98-1.4-15.8-2.28-23.67-.6-5.33-.17-10.84-1.9-16.01Zm-185.67-13.11c2.16-.23 2.53-3.08 5.05-1.68 2.25 1.25 5.76-.46 5.85-2.2.17-3.55 3.03-7.49-.38-10.85-2.68-2.64-7.87-1.14-8.59 2.5-.77 3.87-1.24 7.79-1.93 12.23Zm264.39-92.94v.14c-2.31 0-4.64-.18-6.93.04-3.32.32-3.46 3.31-3.69 5.56-.25 2.41 2.15 1.98 3.67 2.09 3.13.23 6.28.17 9.4.47 4.9.46 4.75-3.43 5.06-6.23.47-4.17-3-1.36-4.57-2.01-.84-.35-1.95-.06-2.95-.06Zm-46.01 7.34v-.1c3.14 0 6.29.13 9.42-.04 2.33-.13 3.74-1.87 3.66-3.95-.1-2.63-2.46-2.07-4.18-1.95-4.28.3-8.55.71-12.83 1.05-1.48.12-3.05-.12-4.42.32-1.55.5-3.2 1.57-2.88 3.52.31 1.9 2.14 1.05 3.3 1.11 2.64.13 5.29.04 7.93.04Zm-66.67 636.34c-3.65-11.61-8.36-22.8-12.57-34.18-1.72 13.56 5.67 23.8 12.57 34.18Zm-110.14-608.8c.15-.82.45-1.38.3-1.76-2.23-5.65-2.4-11.3-.43-17.06.33-.97.19-3.28-.74-2.9-2.36.94-4.49-2.69-6.69.08-1.71 2.16-1.65 4.67-.48 6.54 2.02 3.22 2.81 6.7 3.64 10.25.52 2.2 1.58 3.98 4.39 4.86Zm93.9-46.19c-1.31.44-3.14-1.97-3.62.86-.38 2.2 1.3 2.39 2.79 2.51 1.77.14 3.73.57 4.59-1.77.41-1.11 1.34-1.22 2.37-1.37 1.86-.26 4.68 1.06 5.33-1.2.7-2.42-2.62-2.94-3.91-4.55-.92-1.15-2.07-2.13-3.21-3.08-1.95-1.62-4.15-1.42-5.84.12-1.82 1.65-1.61 3.79-.09 5.74.58.75 1.65 1.17 1.59 2.74ZM22.75 520.55c-.73 11.9 3.74 38.8 6.88 42.32.23-.46.64-.9.61-1.3-.92-13.58-3.79-26.81-7.49-41.02Zm246.06-247.73c.81-1.17 1.53-1.88 1.87-2.74 4.24-10.69 6.83-21.71 6.63-33.29-.02-1.05.74-2.7-1.04-2.68-1.5.02-1.95 1.5-1.97 2.97-.16 10.52-2.51 20.6-6.02 30.47-.52 1.46-1.2 3.13.54 5.26Zm-6.56-16.11c-2.14.03-8.37 7.11-8.02 9.14.05.3.2.75.42.84 2.57 1.05 4.47 3.77 7.52 3.47 2.78-.27 2.52-3.16 3.51-4.94.48-.86.83-1.82 1.08-2.78.96-3.67-.73-5.79-4.51-5.73Zm89.57 197.35c-2.01 5.87-3.87 10.77-5.35 15.77-.92 3.13-.56 7.6 2.09 8.4 3.3.99 2.31-3.68 3.43-5.74.62-1.14.84-2.49 1.33-3.72 1.85-4.73 1.36-9.25-1.5-14.7ZM208.67 185.57c-6.49-9.26-14.79-11.36-24.48-6.13.34.37.59.9.99 1.06 6.44 2.6 14.11.98 19.93 5.93.86.73 2.6.43 3.56-.85Zm343.28-16.84c-1.23-2.36-.48-5.85-2.19-8.84-1.14-2-3.32-1.25-3.31-.31.07 4.69-3.78 7.67-4.61 11.84-.31 1.57-.83 3.58.81 4.57 2.27 1.38 1.63-.94 2.05-1.93.04-.09.83.05 1.22.21 4.36 1.83 6.1.44 6.03-5.55Zm-260.01 8.13c-3.31-1.51-6.75-1.5-10.19-1.32-2.01.1-2.88 1.34-2.96 3.27-.09 2.16 1.11 2.97 3.07 2.97 2.49 0 4.97-.06 7.46-.12 4.09-.09 7.71-.6 7.43-6.17-.05-1.06 1.77-2.43.12-3.34-1.66-.92-3.8-.34-5.26.53-2.17 1.29 1.58 2.11.34 4.17Zm63.52 250.61c7.23-10.1 10.47-21.83 14.52-33.23-6.46 10.39-13.27 20.61-14.52 33.23ZM476.37 700.3c-4 6.16-9.63 38.69-7.48 42.74 2.94-14.14 6.33-27.53 7.48-42.74Zm-331.03-468c.09-.95 1.74-2.14-.3-2.76-2.96-.91-5.9-2.65-9.07-1.58-1.28.43-2.03.9-2.8-.45-.63-1.09-1.59-2.21-2.56-.72-.76 1.16.52 2.15 1.6 2.6 3.48 1.46 6.28 3.64 7.95 7.09.93 1.94 1.74 3.93 2.69 5.86.44.89 1.16 1.83 2.26 1.64 1.37-.25.69-1.6.98-2.45 1.09-3.18-.38-6.15-.75-9.22Zm350.09-75.84c-1.61-.26-3.78-.76-4.71 2.18-1.02 3.24-1.28 6.51-.14 9.7.45 1.25 2.08 1.16 3.08.66 1.76-.87 3.74-1.75 4.93-3.2 1.94-2.37 2.04-5.67 1.8-8.48-.14-1.69-2.83-.73-4.96-.86ZM139.54 488.31s.08 0 .12-.01c-.78-7.04-1.63-14.08-2.31-21.14-.21-2.24-1.31-3.23-3.37-3.48-.98-.12-1.68.29-1.6 1.31.15 1.89-.23 5.21 1.4 5.25 5.88.15 2.42 4.92 2.07 5.38-4.41 5.67.5 10.69.82 15.94.05.91.94 1.87 2.11 1.64 1.34-.27 1-1.5 1-2.43 0-.82-.15-1.64-.24-2.47Zm298.03 250.94c-.81 1.96-1.96 3.85-2.35 5.89-1.25 6.44-5.13 12.27-4.46 19.11.17 1.71-.42 4.54 1.57 4.73 2.4.23 1.63-2.59 1.98-4.21.63-2.9 1.1-5.85 1.97-8.68 1.69-5.5 1.78-11.13 1.3-16.85ZM189.06 635.9c1.8-1.57 5.4-1.05 5.47-3.74.13-4.78 2.23-9.36 1.34-14.16-.25-1.35 1.23-3.83-1.41-3.91-1.98-.07-4.4 1.42-4.14 3.48.77 6.15-1.01 12-1.25 18.33Zm257.15 153.85c.85.31 1.7.63 2.55.94 5.81-13.16 11.09-26.5 13.48-40.88-4.53 13.62-9.94 26.91-16.03 39.95ZM119.99 522.19c2.91 4.06 7.77 5.64 11.75 8.33 1.32.89 3.09.3 2.11-2.11-1.6-3.93-2.85-8.05-6.12-11.09-1.14-1.06-1.87-3.19-3.82-1.22-1.45 1.46-3.57 3.09.04 4.59-1.24 1.23-2.92-.36-3.96 1.5Zm211.32-336.03c2.83-.98 5.75-1.75 8.45-3 2.04-.94 5.57.13 5.99-2.42.42-2.51-3.11-1.29-4.68-2.52-4.72-3.67-11.28-.68-12.07 5.15-.25 1.87.03 2.98 2.31 2.78Zm124.65-22.28v.16c1.64 0 3.29-.01 4.93 0 2.63.02 4.13-1.71 4.2-3.88.07-2.11-2.16-2.72-3.99-2.91-2.45-.26-4.92-.45-7.37-.34-2.99.13-4.41 2.26-4.54 4.94-.19 3.65 2.76 1.58 4.31 1.99.77.2 1.64.04 2.46.04ZM96.09 304.01c-1.81 1.48-6.32.19-5.51 3.31.69 2.66 1.32 7.52 5.98 7.27 2.4-.13 6 .06 5.91-4.17-.08-4.12-2.93-5.45-6.38-6.41Zm39.78 247.54c.12-1.45-.09-3.33-1.85-3.93-1.73-.59-2.53 1.31-3.24 2.45-1.82 2.96-4.71 5.14-6.03 8.46-.47 1.18-1.85 2.31-.76 3.53.92 1.02 2.55.66 3.81.42 2.14-.41 7.99-8.32 8.07-10.93Zm6.29-31.14c.9-3.66 1.67-6.78 5.33-7.8.41-.11.52-1.8.53-2.75.03-3.5-.49-6.93-1.66-10.24-.46-1.31-.45-3.33-2.64-2.8-2.01.49-1.72 2.53-1.37 3.74 1.37 4.72 1.53 9.22-.06 14-.46 1.39-2.4 3.05-.13 5.85Zm2.8 45.94c-.54-1.9 1.09-4.08-.78-4.87-2.1-.89-3.06 1.53-4.22 2.78-1.71 1.84-.57 14.65 1.36 16 1.79 1.26 1.9-.39 2.05-1.46.6-4.27 1.1-8.55 1.59-12.46Zm14.86-12.65c-1.8-3.76-3.49-6.96-4.88-10.28-1.19-2.83-2.33-2.13-3.76-.31-3.07 3.89-.86 7.69.72 11.07 1.4 2.99 4.02-.14 6.11.05.43.04.89-.25 1.82-.53Zm52.78-329.96c-4.49 6.28-4.89 10.71-1.33 14.38 1.66 1.71 2.78 2.37 4.11-.78 2.2-5.2 1.56-9.44-2.79-13.6Zm180.24 164.91c5.86-3.63 8.64-19.09 4.89-24.83-2.93 7.94-2.79 16.37-4.89 24.83ZM248.33 275.62c-1.88-.91-2.66-.03-3.34.93-.52.73-.57 1.8.06 2.29 2.71 2.1 4.47 5.22 7.71 6.8 2.39 1.17 3.28-.5 4.48-1.74.94-.97 1.89-3.12.81-3.31-4.02-.73-5.14-6.92-9.71-4.96Zm144.55 148.5c2.72-8.63 1.51-17.62 2.47-26.42.09-.8-.16-1.83-1.26-1.68-1.26.17-1.23 1.37-1.36 2.34-1.16 8.56-.55 17.14.15 25.77Zm6.42-292.49-1.72-.27c-.98 4.93-2.05 9.85-2.89 14.8-.35 2.07.92 3 3 2.84 1.75-.14 3.41-.35 3.16-2.75-.51-4.87-1.03-9.75-1.54-14.62Zm-112.69 52.14c-2.32.38-5.33-1.08-6.66 1.78-.73 1.58-1.3 4.05.5 5.47 1.63 1.28 4.09 2.82 5.83 1.1 2.12-2.1 5.01-4.44 5.05-7.45.02-1.96-3.1-.26-4.72-.89ZM84.45 521.79c-3.09 1.01-3.15 6.85-8.28 4.13-1.25-.66-1.16 2.91-1.74 4.49-.72 1.96-1.3 4.22.05 6.17.5.73 1.59.21 2.15-.44 3.58-4.17 7.62-8.12 7.83-14.34Zm48.53-158.08c-.21-1.42.21-2.64-.97-3.1-1.2-.46-1.69.74-2.37 1.39-1.2 1.15-2.29 2.43-3.56 3.49-3.28 2.73-1.87 5.62-.34 8.47.67 1.26 1.88 1.66 2.7.24 1.99-3.44 3.65-7.05 4.54-10.5Zm290.69 176.47c4.49-6.72-4.27-9.6-3.41-14.99-1.99 5.99-1.76 18.94.04 23.53 2-4.49 2.07-9.49 1.37-14.58 1.51 1.79-.07 4.07 2 6.03ZM199.82 511.8c-3.64-.81-3.52-.62-6.84 1.46-1.65 1.03-3.75-.07-5.67-.54-.56 2.64.24 4.85.78 7.07.6 2.45 2.49 2.51 3.56.86 2.12-3.24 4.1-6.52 8.17-8.85Zm-39.27 44.6c-1.09 1.62-2.07 2.78-2.7 4.1-.74 1.53-2.9 2.94-1.43 4.85 1.4 1.83 3.28 3.29 5.92 3.17 2.85-.13 4.16-.95 2.41-3.94-1.41-2.41-2.57-4.98-4.19-8.17Zm150.33-392.94c4.31-.35 8.12-.63 11.91-.99 1.3-.13 2.16-.88 1.98-2.33-.18-1.49-1.17-1.84-2.5-1.69-3.8.42-7.61.71-11.38 1.28-1.39.21-3.99-.55-3.65 2.07.27 2.14 2.56 1.56 3.64 1.67ZM146.53 300.18c-3.79 2.78-6.73 5.81-8.01 9.96-.58 1.86-.3 3.65 2.02 4.36 1.4.42 2.82.55 3.22-1.16 1.02-4.36 1.86-8.76 2.77-13.15Zm259.66 553.36c5.08-.44 10.29-5.77 11.32-10.65.25-1.17 1.04-2.74-.57-3.47-1.25-.57-1.99.74-2.89 1.45-3.95 3.13-3.72 8.59-7.86 12.67ZM168.21 658.18c-6.8.15-12.12.47-16.78 3.83-.85.61-1.49 1.28-1.27 2.43.17.84.79 1.02 1.47.87 5.48-1.2 11.34-1.52 16.57-7.14Zm-14.5-298.76c-4.56-1.42-4.68 4.24-7.05 7.17-.73.9-1.5 2.13-.49 3.09 1.36 1.29 2.7-.04 3.28-.98 1.74-2.84 3.99-4.2 7.39-4.13 1.59.03 1.86-1.66 1.69-3.03-.25-1.96-1.76-2.11-4.81-2.13Zm-14.24-24.39c1.23-5.41 3.33-10.61 2.61-16.28-.15-1.21-.61-2.34-2.14-2.23-1.12.08-2.07.97-2.05 1.88.14 5.53-.99 11.18 1.58 16.63Zm-1.46-32.16c3.23-3.82 6.62-7.37 10.02-10.91.71-.74 2.46-1.83 1.03-3.31-1.17-1.21-2.59-.35-3.69.28-5.3 3.01-6.35 8.43-7.36 13.95ZM116.5 510.38c-.08 1.23 1 2.64-.46 3.65-.99.68-1.47-.36-1.97-.89-1.23-1.31-2.94-2.49-4.11-.81-1.32 1.89 1.93 1.44 2.36 2.94.34 1.19 1.77 1.78 3.05 2.31 4.18 1.69 5.48.82 6.17-3.61.34-2.21-2.9-1.76-2.22-3.86.57-1.77-.64-2.67-2.03-2.52-1.79.18-.81 1.76-.79 2.79Zm132.29-212.85c-1.75-.62-4.04.1-4.28 2.18-.28 2.44 2.41 2.69 4.34 2.9 3.59.38 8.49-2.95 9.68-6.5.19-.57.29-1.41 0-1.84-.65-.97-1.37-.1-2.11.15-2.49.88-3.61 4.75-7.64 3.11ZM43.46 592.36c.23 8.66 3.19 16.44 7.73 23.7-1-8.41-4.22-16.1-7.73-23.7Zm225.97-420.89c-.87-.07-1.02-.76-1.11-1.41-.27-1.96-1.24-3.13-3.33-2.7-1.48.3-2.17 1.36-2.1 2.93.09 2.01 1.18 3.14 3.08 3.22 2.75.12 5.68 1.04 8.06-1.24.95-.91 3.12-1.42 1.38-3.37-1.31-1.46-3.04-1.5-4.46-.38-.79.63-1.04 1.94-1.53 2.95Zm-162.88 330.8c-1.81-1.93-2.23-5.34-4.95-5.65-2.14-.24-5.63.78-5.72 3.35-.1 2.73 2.44 5.21 5.36 5.44 1.78.14 4.02-.95 5.31-3.14Zm319.38-152.51c-.87 1.84.78 2.98 2.61 4.01.68.39 1.49 1.16 2.11.13 1.08-1.77-.02-3.07-1.12-4.4-.63-.77-.16-1.59.45-2.21 1.63-1.65.74-3.42.22-5.12-.54-1.79-1.73-2.97-3.72-2.43-2.25.61-1.83 2.5-1.52 4.12.33 1.75 1.9 3.21.97 5.9ZM336.17 162.1c1.45-.23 3.51.14 3.95-1.96.25-1.19.09-3.02-.67-3.74-1.32-1.26-3.24-.71-4.44.56-1.29 1.36-2.18 1.36-3.65.26-1.1-.83-2.32 0-2.93 1.07-.66 1.15-1.12 2.59-.26 3.76.9 1.22 2.11.56 3.07-.14 1.68-1.23 3.19.23 4.92.2Zm138.55 363.56c-1.17 8.43-2.43 16.87-.46 25.35 1.25-8.42 2.07-16.85.46-25.35ZM242.45 288.05c1.85-.66 5.46 1.12 5.6-2.04.1-2.26-3.03-3.98-5.54-4.82-1.27-.42-6.75 3.78-6.36 4.72 1.21 2.91 3.98 1.56 6.3 2.15Zm140.72 329.02c-7.01.17-4.11 6.14-6.7 8.41-.52.46-.64 1.41.07 1.66 2.7.94 4.09-1.48 5.95-2.6 1.27-.76 2.25-1.97 2.6-3.48.56-2.47.29-4.38-1.91-3.99ZM560 184.93c.89-9.41.68-18.71-2.42-27.73-.02 9.33 1.88 18.46 2.42 27.73ZM388.73 588.55c-3.88 1.37-4.45 4.54-5.7 7.1-.43.89-.54 3.05.54 3.04 2.75-.02 5.51-.72 8.23-1.31.82-.18 1.23-1.07 1.13-1.98-.1-.94-.85-1.71-1.58-1.66-3.94.27-2.94-2.42-2.62-5.19ZM266.71 229.79c2.23-4.22 3.93-7.46 5.65-10.68 1.28-2.41-.31-3.29-2.15-3.99-2.43-.92-3.43.35-3.57 2.56-.23 3.71-.98 7.44.07 12.11Zm80.99-62.22c-4.33-2.98-8.76-2.06-13.08-1.55-1.48.17-2.09 1.52-2.09 2.98 0 1.31.84 1.74 1.98 1.49 4.28-.93 8.91-.31 13.19-2.92Zm-60.82-2.91c2.49-.81 7.82 1.34 7.89-2.35.05-2.62-5.48-1.16-8.48-1.05-2.38.08-6.6-.99-6.33 2.65.22 2.94 3.9.32 5.97.81.15.04.33-.02.95-.06Zm-10.17 54.04c-1.76 2.24-2.98 3.96-4.38 5.51-1.31 1.45-1.36 3.21-.65 4.59.81 1.58 2.88 1.63 4.42 1.36 1.98-.35 1.56-2.28 1.51-3.69-.09-2.39.61-4.89-.9-7.77Zm102.24-52.69c2.77-.2 4.62-.11 6.35-.52 1.41-.33 2.91-1.19 2.72-3.01-.25-2.3-2.17-1.58-3.49-1.49-2.62.17-5.26.42-7.82.95-1.33.28-2.25 1.5-1.97 3.02.28 1.53 1.55 1.44 2.73 1.29.82-.1 1.62-.26 1.47-.24Zm.05 139.73c-7.02-3.65-17.65-4.27-22.6-1.7 7.23 1.68 14.14 2.29 22.6 1.7Zm24.73 61.66c1.14.98-1.88 4.38 1.87 3.91 1.42-.18 5.25.93 4.42-3.25-.52-2.59.51-6.56-2.99-6.88-3.54-.33-3.15 3.37-3.3 6.23Zm-23.08-209.53c2.47-.76 6.44.06 7.68-3.14.57-1.48-2.14-3.03-4.73-2.96-3.12.08-5.81.41-6.39 4-.38 2.32 1.56 2.05 3.44 2.1Zm-194.96 51.49c-.05-1.99.12-4.23-2.06-4.17-2.38.06-5.44.83-5.65 3.7-.17 2.36 1.53 5.58 3.78 5.7 2.66.15 2.95-3.39 3.93-5.23Zm-47.41 238.91c2.3-3.55 3.44-6.97 3.5-10.67.03-1.71.19-3.71-2.07-3.77-2.34-.06-2.92 1.89-2.73 3.87.35 3.53.86 7.05 1.3 10.58Zm241.8-276.56c2.86.24 5.48.56 8.06-.35 1.22-.43 2.88-.62 2.48-2.4-.37-1.59-1.87-.83-2.91-.78-2.63.12-5.26.23-7.87.55-2.22.27-6.01-1.2-6.03 2.06-.01 2.32 3.58.54 5.52.92.32.06.66 0 .75 0Zm-19.56-4.31c2.97-.24 5.94-.44 8.9-.74 1.33-.13 2.02-.99 2.12-2.33.08-1.07-.55-1.6-1.45-1.53-3.44.27-6.89.54-10.3 1.08-1 .16-2.26.97-2.02 2.44.28 1.66 1.64 1.26 2.75 1.09Zm-66.93 46.88v.2c2.48 0 4.95.02 7.43 0 1.25-.02 3.25.56 3.36-1.06.14-2.12-2.16-1.41-3.4-1.63-5.68-1.01-11.52.95-17.19-.82-1.03-.32-1.41.6-1.56 1.43-.2 1.12.56 1.38 1.47 1.43 3.3.16 6.6.31 9.9.47Zm-128.76 35.48c1.52-.35 4.52.93 4.29-1.65-.31-3.41-3.66-4.25-6.7-4.67-1.61-.22-2.95-.13-2.89 2.2.1 3.61 2.07 4.55 5.3 4.12Zm358.4-99.04c.04-.53.09-1.06.13-1.58-4.6-.76-9.21-1.53-13.81-2.27-1.44-.23-2.19.58-2.34 1.88-.14 1.12.53 2.1 1.62 2.05 4.79-.25 9.67 1.51 14.41-.07Zm-167.87 8.23c-3.2-1.61-5.35-2.78-7.58-3.8-1.38-.63-2.88-.9-4.07.43-.98 1.1-.86 2.51-.47 3.75.54 1.71 2.04 1.86 3.64 1.81 2.66-.09 5.03-1.06 8.48-2.19Zm-93.18 115.17c.09-.63.02-1.36-.68-1.63-2.73-1.04-5.49-2.04-8.26-2.98-.82-.28-1.71-.13-2.13.73-.55 1.1.26 1.81.94 2.54 1.6 1.72 4.26 1.75 5.71 3.74.71.98 1.78 1.62 2.97.69.95-.74 1.43-1.79 1.44-3.09Zm-105.31-30.33c-.07-3.19-.01-6.61-4.19-7.2-1.67-.24-2.76 1.28-2.44 2.99.56 3.03 2.02 5.77 5.03 6.79 2 .67 1.76-1.25 1.61-2.57Zm38.78 21.28c-.29-1.87.48-4.51-2.65-4.29-2.71.2-3.49 2.45-3.08 4.65.36 1.93-1.07 5.47 2.51 5.33 3.15-.13 3.07-3.29 3.23-5.69Zm63.26-66.02c-2.89-1.86-4.38-4.79-6.14-7.51-.71-1.09-1.17-2.61-2.86-2.13-.66.19-1.33 1.01-1.62 1.69-.65 1.54-.24 3.22 1.14 3.94 2.41 1.24 4.48 2.66 5.9 5.04.55.93 1.69 1.02 2.64.4.35-.23.51-.76.94-1.43Zm-87.97 153.79c-.15-1.32.8-3.01-1.13-3.8-.52-.21-7.42 6.1-7.38 6.72.11 1.92 1.49 1.79 2.84 1.74 3.06-.12 6.25-.07 5.68-4.66Zm313.48-204.33c2.11-.6 4.57.98 6.57-.92.57-.54 1.4-.96 1-1.99-.3-.75-.97-.8-1.62-.79-4.11.08-8.22.15-12.32.28-.87.03-1.67.55-1.73 1.42-.06.95.79 1.38 1.66 1.47 2.13.2 4.26.35 6.45.52Zm-356.96 284.4c-1.13-8.32-2.09-15.33-3.17-23.27-2.54 4.23-.67 17.38 3.17 23.27ZM87.9 310.55c-3.85-6.06-10.55-6.23-14.42-.96 4.7.31 9.2.62 14.42.96Zm10.31 183.01c-.54-2.99-3.43-3.67-5.34-4.61-2.48-1.22-2.25 1.95-3.04 3.3-1.41 2.44.59 3.39 2.24 3.9 2.54.79 4.29-1 6.14-2.6Zm13.91 162.85c-.89-2.22-.84-5.43-4.78-3.68-1.21.54-2.49.92-3.75 1.34-.87.29-2.35.08-2.09 1.46.15.78 1.29 1.37 1.98 2.03 1.32 1.26 3.03-.88 4.78 1.04 2.16 2.36 3.2-.15 3.85-2.2Zm238.69 125.48c1.91-6.64-1.43-11.38-2.18-16.5-.1-.71-.7-1.19-1.42-1.08-1.09.18-1.19 1.2-1.01 1.95 1.18 4.93 1.64 10.09 4.62 15.62ZM137.64 374.98c4.57-2.45 5.21-6.69 6.87-10.14.49-1.03.56-2.37-.84-2.98-1.41-.61-2.17.39-2.75 1.43-1.86 3.32-3.18 6.81-3.28 11.68Zm-5.54 60.9c.49 7.7-.58 15.58 2.93 22.79.33-7.79-1.43-15.3-2.93-22.79Zm308.49-69.1c.4-.36.79-.72 1.19-1.08-.96-3.31-2.63-6.3-4.53-9.14-.77-1.15-1.26-3.8-3.4-2.03-1.56 1.29-1.02 3.28.34 4.83 2.15 2.46 4.27 4.94 6.4 7.42ZM399.9 311.4c-3.14-.25-2.63 2.5-3.08 4.28-.41 1.64.41 2.91 1.99 3.55.52.21 6.65-5.81 6.43-6.35-1.11-2.69-3.57-.29-5.34-1.48Zm-78.09-129.44c.09-1.43-.1-2.12-1.56-2.04-2.65.14-6.31 3.61-6.09 6.03.16 1.73 1.3 1.95 2.78 1.9 4.12-.15 4.11-3.47 4.87-5.89Zm101.16 176.36c-.43-2.87-3.32-2.76-5.11-3.97-1.36-.91-3.17-2.78-4.49-.17-1.38 2.72.56 3.94 2.9 4.43 2.17.45 4.32 3.02 6.62.26.09-.11.05-.31.08-.55Zm-216.39-98.29c-.03-2.15-1.44-1.92-2.78-2.05-2.52-.25-4.87-.13-5.03 3.07-.09 1.84.97 4.27 2.8 3.89 2.31-.48 3.8-2.9 5.01-4.91ZM175.1 493.82c-2.53.89-4.85 1.49-4.67 4.26.23 3.45 3.67 2.72 5.61 3.68 1.73.86 1.9-1.09 1.64-2.46-.4-2.16-.79-4.35-2.58-5.48Zm184.12 119.24c1.65-.44 3.6-.91 2.97-3.1-.6-2.09-1.18-5.01-3.56-5.31-1.58-.2-3.54 1.47-3.24 4.07.28 2.43 1.25 4.04 3.83 4.34ZM166.86 270.24c.26 1.53-.06 4.31 2.25 3.91 2.52-.44 4.52-2.9 4.91-5.57.46-3.18-2.48-1.74-3.87-2.04-2.73-.59-3.33 1.28-3.28 3.7Zm315.72 330.4c2.26-7.07.33-14.05-.41-21.05.41 7.02-2.5 14.06.41 21.05Zm40.79-350.9c3.32-2.94 6.64-5.89 10.77-9.54-7.37.02-10.15 2.4-10.77 9.54Zm-328.09 27.9c-.55-1.68.52-4.87-3.4-4.31-1.53.22-3.56-.25-3.43 2.37.15 2.91 1.96 4.47 4.58 4.96 1.98.37 2.58-.95 2.25-3.02ZM318.2 173.27c2.67-.44 5.59-.58 5.77-4.19.1-1.99-1.4-2.02-2.77-1.59-2.19.68-5.84-.98-5.8 3.44.02 1.87.94 2.74 2.8 2.34Zm122.85 211.72c.84 7.12 1.87 12.8 6.13 18.17-.28-6.87-1.85-11.65-6.13-18.17Zm-331.56-66.31c-2.12 4.85.85 7.77 2.54 11.01.31.6.89 1 1.62.77 1-.32.99-1.22.97-2.03-.09-3.84-1.95-6.76-5.13-9.75Zm46.02 154.76c-3.39 3.26-3.39 10.13.18 15.08.89-5.27.31-10.12-.18-15.08Zm118.41-316.48c-2.94-1.63-5.78-1.62-8.45-1.93-2.14-.25-3.52 1.31-3.27 3.4.26 2.13 2.31 1.76 3.57 1.31 2.53-.9 5.47-.74 8.15-2.78Zm225.19-11.79c-2-.2-4.11-.57-4.32 1.66-.25 2.77 2.19 2.79 4.18 3 2.08.21 4.63.18 4.73-2.29.13-3.4-3.26-1.56-4.59-2.37Zm49.46 37.35c-1.8-2.3-3.86-4.34-6.3-2.67-2.94 2.02-2.24 5.57-2.35 9.48 3.5-2.34 4.33-6.79 8.65-6.81ZM183.22 519.81c-.48.02-.97.04-1.45.07 0 3.56-.04 7.12.02 10.68.02 1.22-.24 3.05 1.54 3.01 1.15-.03 1.42-1.57 1.42-2.8 0-3.73-.1-7.45-1.53-10.95Zm-37.15 19.86c-.33-1.2.8-3.02-1.53-2.97-2.65.06-4.32 1.4-4.62 4.06-.25 2.2 1.4 3.76 3.09 3.66 2.64-.16 2.54-2.88 3.06-4.76Zm121.41-332.01c-.25 2.33-.33 4.29 2.74 4.02 1.19-.1 3.18.62 2.74-1.47-.51-2.47-1.36-5.81-3.62-6.46-2.12-.61-1.27 2.66-1.86 3.91Zm144.87 360.27c-.32-2.68-1.96-4.74-1.75-7.31.2-2.49-1.98-1.8-3.2-1.8-1.8 0-1.36 1.6-1.17 2.61.63 3.32 2.78 5.3 6.12 6.5ZM564.8 167.56c1.87-3.46.78-6.81 1.03-9.98.08-.99-.76-1.36-1.68-1.36-1.18 0-2.07.65-1.9 1.77.47 3.11-.17 6.55 2.56 9.57ZM97.66 666.53c-4.64-.95-9.2-2.45-15.03-1.99 5.24 4.54 10.2 2.98 15.03 1.99ZM437 773.18c.67 5.23-4.94 8.92-3.7 14.51 3.64-4.07 4.48-8.97 3.7-14.51ZM259.62 286.69c4.99-.53 7.01-4.08 7.49-12.65-3.71 3.91-3.95 8.95-7.49 12.65ZM64.87 551.67c.21 1.39-.2 2.97 1.47 2.93.97-.02 1.57-1.18 1.54-2.24-.07-2.95.4-5.82 1.04-8.69.16-.75.01-1.76-.93-2.01-1.33-.36-1.79.79-1.88 1.68-.31 2.9-.38 5.83-1.24 8.33Zm118.09 12.6c-.07-.83.5-1.93-.66-2.52-.71-.36-1.27.16-1.66.69-.95 1.32-2.19 2.56-2.69 4.04-.55 1.61 0 3.61 1.77 4.11 2 .56 2.22-1.43 2.57-2.84.28-1.12.44-2.26.67-3.48Zm-4.35 32.76c-1.16-1.27.46-4.25-2.2-4.28-2.54-.03-3.26 2.28-3.59 4.5-.23 1.54.07 2.73 1.94 2.49 1.68-.21 3.76-.06 3.85-2.71Zm53.48-300.26c1.85-.17 3.89.07 3.81-2.35-.05-1.66-1.17-2.87-3.02-2.31-1.93.58-5.29-.55-5.54 1.74-.26 2.33 2.93 2.46 4.75 2.92Zm42.99-103.15c.82-3.11 1.91-5.36 1.48-7.9-.19-1.15-.39-2.54-1.8-2.52-1.59.02-2.23 1.49-2.07 2.79.29 2.37.52 4.83 2.39 7.63Zm150.06-17.4c-4.06-.49-8.15-1.03-10.41 4.17 4.5.48 7.63-1.37 10.41-4.17Zm108.88 24.18c3.92-1.45 8.49-1.86 10.84-6.72-5.9-.77-7.85 3.81-10.84 6.72ZM133 384.82c-.35-.98.67-3.18-1.06-2.6-3.08 1.05-2.86 4.87-4.54 7.23-.5.7.62 1.42 1.54 1.28 3.48-.52 3.56-3.38 4.06-5.91Zm20.03 222.1c-2-2.36-4.18-4.11-7.13-2.75-1.08.5-1.06 2.42-.44 3.12 2.46 2.74 4.96-.57 7.57-.37Zm310.1-165.63c.24-4.16.38-8.35-1.99-13.18-2.75 5.86.41 9.36 1.99 13.18Zm-40.32-102.08c-.06-1.53-.73-2.61-2.35-2.39-2.1.29-3.79 1.79-4.15 3.62-.39 1.97 1.93 1.8 3.2 2.02 2.43.43 2.94-1.42 3.31-3.26ZM267.74 193.8c.58.05 1.16.1 1.74.14 1.84-2.91 1.48-6.12.72-9.33-.12-.51-.79-1.24-1.25-1.27-1.11-.09-1.18.95-1.19 1.75-.04 2.9-.02 5.81-.02 8.71Zm218.97-42.25c-3.72-.39-7.44-.81-11.17-1.09-.42-.03-1.18.72-1.3 1.23-.26 1.05.59 1.36 1.48 1.46 3.66.4 7.26-.17 10.99-1.6ZM150.09 372.46c2.89.91 5.69 1.6 8.2-.58.91-.79.29-2.31-.53-2.44-2.79-.45-6.02-1.64-7.67 3.03Zm13.66 241.58c-3.46-.15-6.77-2.75-10.75-.99 3.63 4.77 7.27 2.45 10.75.99ZM113.47 419.5c2.58-3.28 6.59-6.05 5.33-12.46-3.11 4.58-4.55 8.35-5.33 12.46Zm117.66-131.26c-4.43-.23-8.14-.45-11.86-.59-.92-.03-2.22-.15-2.18 1.27.03.9 1.12 1.5 1.85 1.27 3.74-1.19 7.92.48 12.19-1.95ZM94.14 571.39c4.56.76 5.33-1.99 6.31-4.39.25-.63-.4-1.56-.99-1.19-2.24 1.4-4.63 2.76-6.35 4.69-.75.84 1.19.93 1.04.9Zm83.75-12.22c-.64-1.24.83-3.93-1.67-4.12-2.03-.15-2.12 2.11-2.12 3.76 0 1.62-.15 3.62 2.23 3.56 1.79-.05 1.71-1.63 1.56-3.19Zm197.14-406.05c-.26-1.39-1.3-1.43-2.24-1.28-2.68.43-3.75 2.49-4.2 4.8-.37 1.92 1.29 1.55 2.3 1.42 2.86-.37 3-3.08 4.14-4.95ZM95.81 510.49c-.76-4.01-3.5-5.4-5.04-7.59-.37-.53-1.26-.69-1.71-.1-.36.46-.49 1.22-.46 1.83.2 4.36 4.25 3.55 7.21 5.86Zm80.17 15.85c-.5 3.8-2.63 7.64-.18 12.83 1.8-5.06.69-8.94.18-12.83ZM360 158.84c3.51.34 5.06-1.41 6.66-2.95.87-.84 1.31-2.16.46-3.09-1.25-1.37-2.47-.03-3.23.78-1.31 1.39-2.31 3.08-3.89 5.26Zm86.98 647.95c-3 3.48-5.44 7.22-6.24 13.07 3.77-4.42 4.96-8.77 6.24-13.07Zm-85.34-208.78c-.73-1.63-1.95-2.13-3.61-2.04-2.47.14-2.8 1.91-2.99 3.77-.18 1.73.94 2.12 2.14 1.48 1.6-.86 4.05-.69 4.46-3.21Zm37.74-433.06c1.83-.09 3.65-.36 3.47-2.63-.18-2.42-2.28-1.23-3.55-1.38-1.71-.2-3.81.11-3.8 2.14 0 2.47 2.55 1.28 3.87 1.87Zm-18.24 445.51c.1 1.26-.09 3.29 1.5 3.15 2.08-.19 3.1-2.22 3.31-4.29.15-1.47-.55-2.8-2.1-2.86-2.76-.11-2.27 2.29-2.7 4ZM155.09 342.38c-2.26 1.68-5.35 2.72-5.24 6.06.02.75-.15 1.76.91 2 .94.22 1.62-.42 1.91-1.19.87-2.27 1.62-4.58 2.42-6.88Zm-10.11 210.51c.2-1.61-.2-2.27-1.2-2.32-1.16-.06-5.27 5.57-5.17 6.84.07.91.83 1.35 1.23 1.03 2.12-1.72 4.38-3.38 5.14-5.55Zm-34.88 41.12c1.14-1.09 2.64-2.18 2.62-4.23-.02-1.74-1.26-2.26-2.72-2.05-2.35.33-1.96 2.31-2.04 3.89-.05 1.2.17 2.36 2.13 2.4Zm98.31-387.52c-1.81-.81-.52-4.38-3.41-4.84-1.23-.2-2.3 1.15-1.7 2.35.93 1.83 1.8 4 4.08 4.58.88.23 1.45-.56 1.02-2.09ZM183.9 593.63c-.72-.94.28-3.41-2.22-3.37-1.21.02-2.62.88-2.12 2.63.43 1.49.35 3.52 2.51 3.77 2.08.24 1.77-1.39 1.82-3.03Zm-13.95-225.28c.1-1.25-.66-1.59-1.79-1.61-2.03-.04-4.12.22-5 2.22-.41.93.58 2.28 1.99 2.17 1.94-.16 3.98-.4 4.8-2.78Zm-67.1 215.99c-.09-2.27-1.58-3.23-3.56-3.36-1.33-.09-1.5 1.17-1.45 2.15.1 2.02 1.02 3.55 3.25 3.61 1.5.04 1.92-1.04 1.76-2.39Zm378.3-415c1.15-.66 3.77.93 3.78-1.56.02-2.25-2.54-1.53-4.01-1.57-1.45-.04-3.91-.73-3.71 1.8.16 2 2.45.76 3.93 1.33ZM155.08 351.41c-1.44.45-2.27 1.59-2.49 3.11-.24 1.66.71 2.45 2.3 2.33 1.38-.1 3.34.22 3.31-1.86-.03-1.65-1.17-2.98-3.11-3.58Zm121.36-145.09c1.36-2.66 1.75-5.08.17-7.52-.47-.73-1.24-.55-1.54.07-1.25 2.51-1.44 4.95 1.37 7.45Zm-89.29 403.8c.23-2.51.7-4.96-1.33-6.58-.59-.47-1.54.54-1.77 1.33-.82 2.76 1.08 4.07 3.1 5.25ZM299.59 187.7c2-.46 3.94-1.02 4.39-3.43.24-1.31-.44-1.77-1.69-1.73-2.2.08-3.96.75-4.3 3.2-.15 1.07.25 1.98 1.6 1.96Zm128.75 186.45v9.56c1.33-3.14 1.98-6.3 0-9.56ZM167.63 621.24c3.87 2 4.97-.61 6.11-2.96.62-1.27-.18-2.3-1.27-2.78-1.46-.65-1.96.08-1.96 1.62 0 1.82-2.17 2.3-2.88 4.12Zm3.57-66.88c-1.18-3.1-.95-6.84-3.84-9.65-1.87 4.8 1.77 6.93 3.84 9.65Zm255.44 282.85q-6.31 1.94-5.17 6.51c2.15-1.69 4.06-3.37 5.17-6.51ZM216.11 297.5c3.92 3.82 4.92 4.02 8.02 1.86-2.46-.87-4.66-2.5-8.02-1.86Zm-34.42-51.03c-.8-2.37-2.96-2.36-4.84-2.87-1.02-.28-1.68-.15-1.49 1.05.36 2.25 2.24 2.69 4.03 3.07.99.21 2.02 0 2.29-1.25Zm233.21-95.16c-2.49.26-4.45.45-6.4.67-.93.1-1.59.57-1.46 1.58.05.37.55 1.01.75.97 2.45-.42 5.84 1.5 7.11-3.22ZM241.32 291.42c-1.32-.19-2.68-.04-2.73 1.4-.07 1.89 1.73 2.18 3.12 2.47 1.42.29 2.92-.17 2.91-1.8 0-2.06-2.04-1.67-3.3-2.06ZM109.83 507.6c-.16-1.61-1.51-1.64-2.51-1.79-1.74-.26-2.77.71-2.96 2.44-.13 1.19.7 1.86 1.71 1.95 1.9.17 2.73-1.38 3.76-2.6Zm301.75-337.08c1.28-.52 3.63.34 3.88-1.81.18-1.54-1.58-1.77-2.95-1.76-1.55.01-3.14.19-3.39 2.06-.24 1.76 1.14 1.62 2.46 1.51ZM158.84 584.75c.05-1.12.25-2.41-1.11-2.37-1.52.05-2.8.89-2.77 2.71.02 1.33.35 3.09 1.69 3.14 2.29.09 1.68-2.26 2.19-3.49Zm239.72-428.54c1.53-.13 3.19.08 3.31-2.06.07-1.18-.89-2.32-1.59-1.56-1.52 1.66-4.68-1.05-5.03 1.83-.21 1.77 1.94 1.73 3.3 1.78Zm-68.15 524.32q-.78 5.8 1.7 7.78c.73-2.68.72-5.12-1.7-7.78Zm-56.67-499.81c1.65-.06 2.32-1.02 2.2-2.54-.11-1.39-.62-2.54-2.33-2.46-1.57.08-2.39.92-2.29 2.48.1 1.47.9 2.37 2.42 2.51Zm-65.25 13.97c1.38-.49 2.38-1.47 2.33-2.86-.05-1.56-1.57-1.45-2.66-1.47-1.19-.02-2.5.26-2.28 1.86.19 1.36 1.03 2.39 2.61 2.48Zm-60.12 327.47c-.07-1.14 0-2.56-1.68-2.27-1.77.3-2.71 1.63-2.94 3.41-.17 1.37.4 2.32 1.83 2.18 1.89-.19 2.73-1.48 2.79-3.32ZM347.4 211.68c.07-1.43-1.1-1.64-2.26-1.71-1.45-.09-3.29-.29-3.46 1.67-.14 1.57 1.48 1.94 2.79 2.17 1.54.27 2.48-.47 2.93-2.14Zm71.84 217.84c.84-4.51.93-8.98.19-13.39-.42.03-.83.05-1.25.08.35 4.44.7 8.88 1.06 13.31ZM287.02 168.45c3.66 1.95 6.4 1.19 9.6-1.2-3.49-.2-6.26.34-9.6 1.2Zm18.09 3.42c-.01-.97-.41-1.71-1.1-1.38-1.85.87-3.09 2.35-3.24 4.49-.06.88.33 1.89 1.32 1.42 1.91-.9 2.36-2.94 3.02-4.53ZM475.1 40.29c-2.51-.91-4.99-2.47-8.48-.55 3.17 1.4 5.76 1.61 8.48.55Z"/><path d="M104 289.89c-1.27 1.1-1.5 1.49-1.74 1.49-3.68.07-8.61 2.22-10.63-1.17-2.01-3.37 3.11-5.06 5.12-7.42 6.48-7.59 20.54-17.22 27.88-18.84-6.51 4.78-12.13 8.95-17.79 13.06-3.77 2.73-7.37 5.63-10.3 9.29-.69.87-2.09 1.38-1.6 2.77.55 1.55 1.97.75 3.03.8 1.63.08 3.26.02 6.03.02ZM54.8 479.59c-.53-3.04-4.35-2.97-3.35-5.89.31-.9 2.15-.56 3.2-.03 2.37 1.22 2.17 2.96.16 5.92ZM51.28 469.25c-2.49-2.68-3.59-5.91-5.15-10.52 3.74 3.62 3.31 7.66 5.15 10.52ZM148.95 396.28c-.03-3.79-1.02-7.91 3.16-10.19-1.55 3.27-1.45 7.03-3.16 10.19ZM370.89 528.17c-.17-8.21-4.01-15.62-5.18-23.61-.12-.79-.68-1.51.11-2.78 2.67 7.35 4.81 14.5 6.25 21.86.34 1.76.24 3.29-1.18 4.54h.01ZM181.16 190.97c-12.48 4.95-24.83 9.64-36.98 14.76-6.29 2.65-13.15 4.35-17.76 10.3-1.47 1.9-4.73.89-7.01.04-1.34-.5-.7-1.63.35-2.16 19.46-9.82 39.5-18.16 60.64-23.69.07-.02.21.2.76.76ZM43.56 383.54c-.98 12.1-4.11 23.92-5.17 36.01-.14-12.25 3.09-24.06 5.17-36.01Z"/></svg>